<?xml version="1.0" standalone="no"?>
<!DOCTYPE svg PUBLIC "-//W3C//DTD SVG 1.1//EN" "http://www.w3.org/Graphics/SVG/1.1/DTD/svg11.dtd" >
<svg xmlns="http://www.w3.org/2000/svg">
<metadata></metadata>
<defs>
<font id="hobo_stdregular" horiz-adv-x="1187" >
<font-face units-per-em="2048" ascent="1747" descent="-301" />
<missing-glyph horiz-adv-x="593" />
<glyph unicode="&#xfb01;" horiz-adv-x="1236" d="M16 1130v7q0 57 7.5 92.5t25 53t37.5 23t53 5.5q26 0 44.5 14t29.5 41t18 53t14.5 63t14.5 58q28 92 108.5 149.5t163.5 57.5q50 0 80 -0.5t85 -2t89.5 -6t71.5 -12t55.5 -20t18.5 -29.5q0 -37 -30.5 -135t-59.5 -98q-12 0 -31 10t-70.5 20.5t-142.5 10.5 q-39 0 -67.5 -45t-28.5 -86q0 -24 15 -44t38 -20q45 0 147.5 10.5t317.5 10.5q67 0 67 -41q0 -13 -12 -123.5t-12 -241.5q0 -144 8 -283t20 -236t24 -172t20 -117t8 -44q0 -16 -5.5 -27t-12 -16.5t-20 -8t-21.5 -2.5t-26 0.5t-24 0.5h-139h-16q-40 -1 -53 12q-27 26 -34 178 q-6 122 -6 488q0 253 7 342q0 36 -38 57t-85 21h-97q-31 0 -53 -15t-32.5 -34t-16 -53t-6 -53.5t-0.5 -53.5v-3.5v-3.5v-3q0 -119 19 -322.5t38 -359t19 -160.5q0 -11 -3 -18.5t-5.5 -11.5t-11 -5.5t-12.5 -2t-17 0t-17 0.5h-219q-2 0 -7 -1q-19 -3 -27 15q-34 70 -34 598 q0 51 3.5 154t3.5 154q0 8 1 28.5t0.5 34t-1.5 33t-6 32t-13 25.5t-22 19t-33 6q-20 0 -45 -12.5t-35 -12.5q-12 0 -17.5 8.5t-6.5 18t-1 30.5z" />
<glyph unicode="&#xfb02;" horiz-adv-x="1216" d="M16 1130v7q0 57 7.5 92.5t25 53t37.5 23t53 5.5q26 0 44.5 14t29.5 41t18 53t14.5 63t14.5 58q30 97 122.5 152t231.5 55q204 0 329 -9t174 -23.5t48 -37.5q0 -7 -8 -43.5t-20.5 -102t-25 -151.5t-21.5 -216.5t-9 -272.5q0 -158 8 -302t19.5 -240t23 -168t19.5 -111.5 t8 -44.5q0 -10 -5 -16t-15.5 -8t-18.5 -2.5t-21 0.5t-16 1h-209q-17 0 -30 47.5t-20 136t-11.5 161.5t-6 181t-1.5 133v74q0 178 2.5 310t6.5 196.5t8 102.5t6.5 55t2.5 28q0 19 -7 32t-16.5 19t-28 8.5t-32 2.5t-39 -1t-38.5 -1q-56 0 -92.5 -13t-51.5 -36t-19.5 -41 t-4.5 -41q0 -22 14 -38t37 -16q13 0 39 5.5t39 5.5q23 0 38.5 -7t23.5 -16.5t12 -28t5 -33t1 -40.5q0 -107 -43 -107q-5 0 -39.5 9.5t-55.5 9.5q-31 0 -53 -15t-32.5 -34t-16 -53t-6 -53.5t-0.5 -53.5v-3.5v-3.5v-3q0 -119 19 -322.5t38 -359t19 -160.5q0 -11 -3 -18.5 t-5.5 -11.5t-11 -5.5t-12.5 -2t-17 0t-17 0.5h-219q-2 0 -7 -1q-18 -3 -27 15q-32 69 -34 598q0 189 7 308q0 8 1 28.5t0.5 34t-1.5 33t-6 32t-13 25.5t-22 19t-33 6q-20 0 -45 -12.5t-35 -12.5q-12 0 -17.5 8.5t-6.5 18t-1 30.5z" />
<glyph horiz-adv-x="2048" />
<glyph horiz-adv-x="2048" />
<glyph unicode="&#xd;" horiz-adv-x="2048" />
<glyph unicode=" "  horiz-adv-x="593" />
<glyph unicode="&#x09;" horiz-adv-x="593" />
<glyph unicode="&#xa0;" horiz-adv-x="593" />
<glyph unicode="!" horiz-adv-x="665" d="M102 197q0 92 66.5 157.5t159.5 65.5q97 0 165 -65t68 -160t-67.5 -160.5t-163.5 -65.5q-95 0 -161.5 67t-66.5 161zM102 1405q0 51 1.5 90.5t2.5 70t5.5 52.5t7 37.5t10.5 25t12 15t15.5 7.5t17 2t20.5 -0.5t23 -0.5h272q72 0 72 -39q0 -8 -25.5 -68t-55.5 -136 t-55.5 -187t-25.5 -209q0 -123 17 -307l16 -185q0 -14 -46.5 -21t-96.5 -7q-43 0 -88.5 170.5t-72 371.5t-26.5 318z" />
<glyph unicode="&#x22;" horiz-adv-x="681" d="M51 1614q0 121 101 121q100 0 100 -121q0 -12 -41 -463q-3 -26 -20 -45t-39 -19q-23 0 -40 19t-20 45q-41 451 -41 463zM430 1614q0 121 100 121q101 0 101 -121q0 -12 -41 -463q-3 -26 -20 -45t-40 -19q-22 0 -39 19t-20 45q-41 451 -41 463z" />
<glyph unicode="#" horiz-adv-x="1265" d="M63 481v211h236l51 287h-217v211h244l76 471h196l-76 -471h226l73 471h201l-74 -471h203v-211h-233l-51 -287h212v-211h-239l-80 -481h-195l74 481h-223l-76 -481h-198l75 481h-205zM496 692h225l49 287h-225z" />
<glyph unicode="$" d="M43 1231q0 168 104.5 292.5t282.5 157.5q33 7 48 20t16 50q1 15 10 24t26.5 12.5t29 4t32.5 0.5h8q7 0 12 -0.5t9 -2.5t7 -2.5t4.5 -4.5t2.5 -5.5t1.5 -7.5t0.5 -7.5v-9v-9.5q0 -16 7.5 -26t22.5 -15t29 -7t37.5 -4.5t36.5 -4.5q246 -45 246 -91q0 -19 -46 -137.5 t-65 -118.5t-49 21t-73.5 42t-94.5 21q-11 0 -18.5 -3.5t-12 -11.5t-7.5 -14.5t-4 -18.5t-1.5 -18.5t0 -19.5t0.5 -16v-178q0 -77 17.5 -107.5t87.5 -56.5q395 -138 395 -492q0 -215 -122.5 -351t-305.5 -136q-64 0 -64 -82q0 -12 -3 -20.5t-6.5 -13t-12.5 -6.5t-14 -2 t-19 0.5t-20 0.5t-18.5 -0.5t-17.5 -0.5t-13.5 1.5t-12 5.5t-7 11t-3.5 18q-1 50 -26 69t-79 19t-134 26.5t-137.5 60t-57.5 52.5q0 45 40.5 184.5t65.5 139.5t55 -19t55.5 -41.5t66.5 -41.5t87 -19q20 0 32.5 7.5t17 23.5t5.5 26.5t1 31.5v9v191q0 81 -9 102q-13 31 -72 54 q-9 4 -20 8q-163 59 -258.5 168t-95.5 268zM319 1249q0 -64 53 -120t89 -56q37 0 37 135v115q0 9 0.5 24t0.5 22t-1 18t-3.5 16t-7 10.5t-12 7.5t-18.5 2q-65 0 -101.5 -52.5t-36.5 -121.5zM645 422q0 -22 1 -33t6.5 -24t18.5 -18t34 -5q72 0 117.5 47t45.5 115 q0 58 -65 121t-117 63q-15 0 -24 -5t-12.5 -17t-4 -21t-0.5 -28v-9v-186z" />
<glyph unicode="%" horiz-adv-x="1626" d="M94 1288q0 71 20.5 141t58 129.5t99.5 96.5t138 37t138.5 -37t99.5 -96.5t57 -129.5t20 -141q0 -72 -20 -142t-57.5 -129.5t-99.5 -96.5t-138 -37t-138.5 37t-100 96.5t-57.5 129.5t-20 142zM289 1309q0 -74 32.5 -129.5t88.5 -55.5q29 0 53 23t38 59t21.5 75.5t7.5 76.5 q0 74 -32.5 130t-87.5 56q-38 0 -67 -40t-41.5 -92t-12.5 -103zM408 2q0 36 65 203l490 1276q24 64 40.5 103t35.5 70t33 45t38 23.5t44.5 11t59.5 1.5q30 0 57 -13.5t27 -42.5q0 -11 -6 -27.5t-24 -54.5t-25 -55l-627 -1421q-1 -3 -10 -23.5t-14 -29t-16 -27.5t-22 -28.5 t-26.5 -21.5t-35 -17t-41.5 -5q-17 0 -30 8.5t-13 24.5zM901 375q0 71 20.5 141t58 129t99.5 96t138 37q62 0 114.5 -24.5t88.5 -64.5t62 -92.5t38 -109t12 -112.5q0 -57 -12 -113.5t-38 -109.5t-62.5 -93.5t-89 -65t-113.5 -24.5q-76 0 -138.5 37t-100 96.5t-57.5 130 t-20 142.5zM1096 395q0 -74 32.5 -129t88.5 -55q38 0 66.5 39.5t41 91t12.5 102.5q0 74 -32.5 130.5t-87.5 56.5q-38 0 -67 -40.5t-41.5 -92.5t-12.5 -103z" />
<glyph unicode="&#x26;" horiz-adv-x="1961" d="M102 367q0 78 19 147.5t49.5 119.5t68 93.5t74.5 75.5t67.5 58t49.5 48.5t19 40.5q0 20 -21 59.5t-46 81.5t-46 106.5t-21 127.5q0 45 10.5 92.5t44 107t87 104t149 75.5t219.5 31q89 0 162 -25t118 -63t76 -86t43.5 -91t12.5 -81q0 -71 -23.5 -135t-58.5 -107.5 t-76.5 -84.5t-76.5 -70t-58.5 -60t-23.5 -58q0 -44 54 -124.5t97 -87.5q15 0 39.5 23t53 57.5t75.5 75t100.5 75t134 57.5t171.5 23q90 0 152.5 -52.5t62.5 -138.5q0 -39 -26.5 -85t-59.5 -46q-17 0 -41 15t-54 30t-63 15q-57 0 -122.5 -39.5t-113 -90.5t-79 -98t-31.5 -65 q0 -31 58.5 -57.5t105.5 -26.5q48 0 92 14t69.5 31t46 31t25.5 14q12 0 12 -35q0 -112 -40 -206.5t-120 -154t-186 -59.5q-52 0 -97.5 15t-76.5 37t-57 44t-50.5 37t-45.5 15q-25 0 -54.5 -15t-64 -37t-78 -44t-112 -37t-150.5 -15q-212 0 -328.5 109.5t-116.5 288.5z M434 438q0 -73 59 -121.5t128 -48.5q61 0 131.5 34.5t70.5 74.5q0 17 -43.5 89t-98 139t-77.5 67q-54 0 -112 -80t-58 -154zM647 1354q0 -31 17 -78t48.5 -86t63.5 -39q41 0 101.5 75.5t60.5 133.5q0 65 -37 99t-104 34q-68 0 -109 -36.5t-41 -102.5z" />
<glyph unicode="'" horiz-adv-x="454" d="M127 1614q0 121 100 121q101 0 101 -121q0 -12 -41 -463q-3 -26 -20 -45t-40 -19q-22 0 -39 19t-20 45q-41 451 -41 463z" />
<glyph unicode="(" horiz-adv-x="944" d="M154 901q0 411 114.5 622.5t341.5 211.5q48 0 86 -36.5t57 -85.5t28.5 -87t9.5 -53t-58 -15q-65 0 -116 -17t-86.5 -44.5t-60.5 -74t-39.5 -94.5t-22.5 -117.5t-10.5 -131.5t-2.5 -148q0 -148 12.5 -281t30.5 -219.5t35.5 -150t30 -98.5t12.5 -39q0 -22 -56 -48t-93 -26 t-87 140.5t-88 364.5t-38 427z" />
<glyph unicode=")" horiz-adv-x="944" d="M154 231q0 15 57 15q51 0 93 10t74.5 27.5t57.5 46t43 60t31 75.5t20.5 86t11.5 98.5t5.5 107t1.5 115.5q0 148 -12.5 281.5t-30 220t-35.5 150t-30.5 98.5t-12.5 39q0 22 56.5 48t93.5 26t87 -140.5t88 -364.5t38 -427q0 -411 -114.5 -622.5t-342.5 -211.5q-48 0 -86 36 t-56.5 85.5t-28 87.5t-9.5 53z" />
<glyph unicode="*" horiz-adv-x="1325" d="M262 1356q0 30 29.5 117.5t52.5 87.5q16 0 215 -86l-20 215q0 14 1.5 24t6.5 16t8 10t12 5.5t12.5 2t15.5 0t15 -0.5h105q5 0 16 0.5t15.5 0t12.5 -1.5t11.5 -3.5t8 -7t6 -12t1.5 -17.5l-20 -231q53 33 122.5 59.5t90.5 26.5q18 0 51 -88.5t33 -110.5q0 -25 -70 -41 q-21 -5 -188 -31q32 -34 79 -82q56 -58 70.5 -74.5t14.5 -25.5q0 -16 -84.5 -71.5t-100.5 -55.5q-6 0 -11 2t-10.5 9t-10.5 15t-14 24.5t-17.5 33.5t-24.5 46l-32 58q-21 -36 -41.5 -74t-29.5 -55.5t-19.5 -33t-17.5 -20.5t-17 -5q-21 0 -102 53t-81 72q0 9 13 25t51 55 q56 58 100 104q-14 2 -41 6q-126 18 -171.5 29t-45.5 31z" />
<glyph unicode="+" d="M102 578v192h398v475h190v-475h393v-192h-393v-502h-190v502h-398z" />
<glyph unicode="," horiz-adv-x="593" d="M51 219q0 12 41 39l170 137q2 2 16.5 12.5t20.5 14t18 8t23 4.5q83 0 143 -73.5t60 -157.5q0 -67 -27 -125t-68.5 -95t-92.5 -64t-97 -38.5t-84 -11.5q-16 0 -16 10q0 1 13 23t26.5 59t13.5 74q0 48 -16.5 82.5t-40 51t-47 26t-40 14.5t-16.5 10z" />
<glyph unicode="-" horiz-adv-x="512" d="M0 551q0 11 7 44t20 75t36.5 74t51.5 32h303q2 0 21.5 0.5t27 -0.5t21 -4t19 -11.5t5.5 -21.5q0 -11 -7 -44t-20 -75t-36.5 -74t-51.5 -32h-303q-2 0 -21.5 -0.5t-27 0.5t-21 4t-19 11.5t-5.5 21.5z" />
<glyph unicode="." horiz-adv-x="593" d="M68 197q0 92 66.5 157.5t158.5 65.5q97 0 165 -65t68 -160t-67.5 -160.5t-163.5 -65.5q-95 0 -161 67t-66 161z" />
<glyph unicode="/" horiz-adv-x="1079" d="M94 2q0 34 66 203l489 1276q24 64 40.5 103t36 70t33 45t38 23.5t45 11t59.5 1.5q30 0 57 -13.5t27 -42.5q0 -11 -6 -27.5t-24 -54.5t-25 -55l-627 -1421q-1 -1 -10.5 -23t-14 -29.5t-16 -27t-22 -28.5t-26.5 -21.5t-35.5 -17.5t-41.5 -5q-17 0 -30 8.5t-13 24.5z" />
<glyph unicode="0" d="M68 829q0 172 28.5 315t78 243t116.5 170t143.5 102.5t159.5 32.5t159.5 -32.5t143.5 -102.5t116.5 -170t78 -243t28.5 -315t-28.5 -315t-77.5 -242.5t-116.5 -168.5t-143.5 -101.5t-160 -32.5t-160 32.5t-143.5 101.5t-116.5 168.5t-77.5 242.5t-28.5 315zM367 862 q0 -144 20 -250.5t54 -165t72.5 -85.5t80.5 -27t80.5 27t72.5 85.5t54 165t20 250.5q0 140 -14.5 243.5t-36 161.5t-53 92.5t-60 45t-63.5 10.5t-63.5 -10.5t-60 -45t-53 -92.5t-36 -161.5t-14.5 -243.5z" />
<glyph unicode="1" d="M287 1497q0 19 29.5 51t77.5 64.5t121 56t149 23.5q41 0 82.5 -22t41.5 -60q0 -8 -14 -96t-28.5 -232t-14.5 -289q0 -130 34 -454.5t34 -513.5q0 -24 -106 -40t-201 -16q-15 0 -21 2.5t-15.5 25.5t-13.5 73t-7 147.5t-3 245.5q0 164 11.5 427t11.5 372q0 49 -17.5 84.5 t-42 54.5t-49 33t-42 29t-17.5 34z" />
<glyph unicode="2" d="M94 80q0 114 23.5 215t63.5 177t92 143t109.5 120t115 100t109.5 90.5t92 85t63.5 89.5t23.5 98q0 94 -44 155.5t-132 61.5q-59 0 -112 -33t-88 -80.5t-61.5 -94.5t-45.5 -80t-29 -33q-14 0 -79.5 114t-65.5 133q0 41 34.5 99t93 115t151.5 97t196 40q215 0 348 -117 t133 -324q0 -103 -36 -196t-93 -162t-126 -130.5t-138.5 -111.5t-126.5 -95t-93 -91t-36 -90q0 -25 12.5 -36t28.5 -11q8 0 44 12t75 12q62 0 145 -20.5t103 -20.5q59 0 101 49t42 123q0 13 -3 27.5t-6.5 25.5t-5.5 20t-1 14t8 5q5 0 18 -12.5t29.5 -37.5t31.5 -55.5 t25.5 -71.5t10.5 -81q0 -74 -29 -140.5t-73 -111t-96.5 -70.5t-100.5 -26q-51 0 -180.5 28t-174.5 28q-57 0 -152 -28t-114 -28q-80 0 -80 111z" />
<glyph unicode="3" d="M94 201q0 13 99.5 145.5t113.5 132.5q11 0 28 -15t38.5 -36.5t49 -42.5t69.5 -36t90 -15q85 0 149 73.5t64 161.5q0 91 -54.5 153t-144 90t-207.5 28q-26 0 -49 10.5t-23 32.5q0 27 61 100.5t134 147.5t134 143.5t61 89.5q0 12 -8.5 20t-25.5 11t-28.5 3.5t-31.5 0.5h-5 q-71 0 -154.5 -18.5t-143 -37t-72.5 -18.5q-21 0 -47.5 122.5t-26.5 168.5q0 13 5.5 22.5t11.5 14t19.5 6.5t21 2.5t24 0t20.5 -0.5h676q7 0 26.5 0.5t29 0.5t24.5 -3t22 -9t13 -18t6 -30q0 -94 -32 -183t-77.5 -151.5t-90.5 -112t-77 -82t-32 -43.5q0 -10 19 -22t48.5 -27 t66 -35.5t73 -55t66 -78t48.5 -111t19 -148.5q0 -160 -64 -292t-188 -212t-285 -80q-84 0 -161.5 21.5t-130.5 52.5t-93 65t-59 59t-19 34z" />
<glyph unicode="4" d="M43 602q0 108 50.5 255t127.5 283.5t160.5 256t156.5 192t109 72.5h225q72 0 72 -39q0 -8 -43.5 -53.5t-108 -111t-140.5 -155.5t-140.5 -180.5t-108 -192t-43.5 -184.5q0 -18 9.5 -24t36.5 -6q20 0 53 7t71.5 20.5t69 39.5t37.5 58q29 126 75 227.5t93 158t87.5 86 t68.5 29.5q9 0 14.5 -6t5.5 -14q0 -3 -16.5 -55t-33 -139.5t-16.5 -174.5q0 -42 2.5 -69t10.5 -47.5t17.5 -30.5t30.5 -16t41.5 -7.5t57.5 -1.5h47q20 -4 26 -43q5 -39 5 -188q0 -45 -5 -62.5t-22 -17.5q-18 0 -71.5 10t-79.5 10q-24 0 -38.5 -3.5t-28 -14.5t-20 -33.5 t-10.5 -59.5t-4 -93q0 -43 4.5 -124t4.5 -141q0 -23 -89 -37t-169 -14q-37 0 -50 16.5t-12 61.5q0 59 17.5 181t17.5 194q0 30 -20 40.5t-54 10.5q-83 0 -224 -33.5t-155 -33.5q-27 0 -46.5 12t-30 29.5t-16.5 45.5t-7.5 52t-1.5 57z" />
<glyph unicode="5" d="M96 166q0 19 68.5 168t91.5 149q15 0 31.5 -15.5t36.5 -37.5t46.5 -43.5t73.5 -37t107 -15.5q108 0 175 63t67 168q0 116 -69.5 191t-182.5 75q-49 0 -95.5 -15.5t-75 -34.5t-57 -34.5t-45.5 -15.5q-49 0 -85 33t-36 115q0 161 17.5 339t52 310.5t74.5 132.5h690 q41 0 41 -25q0 -46 -17.5 -157t-41.5 -111q-7 0 -109.5 15.5t-218.5 15.5q-83 0 -133 -19q-28 -11 -59 -97.5t-31 -164.5q0 -80 43 -80q3 0 24 9t66 17.5t106 8.5q105 0 190.5 -42.5t139 -114t82.5 -163t29 -192.5q0 -278 -160 -435t-418 -157q-95 0 -179 24t-133.5 58 t-77.5 65t-28 50z" />
<glyph unicode="6" d="M68 752q0 438 195.5 689t522.5 251q22 0 58 -4.5t81 -13.5t77 -28t32 -44q0 -20 -48 -138t-68 -118q-14 0 -38.5 17t-63 34.5t-87.5 17.5q-84 0 -167.5 -63t-132 -148.5t-48.5 -156.5q0 -15 10.5 -30.5t24.5 -15.5q11 0 54 22.5t108.5 45.5t132.5 23q96 0 175.5 -47.5 t129.5 -124t77 -166.5t27 -181q0 -124 -33.5 -227.5t-87 -171.5t-123 -115.5t-139 -68.5t-137.5 -21q-113 0 -208 47t-168.5 140t-114.5 245.5t-41 350.5zM367 582q0 -102 68 -186.5t167 -84.5q111 0 176.5 78t65.5 189q0 105 -58 178t-163 73q-107 0 -181.5 -71.5 t-74.5 -175.5z" />
<glyph unicode="7" d="M123 1624q0 9 3 16t10 11t13 6.5t16 3t16.5 1t16.5 0t13 -0.5h801q39 0 46 -20.5t7 -124.5v-31q0 -12 -0.5 -21.5t-0.5 -17t-1.5 -15t-2 -12.5t-4 -12.5t-4.5 -10.5t-6.5 -12.5t-7.5 -13t-10 -16.5t-12 -19q-160 -259 -232.5 -391.5t-110.5 -250t-38 -236.5 q0 -106 49 -176t152 -70q19 0 38 7t25 7q12 0 12 -16q0 -28 -20.5 -66.5t-57 -78.5t-99.5 -67.5t-136 -27.5q-98 0 -174 54t-115 138t-39 179q0 103 27.5 209.5t71 195.5t96.5 173.5t106 153t96.5 124.5t71 98.5t27.5 63.5q0 10 -4 17.5t-13 12t-17 7t-21.5 3.5t-21.5 1.5 t-22.5 0t-17.5 -0.5h-172q-68 0 -118 -16.5t-75.5 -39.5t-42.5 -46t-29.5 -39.5t-25.5 -16.5q-7 0 -12 3.5t-8 8t-5 13t-2.5 13.5t-1.5 13.5t-1 10.5z" />
<glyph unicode="8" d="M51 383q0 84 24.5 155.5t60 117t71 81.5t60 65t24.5 50q0 24 -17.5 51.5t-42 57.5t-49 67t-42 95t-17.5 126q0 141 65 243t172.5 151t243.5 49q108 0 196 -35t142 -92.5t82.5 -126t28.5 -140.5q0 -62 -20 -116.5t-48 -91.5t-56.5 -66.5t-48.5 -54.5t-20 -43 q0 -22 28.5 -50.5t69.5 -63t81.5 -78.5t69 -113.5t28.5 -151.5q0 -123 -42 -219.5t-117 -157t-174.5 -92t-219.5 -31.5q-82 0 -159 16t-145 49.5t-119 81.5t-80.5 116.5t-29.5 150.5zM383 475q0 -74 53 -119t146 -45q94 0 158.5 44.5t64.5 117.5q0 92 -71.5 169t-143.5 77 q-85 0 -146 -78t-61 -166zM399 1272q0 -49 21.5 -96t52.5 -78.5t63 -50.5t54 -19q57 0 121.5 76t64.5 164q0 78 -57 130t-137 52q-73 0 -128 -52.5t-55 -125.5z" />
<glyph unicode="9" d="M68 1087q0 124 33.5 227.5t87 172t123 116t139 68.5t137.5 21q113 0 208 -47t168.5 -140t114.5 -245.5t41 -350.5q0 -438 -195.5 -689t-523.5 -251q-21 0 -57.5 4.5t-81.5 13.5t-76.5 28t-31.5 44q0 22 48 172t68 150q14 0 38.5 -17.5t63 -35t87.5 -17.5q64 0 129 38 t112 93.5t77 120t30 117.5q0 15 -10.5 30t-24.5 15q-11 0 -54 -22.5t-108.5 -45t-132.5 -22.5q-97 0 -176 37.5t-129 100.5t-77 143.5t-27 170.5zM344 1149q0 -105 58 -178.5t163 -73.5q107 0 181.5 72t74.5 176q0 102 -68 186t-167 84q-111 0 -176.5 -77.5t-65.5 -188.5z " />
<glyph unicode=":" horiz-adv-x="593" d="M68 197q0 92 66.5 157.5t158.5 65.5q97 0 165 -65t68 -160t-67.5 -160.5t-163.5 -65.5q-95 0 -161 67t-66 161zM68 1118q0 92 66.5 157.5t158.5 65.5q97 0 165 -65t68 -160t-67.5 -160t-163.5 -65q-95 0 -161 66.5t-66 160.5z" />
<glyph unicode=";" horiz-adv-x="593" d="M51 219q0 12 41 39l170 137q2 2 16.5 12.5t20.5 14t18 8t23 4.5q83 0 143 -73.5t60 -157.5q0 -67 -27 -125t-68.5 -95t-92.5 -64t-97 -38.5t-84 -11.5q-16 0 -16 10q0 1 13 23t26.5 59t13.5 74q0 48 -16.5 82.5t-40 51t-47 26t-40 14.5t-16.5 10zM68 1118 q0 92 66.5 157.5t158.5 65.5q97 0 165 -65t68 -160t-67.5 -160t-163.5 -65q-95 0 -161 66.5t-66 160.5z" />
<glyph unicode="&#x3c;" d="M109 575v201l970 527v-218l-796 -405v-4l798 -408v-221z" />
<glyph unicode="=" d="M104 330v192h979v-192h-979zM104 827v191h979v-191h-979z" />
<glyph unicode="&#x3e;" d="M109 1085v218l972 -527v-201l-970 -528v221l796 406v6z" />
<glyph unicode="?" horiz-adv-x="983" d="M102 1528q0 25 28 60t73 68t110.5 56t132.5 23q126 0 227 -69t154.5 -178.5t53.5 -234.5q0 -75 -22.5 -142t-58 -115t-79 -90t-87 -76t-79 -64.5t-58 -62.5t-22.5 -64q0 -15 -0.5 -26t-3 -20t-4 -14.5t-8 -9t-10 -5.5t-14.5 -3t-17.5 -1t-23.5 0.5t-27 0.5 q-9 0 -26.5 -0.5t-23 0t-17 2t-14.5 5.5t-8 11t-6.5 18.5t-1.5 27.5v147q0 61 17 110t44.5 81.5t61 60.5t67 54.5t61 55t44.5 70t17 92.5q0 70 -37.5 123.5t-104.5 53.5q-33 0 -60 -13t-44 -31.5t-30.5 -37.5t-24 -32t-19.5 -13q-17 0 -88.5 81.5t-71.5 100.5zM150 197 q0 92 66.5 157.5t158.5 65.5q97 0 165 -65t68 -160t-67.5 -160.5t-163.5 -65.5q-95 0 -161 67t-66 161z" />
<glyph unicode="@" horiz-adv-x="1787" d="M94 483q0 150 38.5 291t114.5 261t181 209.5t247 140.5t304 51q176 0 316.5 -60t229 -163t135 -234.5t46.5 -280.5q0 -140 -35 -254t-96 -188t-140.5 -114t-170.5 -40q-94 0 -147.5 60.5t-61.5 167.5h-6q-47 -98 -131 -163t-185 -65q-113 0 -184.5 92.5t-71.5 241.5 q0 255 153 424.5t390 169.5q81 0 160 -18.5t129 -48.5l-74 -426q-46 -255 70 -258q36 0 73 23t73 69.5t58.5 131.5t22.5 195q0 169 -65.5 301t-199 210.5t-317.5 78.5q-92 0 -187 -34.5t-182 -104t-155.5 -163t-109 -221t-40.5 -269.5q0 -153 46.5 -281t126.5 -212.5 t186 -131.5t225 -47q196 0 350 96l52 -141q-103 -59 -204.5 -83t-228.5 -24q-217 0 -384.5 103.5t-259 287.5t-91.5 420zM737 510q0 -68 25.5 -110t79.5 -42q56 0 104 74.5t70 177.5l45 228q-32 16 -88 16q-90 0 -163 -100t-73 -244z" />
<glyph unicode="A" horiz-adv-x="1429" d="M68 451q0 158 26 306.5t70.5 264.5t101 220t118 180t122 137.5t113.5 99t91 57t56 19.5q13 0 38.5 -11t64 -36.5t82.5 -63t91.5 -95.5t93 -127.5t87 -165.5t72.5 -204t49 -247.5t18 -292.5q0 -80 -3 -146.5t-6.5 -115t-11.5 -86t-14 -62t-17.5 -41.5t-18 -25.5 t-20.5 -12.5q-14 -5 -20 -5h-5q-6 0 -16 1q-14 1 -18 1h-229q-2 0 -10 -0.5t-13.5 0t-14.5 1t-15 2t-12.5 4t-9.5 7.5t-3 11q0 17 24.5 69t54.5 111.5t54.5 147t24.5 167.5q0 64 -51.5 95.5t-128.5 31.5q-53 0 -101 -3.5t-106.5 -13t-105 -29t-86.5 -47.5t-62.5 -72.5 t-22.5 -100.5q0 -55 21 -120.5t45.5 -112.5t45.5 -86t21 -48q0 -14 -38 -14h-293q-73 0 -103 117t-30 334zM444 909q0 -39 39 -39q1 0 154.5 27t261.5 27q58 0 81.5 13t23.5 54q0 61 -41 155.5t-96.5 166t-92.5 71.5q-53 0 -132.5 -87t-138.5 -201t-59 -187z" />
<glyph unicode="B" horiz-adv-x="1355" d="M102 729q0 958 127 975h15h530q418 0 418 -299q0 -63 -24 -123.5t-58.5 -104.5t-69 -81t-58.5 -65.5t-24 -45.5q0 -18 34 -53.5t82.5 -85t97 -111.5t82.5 -152t34 -188q0 -79 -25 -147t-77 -125t-143 -90t-212 -33h-616h-7h-6q-14 0 -24 4q-10 5 -27.5 41.5t-26 109 t-15.5 218t-7 356.5zM401 1055q0 -59 13 -76q14 -18 41 -18q18 0 51.5 13.5t58.5 31.5l150 106q52 38 98.5 103.5t46.5 123.5q0 67 -47.5 95t-116.5 28q-106 0 -168 -35t-94.5 -124.5t-32.5 -247.5zM414 612q0 -115 13.5 -185.5t47 -106.5t74.5 -47t110 -11q58 0 109 12 t94 36.5t68.5 67.5t25.5 101q0 67 -47.5 152.5t-103.5 141.5t-84 56q-21 0 -86 -34l-133 -72q-3 -2 -17 -9.5t-16.5 -9.5t-13.5 -8.5t-13 -9.5t-9 -10t-8.5 -12.5t-5 -13.5t-4.5 -17.5t-1 -20.5z" />
<glyph unicode="C" horiz-adv-x="1320" d="M51 805q0 135 29.5 267t91 252t148.5 211.5t210.5 145.5t268.5 54q72 0 146.5 -16t145.5 -49t115.5 -93.5t44.5 -138.5q0 -88 -56.5 -137.5t-154.5 -49.5q-19 0 -28.5 14.5t-11 35.5t-10.5 46.5t-24 46.5t-55.5 35.5t-101.5 14.5q-86 0 -158.5 -34t-121 -90t-82.5 -129.5 t-49 -151t-15 -156.5q0 -112 29 -206.5t75.5 -156.5t106 -105t118.5 -62t115 -19q68 0 125 16.5t94 43t65.5 58t44.5 63.5t26.5 58.5t16.5 43t9 16.5q19 0 32 -75.5t13 -108.5q0 -147 -70.5 -257.5t-187.5 -166.5t-262 -56q-135 0 -249 47.5t-192.5 127.5t-133.5 188 t-81 227.5t-26 245.5z" />
<glyph unicode="D" horiz-adv-x="1372" d="M102 729q0 958 127 975h15h348q58 0 122.5 -17.5t135.5 -57.5t138 -97.5t128 -144t106 -191.5t72 -245.5t27 -299.5q0 -109 -20 -204t-64 -178t-110 -142t-163.5 -93t-218.5 -34h-530h-7h-6q-14 0 -24 4q-10 5 -27.5 41.5t-26 109t-15.5 218t-7 356.5zM422 776 q0 -133 15.5 -230t38.5 -150.5t58.5 -85t66.5 -40t71 -8.5q36 0 75.5 13t83.5 47.5t78.5 86t57 136.5t22.5 190q0 145 -28.5 269t-72.5 206t-98 141t-104 85t-92 26q-50 0 -86.5 -42t-53.5 -108t-24.5 -126t-7.5 -117v-293z" />
<glyph unicode="E" horiz-adv-x="1222" d="M102 483q0 227 65.5 724t106.5 497h807h13h18t18 -1t19 -3t15 -6t12 -10.5t4 -14.5q0 -17 -70 -160t-88 -143q-10 0 -33.5 15t-52 33t-85.5 33t-126 15q-55 0 -105.5 -16.5t-92.5 -49t-67.5 -88t-25.5 -126.5q0 -117 66 -117q25 0 85.5 24t141.5 48t156 24q29 0 60.5 -10 t31.5 -33q0 -10 -61.5 -173t-77.5 -163q-2 0 -67 20.5t-112 20.5q-42 0 -84.5 -15.5t-82 -46.5t-64.5 -87.5t-25 -128.5q0 -128 66.5 -205.5t191.5 -77.5q69 0 137 21t110 46.5t78.5 46.5t51.5 21q20 0 94 -172t74 -194q0 -11 -4.5 -18t-16 -9.5t-17.5 -3.5q-4 -1 -12 -1 q-4 1 -9 1h-17h-940h-5q-55 0 -67 40q-12 42 -12 205q0 141 -2 238z" />
<glyph unicode="F" horiz-adv-x="1122" d="M102 729q0 958 127 975h15h837h13h18t18 -1t19 -3t15 -6t12 -10.5t4 -14.5q0 -17 -70 -160t-88 -143q-10 0 -33.5 15t-52 33t-85.5 33t-126 15q-55 0 -105.5 -16.5t-92.5 -49t-67.5 -88t-25.5 -126.5q0 -97 12 -129.5t54 -32.5q43 0 83.5 14.5t72 32.5t100 32.5 t159.5 14.5q70 0 70 -35q0 -21 -46.5 -175t-68.5 -154q-2 0 -55 14t-100 14q-133 0 -202 -72t-69 -200q0 -78 20.5 -195t40.5 -201.5t19 -91.5q1 -7 -4 -11.5t-14 -6t-16.5 -1.5t-19 0.5t-13.5 0.5h-242h-7q-20 -1 -30.5 4t-27.5 41.5t-25.5 109t-15.5 218t-7 356.5z" />
<glyph unicode="G" horiz-adv-x="1349" d="M51 754q0 146 31.5 287.5t95 266.5t152.5 220.5t213 151t266 55.5q72 0 146.5 -16t145.5 -49t116 -93.5t45 -138.5q0 -88 -56.5 -137.5t-154.5 -49.5q-19 0 -28.5 14.5t-11 35.5t-10.5 46.5t-24.5 46.5t-56 35.5t-101.5 14.5q-93 0 -169 -40.5t-124.5 -106t-81.5 -152.5 t-47 -174.5t-14 -177.5q0 -72 8.5 -134t31.5 -123.5t59 -104.5t95.5 -70t137.5 -27q50 0 95 11t84 33t62 61.5t23 90.5q0 46 -16.5 82.5t-40.5 57t-48 36.5t-40.5 30t-16.5 28q0 18 176.5 86t200.5 68q27 0 57.5 -242t30.5 -320q0 -97 -45 -173t-120.5 -121.5t-166 -69 t-188.5 -23.5q-174 0 -310.5 58t-223.5 163.5t-132 248t-45 315.5z" />
<glyph unicode="H" horiz-adv-x="1456" d="M102 678q0 71 8.5 226t24 340.5t44.5 322.5t63 137h278q1 0 10.5 0.5t16.5 0.5t16 -1.5t14 -6t5 -11.5q0 -6 -35 -97.5t-70 -219.5t-35 -224q0 -40 14 -70.5t36 -30.5q19 0 41.5 9.5t47.5 21.5t91.5 21.5t161.5 9.5q18 0 47.5 -1t44.5 -1.5t35 2t29.5 9t16.5 20t7 34.5 q0 86 -45 207.5t-90 210.5t-45 96q0 6 3.5 10t9 6t12 3.5t14.5 2t14 0.5t12.5 -0.5t7.5 -0.5h269q38 0 80 -164.5t70 -407t28 -454.5q0 -79 -1.5 -154.5t-6.5 -214.5t-20 -224t-38 -85h-295q-75 0 -75 31q0 16 6 28q131 342 131 584q0 103 -44.5 144.5t-148.5 41.5 q-64 0 -124 -11.5t-116 -38t-97 -64.5t-66 -95t-25 -126q0 -244 84 -443q8 -16 8 -31q0 -8 -5 -13t-14 -6.5t-16 -1.5t-17.5 0.5t-12.5 0.5h-301q-20 0 -33 87t-17.5 225t-6 216.5t-1.5 149.5z" />
<glyph unicode="I" horiz-adv-x="669" d="M127 729q0 957 125 975h16h221h12.5h15t14 -0.5t14.5 -3t11 -6t8.5 -9.5t2.5 -14q0 -4 -11 -47.5t-27 -116t-32 -161.5t-27 -205.5t-11 -227.5q0 -147 10.5 -289.5t25.5 -243.5t30 -180t25.5 -125t10.5 -52q0 -23 -31 -23h-41h-249h-7h-6q-15 0 -25 4q-10 5 -27 41.5 t-25.5 109t-15.5 218t-7 356.5z" />
<glyph unicode="J" horiz-adv-x="819" d="M0 135q0 74 48 198t81 124q11 0 26 -23t28.5 -50t34.5 -50t42 -23q6 0 18 -1t18.5 -1t17.5 3t16.5 10.5t14.5 23t14 38.5t10.5 58.5t8.5 81t5 108.5t2 140q0 157 -10.5 305.5t-26 250.5t-31 179.5t-26 121.5t-10.5 48q0 10 3.5 16t11.5 8.5t13 2.5q3 1 7 1t10 -1h16h268 q22 0 28 -4q52 -32 69 -433q10 -236 10 -610q0 -128 -15 -233.5t-40 -174t-57.5 -123.5t-68 -81t-71 -47.5t-66 -23t-53.5 -6.5q-11 -2 -19 -2q-10 0 -16 3h-3.5h-2.5q-57 0 -114.5 18.5t-98.5 44.5t-66.5 54.5t-25.5 48.5z" />
<glyph unicode="K" horiz-adv-x="1335" d="M102 729q0 958 127 975h15h207h12.5h13.5t12 -0.5t12.5 -3t9.5 -6t7 -9.5t2 -14l-4 -11q-3 -11 -8.5 -30.5t-13 -46.5t-16 -62t-17 -73.5t-16 -83t-13 -90t-9 -96t-3.5 -97.5v-10.5v-15.5v-18t1 -19.5t2.5 -19t4 -18.5t6.5 -14.5t9 -10t12 -3.5q18 0 75.5 62t127 156 t139.5 226.5t104 252.5q12 39 20 46q11 8 40 9h196h14h11h8q6 0 15 -2t13.5 -8t4.5 -15q0 -85 -36 -181t-87.5 -174t-102.5 -144.5t-87 -111t-36 -54.5q0 -9 29 -46.5t73 -91.5t95 -140t95 -184t73 -232.5t29 -276.5q0 -16 -4 -25.5t-15 -13.5t-17 -5q-3 0 -10 -0.5t-17 0.5 q-20 1 -25 1h-250q-9 0 -16.5 3t-12 6.5t-8 10.5t-5 12t-2.5 14t-1 13v13v10q-3 131 -24 248.5t-49.5 194t-60.5 133.5t-56 82.5t-36 25.5q-26 0 -79 -41.5t-99.5 -107t-46.5 -119.5q0 -36 17.5 -148t35 -211t17.5 -104q0 -35 -39 -35h-250h-7q-20 -1 -30.5 4t-27.5 41.5 t-25.5 109t-15.5 218t-7 356.5z" />
<glyph unicode="L" horiz-adv-x="1128" d="M102 483q0 227 65.5 724t106.5 497h326q39 0 39 -41q0 -10 -24.5 -70.5t-59.5 -158.5t-70 -219t-59.5 -283t-24.5 -320q0 -101 20.5 -173t56 -109t74.5 -52.5t85 -15.5q52 0 103 18t88.5 43.5t69 51t56 43.5t37.5 18q25 0 72 -189.5t47 -215.5q0 -12 -6 -19t-18 -10 q-14 -2 -22 -3q-4 0 -10 -0.5t-14 0.5q-16 1 -18 1h-834h-5q-55 0 -67 40q-12 42 -12 205q0 141 -2 238z" />
<glyph unicode="M" horiz-adv-x="1775" d="M102 729q0 958 127 975h15h188q37 0 53.5 -2t42 -15t51 -41t62.5 -79q53 -72 95 -143.5t63.5 -117.5t38 -82.5t27.5 -53.5t22 -17q8 0 17.5 17t26 53.5t39.5 83t70 117t107 143.5q43 52 71 80t56 40.5t44 14.5t54 2h160q25 0 38 -11q103 -91 103 -964q0 -211 -7 -356.5 t-15 -218t-25 -108.5q-18 -37 -28 -42q-9 -4 -24 -4h-6h-7h-263h-11.5h-14t-13.5 0.5t-13.5 2.5t-10 5.5t-8 9t-2.5 13.5q0 5 12 54.5t29 133.5t34 191t29 255t12 298v11v17q0 266 -61 266q-56 0 -158 -251q-46 -112 -77 -223t-42.5 -175.5t-25 -118t-34.5 -75t-60 -21.5 q-50 0 -77.5 21.5t-46 75t-32.5 117t-48.5 176t-82.5 223.5q-3 6 -17 42t-27.5 66.5t-32 66t-38 56t-37.5 20.5q-65 0 -65 -294q0 -150 13.5 -298t32.5 -255t37.5 -191t32 -133.5t13.5 -54.5q0 -8 -2.5 -13.5t-8 -9t-10.5 -5.5t-13.5 -2.5t-13.5 -0.5h-14.5h-11.5h-219h-7 h-6q-14 0 -24 4q-10 5 -27.5 41.5t-26 109t-15.5 218t-7 356.5z" />
<glyph unicode="N" horiz-adv-x="1452" d="M102 729q0 958 127 975h15h162q25 0 57 -22t83 -81.5t116 -155.5t156.5 -251.5t203.5 -362.5q1 -1 4 -7.5t5.5 -10t7 -8.5t9 -7.5t9.5 -2.5q4 0 7 4.5t5 13.5t3 18t1 22v22v21v15q0 169 -26 349.5t-52 295.5t-26 125q0 6 2.5 10.5t7.5 7t10.5 4t14.5 1.5h15h7h10h17h155 q28 0 40 -9q102 -81 102 -966q0 -211 -7 -356.5t-15.5 -218t-25.5 -109t-27.5 -41.5t-30.5 -4h-3.5h-3.5h-215q-27 0 -42 7t-24.5 22t-17.5 45.5t-16 69.5t-25.5 101.5t-41 134t-67.5 176t-100 218.5q-16 33 -46 87.5t-74 131t-86.5 129t-65.5 52.5q-14 0 -23 -22t-12 -61 t-3 -69q0 -10 -1 -22q0 -24 1 -50q1 -40 1 -41q0 -198 13 -367t29 -258t29 -162.5t13 -103.5q0 -8 -4 -12.5t-11 -5.5q-8 -2 -14 -2h-4q-6 0 -12 1q-10 1 -12 1h-191h-7q-20 -1 -30.5 4t-27.5 41.5t-25.5 109t-15.5 218t-7 356.5z" />
<glyph unicode="O" horiz-adv-x="1458" d="M51 621q0 196 53 395.5t141.5 358.5t216.5 259.5t267 100.5t267 -100.5t216.5 -259.5t141.5 -358.5t53 -395.5q0 -137 -32.5 -252t-99.5 -206t-180.5 -142.5t-263.5 -51.5h-204q-150 0 -263.5 51.5t-180.5 142.5t-99.5 206t-32.5 252zM383 666q0 -174 88.5 -253 t257.5 -79t257.5 79t88.5 253q0 162 -34.5 305t-87 234.5t-112 144.5t-112.5 53t-112.5 -53t-112 -144.5t-87 -234.5t-34.5 -305z" />
<glyph unicode="P" horiz-adv-x="1277" d="M102 729q0 958 127 975h15h628q96 0 171 -27t118 -66.5t70.5 -91t37 -95.5t9.5 -85q0 -88 -27.5 -166t-74 -137.5t-106.5 -112.5t-126.5 -95t-132.5 -80t-126 -73t-106.5 -69t-74 -73t-27.5 -80q0 -76 18 -181t36 -179t18 -75q0 -7 -4.5 -11.5t-13.5 -6t-16 -1.5t-17 0.5 t-11 0.5h-272h-7q-20 -1 -30.5 4t-27.5 41.5t-25.5 109t-15.5 218t-7 356.5zM434 969q0 -22 2 -36t8 -29t19.5 -22.5t34.5 -7.5q39 0 114.5 42.5t149.5 102t129 131.5t55 124q0 67 -37 111t-90 60.5t-119 16.5q-37 0 -61.5 -2.5t-55.5 -13t-50.5 -30t-40.5 -55.5t-32.5 -88 t-18.5 -128.5t-7 -175.5z" />
<glyph unicode="Q" horiz-adv-x="1480" d="M102 823q0 91 9 179t30 180t54 171.5t84 150.5t115 121.5t152.5 80t192.5 29.5t192.5 -29.5t152.5 -80t115 -121.5t84 -150.5t54 -171.5t30 -180t9 -179v-14q0 -102 -26 -228q-29 -135 -84 -253q76 -70 111.5 -143.5t35.5 -172.5q0 -98 -35 -98q-8 0 -17.5 4t-21 12.5 t-18 13.5t-18.5 16.5t-13 12.5l-170 146q-64 -72 -174.5 -111t-206.5 -39q-106 0 -200 30.5t-174.5 97.5t-138.5 165.5t-91 241.5t-33 319zM434 872q0 -285 80.5 -423t224.5 -138q63 0 101 25q-203 152 -203 377q0 24 8 68t23 44q32 0 32 -34q14 -41 42.5 -77t67 -64.5 t80 -53t91.5 -50.5l18 -9q45 145 45 366q0 541 -305 541q-55 0 -100.5 -21t-76.5 -55.5t-54.5 -83.5t-37 -99.5t-22 -109t-11.5 -106t-3 -97.5z" />
<glyph unicode="R" horiz-adv-x="1359" d="M102 729q0 958 127 975h15h542q110 0 195.5 -23.5t137.5 -61t86 -89t46.5 -102.5t12.5 -107q0 -77 -23 -145.5t-57 -113.5t-74 -84.5t-74 -63.5t-57 -44.5t-23 -33.5q0 -11 20.5 -37t53 -64.5t71.5 -88.5t78.5 -116.5t72 -140.5t53 -169t20.5 -193q0 -17 -9.5 -22 t-41.5 -5h-232q-5 0 -17 -0.5t-19 0t-18.5 1t-18 2t-13.5 4.5t-10.5 8t-3.5 12q0 114 -45.5 267.5t-113 266.5t-124.5 113q-33 0 -81 -24.5t-88.5 -73t-40.5 -101.5q0 -69 18.5 -177.5t37.5 -189.5t19 -83q0 -10 -5 -16t-15 -8q-9 -3 -17 -3h-6q-5 0 -13 1q-12 1 -15 1h-238 h-7q-20 -1 -30.5 4t-27.5 41.5t-25.5 109t-15.5 218t-7 356.5zM434 1040q0 -125 64 -125q28 0 97.5 32.5t145.5 82t133.5 120t57.5 136.5q0 89 -68.5 132.5t-163.5 43.5q-59 0 -99.5 -10t-74.5 -36.5t-53 -74t-29 -121.5q-10 -68 -10 -162v-18z" />
<glyph unicode="S" horiz-adv-x="1323" d="M68 451q0 49 11 95t27 77.5t34 56t32 36t21 11.5q6 0 11.5 -23t14.5 -59.5t23 -81t44.5 -89t72.5 -81t113 -59.5t161 -23q123 0 207 52t84 143q0 36 -13.5 67.5t-39.5 55.5t-52.5 42.5t-66.5 35.5t-66 26t-65 21q-130 40 -224 91t-146 100t-82 109t-38 108t-8 108 q0 56 15 114.5t53.5 123t96 114t153 81.5t214.5 32q104 0 203.5 -25.5t163 -61t102.5 -71.5t39 -59q0 -47 -62 -145.5t-102 -98.5q-13 0 -34 19t-48.5 46t-62.5 54t-87.5 46t-111.5 19q-55 0 -106 -17t-89 -57t-38 -96q0 -28 11.5 -54.5t25 -45t43.5 -39t47 -31t57.5 -27 t53 -21t54.5 -18.5q16 -5 23 -8q125 -42 218.5 -93.5t150 -103.5t91 -113t46.5 -116t12 -118q0 -74 -20.5 -146.5t-67.5 -143t-115 -123.5t-171 -85.5t-228 -32.5q-112 0 -214.5 30t-186.5 88t-134 152t-50 212z" />
<glyph unicode="T" horiz-adv-x="1282" d="M0 1247q0 50 32 192t54 183q17 33 199 73t374 40q161 0 306 -26t231 -69t86 -90q0 -42 -26 -111.5t-55.5 -121t-41.5 -51.5q-9 0 -26.5 17.5t-40.5 42.5t-51.5 50t-67.5 42.5t-80 17.5q-36 0 -63 -43t-42 -106t-24.5 -146.5t-12.5 -151t-3 -133.5q0 -147 11.5 -282 t28 -225.5t33 -158.5t28 -107.5t11.5 -47.5q0 -13 -7 -21t-21.5 -11t-23.5 -3.5t-28 0t-20 0.5h-215q-4 0 -13 -2q-8 -1 -15 -1q-24 0 -38 16q-63 73 -63 499q0 201 22.5 388.5t45 300.5t22.5 134q0 9 0.5 24.5t0.5 22.5t-1 17.5t-3.5 15t-7 10t-12 7.5t-18.5 2 q-49 0 -124 -37t-136 -81t-113 -81t-63 -37q-2 0 -7 -0.5t-6.5 0t-5 2t-4.5 4.5t-3 8.5t-2.5 14t-0.5 20.5z" />
<glyph unicode="U" horiz-adv-x="1378" d="M68 879q0 186 8.5 336t20.5 238.5t27 147.5t27 81t21 22h285q14 0 21.5 -1t15.5 -7t8 -19q0 -11 -16 -70t-35.5 -137t-35.5 -222.5t-16 -305.5q0 -134 18.5 -241.5t48 -174t68.5 -111.5t77 -63t77 -18q28 0 50.5 3t57.5 16t62.5 35.5t57.5 67t50 104.5t33 153t13 209 q0 149 -10.5 277.5t-25 209t-29.5 138.5t-25.5 90t-10.5 40q0 7 3 12t9.5 8t12.5 4.5t15 2t15 0.5h6h7h10h201q11 0 20 -3.5t22 -20.5t23 -46.5t21 -87.5t18.5 -137t12 -201t4.5 -274q0 -965 -623 -965q-295 0 -457.5 230t-162.5 680z" />
<glyph unicode="V" horiz-adv-x="1318" d="M35 1206q0 139 8.5 238.5t19 148t28 75.5t28.5 31.5t26 4.5h234h13h17t17.5 -0.5t18.5 -3t15 -6t11.5 -9.5t3.5 -14q0 -14 -17 -58t-37 -102.5t-37 -179t-17 -268.5q0 -104 25 -209.5t62 -185t78 -143t74 -97t49 -33.5q32 0 75 33.5t87 96.5t82 143.5t62 185t24 209.5 q0 148 -21 268.5t-46.5 179t-46.5 102.5t-21 58q0 8 2.5 14t8.5 9.5t11.5 6t14.5 3t14 0.5h15h12h237q15 0 30.5 -19.5t31.5 -63t28.5 -104.5t20.5 -152.5t8 -199.5q0 -145 -28.5 -289t-75 -261.5t-105.5 -224t-121 -185t-120.5 -137t-105 -88t-73.5 -29.5q-8 0 -32 12 t-62.5 39.5t-84.5 66.5t-96.5 98.5t-99.5 131t-93.5 168t-78 204.5t-53.5 246.5t-20 288.5z" />
<glyph unicode="W" horiz-adv-x="1742" d="M33 1174q0 112 2.5 197.5t5.5 141.5t9.5 94t11 57t14.5 28.5t15.5 10.5t17.5 1h6h254q47 0 47 -29q0 -1 -15 -55t-30 -157t-15 -222q0 -143 13 -269t33 -209.5t44 -144.5t44.5 -88.5t35.5 -27.5q20 0 48.5 33t60.5 101.5t59.5 158.5t45.5 218t18 267q0 120 -9 212 t-18.5 136.5t-9.5 48.5q0 17 8 22t27 5h266q51 0 51 -35q0 -9 -9.5 -59t-19.5 -137t-10 -187q0 -131 12.5 -256t32.5 -218t44 -164.5t47 -108.5t42 -37q39 0 91 102t91.5 271t39.5 331q0 96 -17.5 205.5t-35 182.5t-17.5 79q0 15 8.5 22.5t14.5 8t20 0.5h188h11q10 1 17 1 q3 -1 5 -1q8 0 20.5 -6t20 -18.5t16.5 -37t13.5 -60.5t8 -92t3.5 -128q0 -161 -26 -325.5t-67.5 -299.5t-92.5 -260.5t-103 -219t-98 -164t-77 -106.5t-40 -36q-30 0 -85.5 84.5t-106 186t-101.5 186t-73 84.5t-73 -84.5t-102 -186t-106.5 -186t-85.5 -84.5q-9 0 -36.5 30.5 t-67.5 90t-85.5 139.5t-90 188t-80 225t-58 261.5t-22.5 288.5z" />
<glyph unicode="X" horiz-adv-x="1302" d="M51 31q0 108 22 208.5t57.5 175.5t78.5 141.5t86 116t78.5 89.5t57.5 72t22 53q0 33 -33 78t-79.5 102.5t-93 131.5t-79.5 192t-33 258q0 12 3 20.5t6 14.5t11 10t12.5 6t16 3t16.5 1h18.5h17.5h225q5 -1 14 -1q22 -2 28 -12q6 -13 13 -105q1 -14 2 -21q8 -100 26.5 -184 t40 -137t46 -89.5t44.5 -52t34 -15.5q36 0 76 71t66 172.5t26 185.5q0 15 -3.5 80t-3.5 69q0 16 6 25.5t17 12t20 3.5h8h15q14 -2 18 -2h160q23 0 39.5 -2.5t26.5 -11.5t15.5 -15.5t7.5 -25.5t2.5 -29t0.5 -37q0 -116 -20.5 -214.5t-50.5 -160.5t-66 -115.5t-66 -85 t-50.5 -63.5t-20.5 -57q0 -24 33 -72.5t80 -117t93.5 -155t79.5 -214t33 -267.5q0 -12 -0.5 -20.5t-2 -15.5t-2.5 -11t-6 -7l-7.5 -4.5t-11 -2t-13 -0.5h-17h-20.5h-202q-8 0 -27 -0.5t-23.5 0t-16 2.5t-13.5 6t-7.5 12t-7.5 20t-4 30l-6 88q-9 99 -30.5 184.5t-47 140 t-53 94.5t-48.5 57t-34 17t-38 -15.5t-60.5 -56t-68 -98.5t-61 -156t-40.5 -216q-10 -78 -14 -88q-9 -18 -42 -20q-11 -1 -40 -1h-152q-3 0 -19 -1q-8 0 -14 -0.5t-10 0.5q-8 1 -19.5 3.5t-16.5 9.5t-5 19z" />
<glyph unicode="Y" horiz-adv-x="1318" d="M33 1548q0 58 5 89.5t22.5 46.5t35 17.5t58.5 2.5h163h7q22 0 35.5 -1t33.5 -5t30.5 -16t10.5 -31q0 -6 -9 -73t-9 -87q0 -103 32 -209.5t76 -180t87 -120.5t67 -47q23 0 71 55.5t97.5 136t87 185t37.5 190.5q0 39 -9.5 102.5t-9.5 65.5q0 10 4.5 17.5t10 11t16 5 t16.5 1.5q3 1 8 1t11 -1h16h154q60 0 79 -23.5t19 -85.5q0 -131 -30 -247t-77.5 -205.5t-105 -174.5t-115.5 -170t-105.5 -174.5t-77.5 -206t-30 -247.5q0 -23 6.5 -66.5t6.5 -64.5q0 -14 -8 -23t-24 -12t-26 -3.5t-29 -0.5h-7h-238q-36 0 -50 37.5t-14 81.5 q0 84 21.5 170.5t47.5 142.5t47.5 107t21.5 73q0 14 -26 45.5t-67 77t-90.5 104.5t-99.5 136t-91 162t-67 192.5t-26 218.5z" />
<glyph unicode="Z" horiz-adv-x="1269" d="M33 86q0 113 50 252t124.5 264.5t161.5 254t161.5 227t124.5 178.5t50 112q0 88 -127 88q-74 0 -132.5 -18t-87 -40t-52 -40t-34.5 -18q-33 0 -86 154.5t-53 185.5q0 8 7 12.5t18 5.5q12 2 22 2h7q7 0 15 -1q12 -1 13 -1h942q31 0 55.5 -17t24.5 -49q0 -57 -55 -160 t-138 -216.5t-179.5 -244.5t-179.5 -245.5t-138 -219.5t-55 -165q0 -42 32 -71.5t75 -41.5t91 -12q73 0 136 23.5t96.5 51.5t63 51.5t42.5 23.5q25 0 92.5 -181t67.5 -200q0 -31 -92 -31h-926h-26h-14h-10q-7 0 -21 0.5t-19.5 3t-15.5 6.5t-14 10.5t-9 15.5t-6.5 21.5 t-1.5 28.5z" />
<glyph unicode="[" horiz-adv-x="819" d="M154 733q0 1002 125 1002h147q2 0 23 0.5t45 0.5h56t60 -1.5t53 -4t39.5 -8t14.5 -12.5q0 -25 -11 -37.5t-29.5 -17t-43 -9t-51 -19.5t-53 -40.5t-51 -80.5t-43 -132t-29.5 -201t-11 -282q0 -150 9 -271t24 -201t35 -140.5t42.5 -93t46.5 -55t46.5 -29.5t42.5 -13.5 t35 -10.5t24 -16.5t9 -35.5q0 -7 -14 -12.5t-38 -8t-51.5 -4t-58.5 -1.5h-54.5t-44 0.5t-22.5 0.5h-168q-104 0 -104 733z" />
<glyph unicode="\" horiz-adv-x="741" d="M20 1747h197l504 -1847h-199z" />
<glyph unicode="]" horiz-adv-x="819" d="M102 25q0 21 10 34t18 16t35 10q40 10 64 21t66 60t66 127t43.5 232t19.5 366q0 158 -11 282t-29.5 201t-43 132t-51 80.5t-53 40.5t-51 19.5t-43 9t-29.5 17t-11 37.5q0 7 14.5 12.5t39.5 8t53 4t60 1.5h56t45 -0.5t23 -0.5h148q125 0 125 -1002q0 -733 -105 -733h-168 q-2 0 -23 -0.5t-45 -0.5h-56t-60 1.5t-53 4t-39.5 8t-14.5 12.5z" />
<glyph unicode="^" horiz-adv-x="1200" d="M88 741l416 912h190l416 -912h-215l-299 705l-303 -705h-205z" />
<glyph unicode="_" horiz-adv-x="1024" d="M-51 -362q0 11 7 41t19.5 68t36 66.5t51.5 28.5h918q2 0 21.5 0.5t27 -0.5t21 -4t19 -11.5t5.5 -21.5q0 -11 -7 -41t-19.5 -68t-36 -66.5t-51.5 -28.5h-918q-2 0 -21.5 -0.5t-27 0.5t-21 4t-19 11.5t-5.5 21.5z" />
<glyph unicode="`" horiz-adv-x="788" d="M102 1782q0 17 9.5 28t29 15t32 5t37 0t26.5 -1q10 0 29.5 0.5t24.5 0t17 -1t15 -4t10.5 -7t12 -12t10 -17.5t14.5 -25l155 -290q25 -42 25 -54q0 -14 -27 -14q-44 -4 -118 47t-139.5 118.5t-114 130t-48.5 81.5z" />
<glyph unicode="a" horiz-adv-x="1064" d="M68 377q0 93 43 177t113 143.5t154.5 99.5t172.5 55q27 5 42 9t32 13t24.5 25.5t7.5 40.5q0 73 -61.5 116.5t-136.5 43.5q-49 0 -85.5 -13t-55 -32.5t-32 -42.5t-19 -42.5t-13.5 -32.5t-18 -13q-51 0 -94.5 51.5t-43.5 116.5q0 110 106 179.5t253 69.5q347 0 450 -284 q19 -53 31 -249.5t14 -329t2 -218.5q0 -48 8.5 -114t8.5 -99q0 -29 -100.5 -38t-274.5 -9q-102 0 -184.5 15t-136.5 38t-94 57t-61 66.5t-33.5 72.5t-15.5 68t-3 60zM344 424q0 -83 61.5 -132.5t147.5 -49.5q44 0 70.5 10t38 34.5t14 48t2.5 68.5v91v27v17v12q0 8 -1.5 25.5 t-4.5 24.5t-9.5 19.5t-15.5 17.5t-23 9.5t-32 4.5q-93 0 -170.5 -68t-77.5 -159z" />
<glyph unicode="b" horiz-adv-x="1097" d="M96 733q0 1014 84 1014h197q74 0 74 -45q0 -4 -15.5 -65t-31 -142.5t-15.5 -134.5q0 -66 45 -66q21 0 84 23q84 24 119 24q55 0 110.5 -19t111.5 -64t99 -110.5t70 -167.5t27 -226q0 -181 -49.5 -325t-159.5 -269q-55 -66 -137 -113t-187 -47h-362q-64 0 -64 733z M373 776q0 -91 6.5 -163t15 -116.5t24 -76.5t27 -46.5t31 -22.5t27.5 -8.5t26 -0.5q71 0 122.5 38t77.5 100t37 123.5t11 125.5q0 96 -16 172t-40.5 121t-56.5 74.5t-61 40t-57 10.5q-45 0 -74 -10.5t-49.5 -33.5t-31 -68t-15 -105t-4.5 -154z" />
<glyph unicode="c" horiz-adv-x="999" d="M43 590q0 108 21.5 213.5t68 203t113 171.5t164.5 118.5t215 44.5q132 0 219.5 -62t87.5 -151q0 -55 -34.5 -117.5t-86.5 -62.5q-12 0 -22.5 15.5t-22.5 38t-29 45t-51 38t-80 15.5q-75 0 -133 -45.5t-90 -116.5t-48 -145t-16 -144q0 -158 74.5 -261t214.5 -103 q62 0 113 21t80.5 50.5t50 59t32 50.5t15.5 21q6 0 12.5 -11.5t12.5 -40.5t6 -68q0 -183 -110.5 -290.5t-293.5 -107.5q-99 0 -180.5 36t-136.5 96.5t-93.5 141t-55.5 168t-17 179.5z" />
<glyph unicode="d" horiz-adv-x="1110" d="M43 616q0 135 34 255t87.5 203.5t119.5 145.5t131 91.5t120 29.5q23 0 63 -23.5t53 -23.5q27 0 37 34.5t10 72.5q0 94 -25.5 191.5t-25.5 125.5q0 29 72 29h213q84 0 84 -1014q0 -733 -64 -733h-479q-87 0 -164 39t-137 113t-94.5 193.5t-34.5 270.5zM319 659 q0 -58 11.5 -116.5t36.5 -115.5t71.5 -92.5t108.5 -35.5q32 0 59 9.5t46 24t34 39t24 47.5t15.5 56.5t9.5 59.5q3 27 5 63q1 27 1 47q-1 7 -1 12q0 23 -0.5 57t-0.5 48q0 88 -4 153.5t-13 106.5t-19.5 67t-27 38.5t-31 16t-36.5 3.5q-29 0 -64 -14.5t-75.5 -50.5t-73 -89.5 t-54.5 -140.5t-22 -193z" />
<glyph unicode="e" horiz-adv-x="1075" d="M43 600q0 179 47 324t125.5 234t175 136t201.5 47q115 0 208 -40.5t150.5 -125.5t57.5 -202q0 -89 -36.5 -157.5t-94.5 -109t-128.5 -71t-141 -52t-128.5 -43.5t-94.5 -53.5t-36.5 -74.5q0 -67 86.5 -116.5t171.5 -49.5q69 0 124.5 14t90 36.5t60.5 50t40 55t23.5 50 t15.5 36.5t11 14q20 0 28.5 -46t8.5 -77q0 -189 -128 -299.5t-319 -110.5q-133 0 -235 52t-162.5 141.5t-90.5 200t-30 237.5zM319 803q0 -45 37 -45q13 0 73.5 15t134.5 38.5t132 60t58 72.5q0 70 -54 113t-118 43q-78 0 -140.5 -50.5t-92.5 -117t-30 -129.5z" />
<glyph unicode="f" horiz-adv-x="733" d="M16 1130v7q0 57 7.5 92.5t25 53t37.5 23t53 5.5q26 0 44.5 14t29.5 41t18 53t14.5 63t14.5 58q28 92 108.5 149.5t163.5 57.5q10 0 35 1h22h15q13 -1 34 -2t32 -4t23.5 -8.5t18 -14.5t5.5 -21q0 -42 -18.5 -137t-41.5 -95q-15 0 -31.5 9.5t-27.5 9.5q-39 0 -67.5 -45 t-28.5 -86q0 -22 14 -38t37 -16q13 0 39 5.5t39 5.5q23 0 38.5 -7t23.5 -16.5t12 -28t5 -33t1 -40.5q0 -107 -43 -107q-5 0 -39.5 9.5t-55.5 9.5q-31 0 -53 -15t-32.5 -34t-16 -53t-6 -53.5t-0.5 -53.5v-3.5v-3.5v-3q0 -119 19 -322.5t38 -359t19 -160.5q0 -11 -3 -18.5 t-5.5 -11.5t-11 -5.5t-12.5 -2t-17 0t-17 0.5h-219q-2 0 -7 -1h-5q-15 0 -22 15q-34 70 -34 598q0 51 3.5 154t3.5 154q0 8 1 28.5t0.5 34t-1.5 33t-6 32t-13 25.5t-22 19t-33 6q-20 0 -45 -12.5t-35 -12.5q-12 0 -17.5 8.5t-6.5 18t-1 30.5z" />
<glyph unicode="g" horiz-adv-x="1138" d="M51 231q0 67 24 119t58.5 81.5t69 50.5t58.5 37.5t24 31.5q0 13 -15 34.5t-37 50.5t-44 66t-37 92t-15 117q0 201 117.5 315.5t323.5 114.5q40 0 86 -8q40 -8 41 -8q31 0 64 29.5t56 64.5t53.5 64.5t57.5 29.5q38 0 103 -74.5t65 -103.5q0 -20 -30 -27.5t-65.5 -8.5 t-65.5 -17.5t-30 -52.5q0 -19 16.5 -46t36 -55.5t36 -88t16.5 -134.5q0 -83 -26.5 -159t-78.5 -139.5t-138.5 -101.5t-196.5 -38q-85 0 -167.5 -42.5t-82.5 -86.5q0 -29 20.5 -49.5t48.5 -20.5t80 16t104 35.5t126 35.5t139 16q28 0 77 -13.5t94.5 -42.5t45.5 -63 q0 -51 -51 -167t-92 -116q-14 0 -25.5 10.5t-23 25.5t-25 30.5t-38 26t-56.5 10.5q-62 0 -193 -52q-135 -51 -213 -51q-126 0 -210.5 70t-84.5 192zM379 938q0 -92 54.5 -150.5t144.5 -58.5q86 0 142 56.5t56 152.5t-56 152.5t-142 56.5t-142.5 -56.5t-56.5 -152.5z" />
<glyph unicode="h" horiz-adv-x="1114" d="M102 840q0 62 1 126t4 180t11 211.5t20 189t33 147t48 53.5h223q13 0 23 -13.5t10 -29.5q0 -8 -19.5 -73t-39 -156.5t-19.5 -163.5q0 -18 1 -29t9.5 -23t24.5 -12q19 0 94 45q92 49 172 49q74 0 130 -29t101 -97.5t69 -194t24 -305.5q0 -116 -9 -273.5t-31.5 -299.5 t-51.5 -142h-213q-2 0 -9.5 -0.5t-13 0t-14 1t-14.5 2t-11.5 4.5t-8.5 8t-3 12q0 3 10.5 50.5t25.5 122t30 161t25.5 184.5t10.5 174q0 154 -18.5 239.5t-49.5 113.5t-85 28q-43 0 -77.5 -19t-56.5 -47t-37.5 -72.5t-23.5 -82t-12.5 -90t-5 -82.5t-0.5 -72 q0 -181 11.5 -316.5t22.5 -203t11 -82.5q0 -33 -59 -33h-203q-4 0 -12 -1h-5q-16 0 -22 11q-17 31 -20 275q-1 131 -1 555z" />
<glyph unicode="i" horiz-adv-x="544" d="M94 678q0 137 1.5 237.5t5 169.5t9 113.5t12 68t15.5 34t19 11.5t23 0q3 0 5 -0.5t5 -0.5h6h112q61 0 74.5 -5.5t13.5 -25.5t-12 -132.5t-13 -242.5q0 -144 8.5 -283t20.5 -236t24 -172t20 -117t8 -44q0 -16 -5.5 -27t-12 -16.5t-20 -8t-21.5 -2.5t-26 0.5t-24 0.5h-139 h-16q-40 -1 -53 12q-27 26 -34 178q-6 121 -6 488zM117 1606q0 64 46.5 102.5t110.5 38.5q65 0 111.5 -39t46.5 -102t-46.5 -99.5t-111.5 -36.5t-111 36.5t-46 99.5z" />
<glyph unicode="j" horiz-adv-x="618" d="M0 63q0 72 20 166.5t56 94.5q16 0 40 -26t44 -26q11 0 18 1.5t17 9t17 21t14 39t11.5 61t7.5 89t3 121.5q0 117 -21.5 371.5t-21.5 286.5q0 10 3 17t9 11t12 7t16 3.5t16 1t17 0t15 -0.5h162q18 0 28 -21q41 -97 41 -786q0 -68 -5 -125t-17 -121.5t-37 -113.5t-61 -90 t-93 -63t-129 -22q-24 0 -52 4.5t-59 14t-51 29t-20 46.5zM182 1606q0 63 46.5 102t111.5 39t111.5 -39t46.5 -102t-46.5 -99.5t-111.5 -36.5t-111.5 36.5t-46.5 99.5z" />
<glyph unicode="k" horiz-adv-x="1052" d="M96 733q0 1014 84 1014h219q50 0 50 -45q0 -9 -7.5 -42.5t-18.5 -92t-22 -139.5t-19 -210t-9 -278q0 -41 0.5 -58.5t2.5 -48.5t7.5 -44t15.5 -13q26 0 69.5 46.5t85 116t71.5 160.5t30 169q0 11 1 18.5t4.5 12.5t6 7.5t10 3.5t11 1.5t15 0t16.5 -0.5h125q6 0 20.5 0.5 t21 0.5t17.5 -2t16 -7t9 -14t4 -23q0 -97 -35 -192t-76.5 -153.5t-76.5 -105t-35 -57.5q0 -18 22.5 -39.5t67 -60t78.5 -80.5q72 -89 119.5 -221.5t47.5 -301.5q0 -10 -1 -18t-5 -13.5t-6 -10t-9 -7t-10 -4t-13.5 -2t-13.5 -0.5h-16h-16h-166q-28 0 -36 0.5t-20 6t-15 18.5 t-4 38q-1 100 -23 198t-53.5 164t-64.5 107t-56 41q-12 0 -30.5 -7t-39.5 -20.5t-36 -40.5t-15 -61q0 -110 12.5 -205.5t25.5 -149.5t13 -64q0 -16 -12 -20.5t-39 -4.5h-235q-64 0 -64 733z" />
<glyph unicode="l" horiz-adv-x="526" d="M113 558q-1 59 -1 99t1 61v15q0 1014 84 1014h194h11h16.5t15 -1t16 -3.5t12.5 -7t10 -11.5t3 -16q0 -1 -9 -39t-21.5 -108.5t-25 -163.5t-21.5 -228t-9 -278q0 -158 8 -302t19.5 -240t23 -168t19.5 -111.5t8 -44.5q0 -10 -5 -16t-16 -8q-10 -3 -18 -3h-6q-6 0 -15 1 q-13 1 -16 1h-215q-23 0 -38.5 96.5t-19 220t-5.5 241.5z" />
<glyph unicode="m" horiz-adv-x="1730" d="M94 541q0 502 1 546q6 185 38 238q26 42 94 49q23 2 119 2q20 0 32.5 -1t27 -4t21.5 -10t7 -18q0 -12 -12 -44.5t-12 -47.5q0 -14 12.5 -24t28.5 -10q11 0 24.5 6t36 19.5t37.5 21.5q85 47 192 47q43 0 86.5 -23.5t77 -47t53.5 -23.5q62 0 121 36q102 58 189 58 q76 0 136 -29t98 -69t65 -110.5t40 -125.5t20 -143.5t8 -134.5t1 -126v-18q0 -92 -2.5 -167.5t-6 -130.5t-10 -97.5t-12.5 -70t-16 -46.5t-16.5 -28t-18.5 -13t-18 -4t-19 1t-18 1h-139h-8h-10t-10.5 0.5t-12 1.5t-11 2t-10.5 4l-8 6t-6 8t-2 11q0 7 19.5 89t39 223 t19.5 292q0 432 -217 432q-52 0 -73 -14q-60 -40 -65 -266q-1 -25 -1 -52q0 -289 -2 -427.5t-12 -214.5t-21.5 -85.5t-40.5 -9.5h-185q-8 0 -22 -0.5t-20.5 -0.5t-14.5 1.5t-11 6.5t-3 13t19.5 128t39 271.5t19.5 237.5q0 39 -0.5 62.5t-3.5 72t-9 80.5t-18.5 72.5t-29.5 65 t-44.5 42t-62.5 17.5q-211 0 -211 -494q0 -182 14.5 -304t28.5 -175t14 -67q0 -8 -3 -14t-6.5 -9t-11.5 -4.5t-12 -1.5h-14h-12h-162q-6 0 -19 -1q-12 0 -23.5 -0.5t-21 9t-17 29t-13.5 58.5t-10.5 97t-6.5 145.5t-2 203.5z" />
<glyph unicode="n" horiz-adv-x="1130" d="M94 506q0 146 2.5 260.5t7 202.5t12 152t17.5 109t22.5 73t27.5 43.5t32.5 22t38 7.5t44.5 0h26q11 0 30.5 0.5t30.5 0.5t26 -0.5t24 -3t17.5 -6.5t12.5 -11t4 -17q0 -9 -9 -33t-9 -40t8 -27.5t22 -11.5q12 0 50.5 21t95.5 42t114 21q19 0 35 -1.5t48 -13t57.5 -31 t56 -60.5t50.5 -96.5t34 -144.5t14 -200q0 -126 -2.5 -228.5t-5.5 -178t-10 -133t-11.5 -95.5t-15.5 -64t-17 -38.5t-19.5 -19t-19.5 -7t-22 -0.5h-10h-176h-12h-14.5t-13 0.5t-13 3t-9.5 6t-7.5 9.5t-2.5 14q0 4 11 40t26.5 99.5t30.5 144t26 194.5t11 230q0 66 -4.5 114.5 t-19 102t-47 82.5t-81.5 29q-28 0 -55 -8t-61.5 -36.5t-60 -75.5t-43 -134t-17.5 -203q0 -109 14.5 -248.5t29.5 -236t15 -100.5q0 -10 -4.5 -16t-16.5 -8t-16 -2.5t-18 -0.5h-174h-13h-13q-11 0 -17 1q-10 2 -23.5 16t-19 44.5t-11.5 86.5t-8 143.5t-2 214.5z" />
<glyph unicode="o" horiz-adv-x="1114" d="M43 657q0 101 19 198t60 185.5t100 155t145.5 106t189.5 39.5t189.5 -39.5t145.5 -106t100 -155t60 -185.5t19 -198q0 -139 -31 -255.5t-82 -195t-118 -133t-138.5 -79.5t-144.5 -25t-144.5 25t-138.5 79.5t-118 133t-82 195t-31 255.5zM297 709q0 -53 7 -104.5 t25.5 -106t46.5 -95t75 -66.5t106 -26t106 26t75 66.5t46.5 95t25.5 106t7 104.5q0 67 -12.5 130.5t-40.5 124.5t-81.5 98.5t-125.5 37.5t-125.5 -37.5t-81.5 -98.5t-40.5 -124.5t-12.5 -130.5z" />
<glyph unicode="p" horiz-adv-x="1075" d="M94 334v602q0 66 1 110.5t4 88t9 69t14.5 52t21.5 37t30.5 24.5t40.5 14.5t52 7.5q18 4 38 4q13 0 27 -1q18 -3 39 -3q19 0 39 2h65q133 0 235.5 -24.5t165.5 -64.5t103 -97.5t55 -117t15 -128.5q0 -92 -33.5 -188.5t-87 -175.5t-116 -142.5t-125 -99t-109.5 -35.5 q-17 0 -39.5 16.5t-33 28.5t-36.5 43q-8 9 -18.5 22t-18 21t-15 16.5t-13 12.5t-9.5 4q-6 0 -9 -3.5t-4.5 -12.5t-1.5 -15.5t0.5 -21t0.5 -21.5q0 -63 9.5 -139.5t19.5 -130t10 -59.5q0 -5 -1.5 -9.5t-4.5 -7.5t-6 -5t-8 -3.5t-9 -2.5t-10 -1h-9.5h-9.5h-8h-168q-39 0 -49 6 q-31 20 -39 147q-4 68 -4 181zM371 684q0 -28 1 -44.5t6 -40t14 -36.5t28 -23t45 -10q133 0 231.5 106.5t98.5 237.5q0 98 -69.5 162t-168.5 64q-29 0 -45 -1.5t-39 -9.5t-35.5 -24t-27 -46t-22 -74t-12.5 -109.5t-5 -151.5z" />
<glyph unicode="q" horiz-adv-x="1075" d="M27 909q0 69 15 128.5t55 117t102.5 97.5t165 64.5t235.5 24.5q186 0 215 -3q88 -8 121 -53q37 -51 43 -212q2 -53 2 -137v-602q0 -83 -2 -141t-7.5 -95t-10.5 -57t-17 -29t-20 -10.5t-26 -1.5h-3h-3h-3h-168h-8h-9.5h-9.5t-10 1t-9 2.5t-8 3.5t-6 5t-4.5 7.5t-1.5 9.5 q0 6 9.5 59.5t19.5 130t10 139.5q0 7 0.5 21.5t0.5 21t-1.5 15.5t-4.5 12.5t-9 3.5q-4 0 -9.5 -4t-13 -12.5t-15 -16.5t-18 -21t-18.5 -22q-51 -60 -72 -75q-20 -13 -36 -13q-47 0 -109.5 35.5t-125 99t-116 142.5t-87 175.5t-33.5 188.5zM281 874q0 -131 98 -237.5 t231 -106.5q26 0 45 10t28.5 23t14.5 36.5t6 40.5t1 44q0 67 -3 121.5t-7.5 95.5t-14 72t-17.5 52t-22.5 35.5t-25.5 22.5t-30 11.5t-32 4.5t-35 1q-99 0 -168 -64t-69 -162z" />
<glyph unicode="r" horiz-adv-x="872" d="M95 915q-1 64 -1 116q0 157 5 209q6 70 38 71h170q5 0 18.5 1t19.5 0t15 -3t12.5 -9t4.5 -18q2 -14 3 -20t4.5 -17.5t8 -17t13 -10.5t20.5 -5q9 0 18.5 3t21.5 11t20 14t25 19t24 19q87 63 147 63q78 0 134 -58.5t56 -141.5q0 -51 -19 -96t-47 -73t-58 -44.5t-54 -16.5 q-6 0 -9.5 10t-6 25.5t-10 33.5t-19 33.5t-35.5 25.5t-57 10q-35 0 -64 -16t-48 -41t-33 -62t-21 -71.5t-11.5 -77t-5.5 -71.5t-1 -61q0 -180 17.5 -324t34.5 -215.5t17 -76.5q-2 -33 -69 -33h-164q-6 0 -18 -1h-12q-11 0 -17 1q-10 2 -23.5 18t-19.5 53.5t-12.5 105.5 t-8.5 175.5t-2 261.5q0 119 -1 301z" />
<glyph unicode="s" horiz-adv-x="1058" d="M80 336q0 45 13 98t28.5 87t23.5 34q2 0 7.5 -17t16.5 -44.5t27.5 -60t44 -65.5t62 -60.5t85.5 -44.5t110 -17q72 0 127 37.5t55 109.5q0 42 -30.5 75.5t-79.5 57.5t-107.5 48t-117.5 56t-108 72.5t-79.5 105.5t-30.5 148q0 120 60 209.5t154.5 132.5t207.5 43 q89 0 168.5 -24t127 -57.5t74.5 -64.5t27 -48q0 -32 -64.5 -118.5t-97.5 -86.5q-14 0 -28 16.5t-30.5 39.5t-39.5 46t-63.5 39.5t-92.5 16.5q-54 0 -101.5 -24t-47.5 -66t33 -78.5t85.5 -65t116.5 -58.5t128 -68t116.5 -84t85.5 -115t33 -154q0 -128 -66 -225t-171 -145 t-230 -48q-83 0 -159.5 24t-137.5 69t-98 116t-37 158z" />
<glyph unicode="t" horiz-adv-x="743" d="M27 1127v10q0 57 7.5 92.5t25 53t37.5 23t53 5.5q3 0 16 -4t22 -4q10 0 19 3t15.5 10.5t12 14.5t9.5 20.5t7 21.5t6 25.5t4 25t3.5 27t3.5 24.5q7 51 119 93t162 42q12 0 18 -8t6 -35q0 -31 -30.5 -113.5t-30.5 -91.5q0 -62 41 -62q13 0 39 5.5t39 5.5q23 0 38.5 -7 t23.5 -16.5t12 -28t5 -33t1 -40.5q0 -107 -43 -107q-5 0 -39.5 9.5t-55.5 9.5q-75 0 -98 -87q-14 -57 -14 -227q0 -152 11.5 -273.5t28.5 -189t34 -111.5t28.5 -66t11.5 -29q0 -22 -123.5 -84t-160.5 -62q-27 0 -48 71t-31 173.5t-14.5 187t-4.5 138.5q0 111 3 198.5t6 134 t3 56.5q0 8 1 28t0.5 32.5t-1.5 31.5t-6 31t-13 23.5t-22 17.5t-33 6q-20 0 -45 -12.5t-35 -12.5q-12 0 -17.5 8t-6 16.5t-0.5 29.5z" />
<glyph unicode="u" horiz-adv-x="1138" d="M94 662q0 32 4 119t13.5 215t31.5 221.5t52 93.5h188q3 0 18 1h13.5h9.5q8 -1 19 -3.5t16.5 -9.5t5.5 -19q0 -7 -9.5 -38.5t-23.5 -84t-28 -121.5t-23.5 -170t-9.5 -209v-45.5t1.5 -54t4.5 -63t9 -62t14 -62.5t21.5 -53.5t30.5 -45.5t41 -28.5t52 -11.5q27 0 50 5 t57.5 31t57.5 72t40.5 137t17.5 216q0 108 -18 248.5t-36 239t-18 106.5q0 9 6.5 15t21.5 8t20 2h22h190q88 0 88 -625q0 -155 -4 -266.5t-8 -190.5t-18 -128t-23.5 -77t-34.5 -39.5t-40.5 -13.5t-52.5 -2h-19q-50 0 -78.5 8.5t-34.5 21.5t-7.5 27.5t0 27.5t-9.5 21.5 t-38 8.5q-8 0 -24.5 -10.5t-41.5 -30t-37 -27.5q-76 -47 -151 -47q-56 0 -100 15.5t-88.5 60.5t-73.5 119.5t-47.5 201t-18.5 296.5z" />
<glyph unicode="v" horiz-adv-x="1056" d="M43 1247q0 44 10.5 54t52.5 10h158q4 0 20 1h14h10q8 -1 20.5 -3.5t18 -10.5t5.5 -20q0 -18 -5 -74t-5 -106q0 -104 8.5 -197.5t22.5 -162.5t32 -127.5t37 -97.5t37.5 -66.5t33.5 -39.5t26 -12q28 0 62.5 51.5t66.5 137.5t53.5 217.5t21.5 273.5q0 37 -6 100t-6 93 t11 36.5t42 6.5h9h135q22 0 31.5 -0.5t22 -4t16.5 -10t9 -20.5t6 -33t1 -49q0 -176 -25 -338t-65 -281.5t-90.5 -223t-101.5 -172t-98.5 -117.5t-81.5 -71t-50 -22q-12 0 -40.5 21t-71 69.5t-89 117.5t-93 175.5t-83 232t-59.5 298.5t-23 364z" />
<glyph unicode="w" horiz-adv-x="1478" d="M43 1087q0 68 4.5 111t9 66.5t19.5 33.5q14 10 24 12q6 1 18 1h19h19h161q2 0 8 -0.5t8.5 -0.5t7 -1t7 -1.5t6 -2t5 -4t3.5 -5.5t2.5 -7t0.5 -9q0 -3 -6 -29.5t-11.5 -85t-5.5 -139.5q0 -161 26 -312.5t56 -231t49 -79.5q12 0 31.5 17.5t44.5 65t45.5 117.5t34.5 190 q12 105 12 230v36q0 42 -6 125t-6 94q0 19 6.5 26t23.5 7h203q2 0 11 -0.5t13 -1.5t10 -4t8.5 -8.5t2.5 -14.5q0 -2 -9 -99.5t-9 -160.5q0 -109 10.5 -210.5t27 -173.5t35.5 -126.5t37 -81.5t31 -27q25 0 60.5 83t63.5 226.5t28 286.5q0 78 -13.5 171.5t-13.5 109.5 q0 8 2.5 13.5t7.5 9t9.5 5.5t13 2.5t13 0.5h14h12.5h112h28t21.5 -2.5t18 -7t11.5 -14.5t9.5 -23.5t4.5 -36.5t3.5 -51t0.5 -68q0 -152 -22.5 -296.5t-58.5 -255t-81.5 -208t-91.5 -165.5t-87.5 -117.5t-70.5 -73t-41 -23.5q-55 0 -190 275q-1 1 -7.5 16t-13.5 29.5t-16 31 t-18.5 27t-16.5 10.5q-17 0 -53 -71q-20 -41 -56 -105.5t-89 -138.5t-79 -74q-21 0 -66 50t-102.5 150.5t-109.5 230t-87.5 313t-35.5 374.5z" />
<glyph unicode="x" horiz-adv-x="1044" d="M53 44v22q0 96 24.5 187t59.5 155t70 114.5t59.5 83t24.5 43.5q0 19 -22 51.5t-53.5 77.5t-62.5 104t-53 151.5t-22 199.5q0 57 13.5 67.5t70.5 10.5h149h13.5h13.5t10.5 -0.5t10 -2.5t7.5 -5t6.5 -7.5t3 -11.5t1.5 -16q0 -85 17 -163.5t42.5 -130t53.5 -82t51 -30.5 q10 0 23.5 11t31 38.5t33.5 66t29 101.5t18 138q2 14 5.5 34t3.5 26t5 16t7 11t14 4t21 3h32h102q28 0 38.5 -1t24.5 -7t18.5 -21t4.5 -41q0 -92 -24 -175.5t-58.5 -140t-68.5 -100t-58 -73.5t-24 -43q0 -24 28 -57t68 -77t80 -102t68 -154t28 -213v-45t-3.5 -29t-6.5 -19 t-14.5 -8.5t-21 -4.5h-32.5h-153h-15h-14t-11 0.5t-10.5 2.5t-7 5t-6 7.5t-3 11.5t-1.5 16q0 94 -24 182t-58 144t-67.5 89.5t-55.5 33.5q-20 0 -47 -30.5t-51.5 -81t-41.5 -127.5t-17 -159q0 -66 -11 -80t-69 -14h-127h-17h-15t-11 1t-9.5 2.5t-6.5 4.5t-5.5 8t-3 12 t-2.5 16z" />
<glyph unicode="y" horiz-adv-x="1050" d="M53 47v180q0 84 60 84q67 0 121 8t86 20t53 27t29 27t8 21q0 17 -19.5 41t-51 56t-69.5 74t-76.5 103t-70 133t-51 174.5t-19.5 218.5q0 71 9.5 84t68.5 13h168h12.5h14t12.5 -1t13.5 -3.5t10 -6.5t7.5 -10.5t2 -15.5q0 -10 -9.5 -65t-9.5 -89q0 -84 32 -173t74 -150.5 t80.5 -101.5t55.5 -40q39 0 71.5 69t49 161t16.5 174q0 60 -11 136.5t-11 84.5t2.5 13.5t8 9t10.5 5.5t13.5 2.5t13.5 0.5h14h11h183q6 -1 11 -4t8.5 -8.5t6 -11.5t4 -16.5t2 -18.5t1.5 -22v-13v-11q-1 -10 -1 -27v-28v-32q0 -131 -29 -263q-33 -149 -94.5 -278 t-148.5 -242.5t-186.5 -194t-212.5 -126.5t-224 -46q-22 0 -33.5 11t-13.5 25t-2 42z" />
<glyph unicode="z" horiz-adv-x="956" d="M53 57q0 116 36.5 238.5t90.5 220t118 189.5t118 155t90.5 109t36.5 59q0 41 -92 41q-76 0 -130.5 -13.5t-82 -26.5t-39.5 -13q-28 0 -57 115.5t-29 152.5q0 10 6 16.5t19 8.5q12 3 20 3h10h13q15 0 16 -1h616h18h17t13.5 -0.5t12.5 -2.5t10 -5t9 -7.5t5 -11.5t4 -16 t1 -21q0 -200 -24 -243q-20 -37 -100 -136t-157 -194t-140.5 -206t-63.5 -181q0 -29 18 -37t66 -8q82 0 143 10t86 21.5t44 21.5t28 10q24 0 57 -119.5t33 -156.5q0 -29 -80 -29h-657h-25h-17h-9q-5 0 -19.5 3t-18.5 9t-9 17.5t-5 27.5z" />
<glyph unicode="{" horiz-adv-x="819" d="M31 866q0 7 7.5 11t19.5 6t27.5 13t31.5 27t31.5 52.5t27.5 85.5t19.5 129.5t7.5 181.5q0 106 14 178t31.5 108t55.5 54.5t62 20.5t74 2h19q2 0 48 1t82 0.5t81.5 -2.5t71.5 -8t26 -16q0 -27 -18 -40.5t-46.5 -17.5t-63 -7.5t-69 -16t-63 -35.5t-46.5 -73t-18 -123 q0 -59 12.5 -163t12.5 -167q0 -47 -21 -86t-46.5 -58.5t-46.5 -35.5t-21 -21t14 -15t33.5 -25t39.5 -35.5t34 -53.5t14 -71q0 -64 -12.5 -167t-12.5 -161q0 -73 18 -123t46.5 -73t63 -35.5t69 -16t63 -7.5t46.5 -17.5t18 -40.5q0 -10 -26 -16t-71.5 -8t-81.5 -2.5t-82 0.5 t-48 1q-90 0 -117 7q-77 18 -109 109q-30 86 -30 246q0 101 -7.5 181t-19.5 129t-27.5 85t-31.5 52.5t-31.5 27t-27.5 12.5t-19.5 6t-7.5 11z" />
<glyph unicode="|" horiz-adv-x="698" d="M211 -645v2582h272v-2582h-272z" />
<glyph unicode="}" horiz-adv-x="819" d="M51 25q0 27 18 40.5t46.5 17.5t63 7.5t69 16t63 35.5t46.5 73t18 123q0 58 -12.5 161t-12.5 167q0 38 14 71t33.5 53.5t39.5 35.5t34 25t14 15t-21 21t-46.5 35.5t-46.5 58.5t-21 86q0 63 12.5 167t12.5 163q0 73 -18 123t-46.5 73t-63 35.5t-69 16t-63 7.5t-46.5 17.5 t-18 40.5q0 10 26 16t71.5 8t81.5 2.5t82 -0.5t48 -1q90 0 118 -7q78 -19 109 -113q29 -85 29 -243q0 -101 7.5 -181.5t19.5 -129.5t27.5 -85.5t31.5 -52.5t31.5 -27t27.5 -13t19.5 -6t7.5 -11t-7.5 -11t-19.5 -6t-27.5 -12.5t-31.5 -27t-31.5 -52.5t-27.5 -85t-19.5 -129 t-7.5 -181q0 -54 -3 -98.5t-9.5 -79t-15 -61.5t-19.5 -46t-24 -33t-28 -22t-31 -13.5t-33.5 -6.5t-35.5 -2t-37 0h-20q-2 0 -48 -1t-82 -0.5t-81.5 2.5t-71.5 8t-26 16z" />
<glyph unicode="~" d="M78 602q50 107 134.5 175.5t184.5 68.5q26 0 52 -4.5t44 -9.5t41.5 -15.5t34 -16.5t32 -18.5t26.5 -15.5q10 -6 41 -25.5t40.5 -25t31 -16.5t37 -14t32.5 -3q56 0 96.5 40t89.5 122l111 -96q-49 -110 -129 -179t-172 -69q-61 0 -111.5 20t-128.5 70q-43 29 -62 41 t-53 24.5t-67 12.5q-27 0 -52.5 -11t-41 -22.5t-38 -40.5t-30.5 -41t-31 -49z" />
<glyph unicode="&#xa1;" horiz-adv-x="665" d="M102 39q0 8 25.5 68t55.5 136t55.5 187t25.5 209q0 90 -8 203t-16.5 194t-8.5 94q0 14 47 21.5t97 7.5q43 0 88.5 -170.5t71.5 -371t26 -318.5q0 -51 -1.5 -90.5t-2.5 -70t-5.5 -52.5t-7 -37.5t-10.5 -25t-12 -15t-15.5 -7.5t-17 -2t-20.5 0.5t-23 0.5h-272q-72 0 -72 39 zM102 1507q0 94 66.5 161t161.5 67q96 0 163.5 -65.5t67.5 -160.5t-68 -160t-165 -65q-93 0 -159.5 65.5t-66.5 157.5z" />
<glyph unicode="&#xa2;" d="M150 801q0 119 20.5 222.5t53 176.5t75.5 132.5t86 96.5t86 62t74 35t51 10q15 0 25 25.5t19 58.5t19 43q45 29 111 29q22 0 35.5 -15.5t13.5 -38.5q0 -18 -10 -43.5t-10 -29.5q0 -25 10 -25q80 0 154.5 -62t74.5 -139q0 -34 -11 -74t-37.5 -73t-61.5 -33q-11 0 -30 22 t-38 48.5t-47.5 48.5t-54.5 22q-4 -48 -17.5 -182t-20.5 -226t-7 -159q0 -36 4 -74t11 -85.5t9 -67.5q58 0 105.5 20t75 48t46 56t28.5 48t14 20q6 0 12.5 -11.5t12 -40.5t5.5 -68q0 -78 -24 -144.5t-57.5 -106.5t-70.5 -68t-62 -39t-34 -11q-6 0 -15 -13.5t-9 -19.5 q0 -9 25.5 -42.5t25.5 -47.5q0 -24 -58.5 -42.5t-109.5 -18.5q-10 0 -18 8.5t-14.5 26.5t-9.5 30t-7.5 34.5t-5.5 25.5q-13 38 -57 38q-42 0 -90.5 21t-101.5 69.5t-95.5 117t-70 174.5t-27.5 231zM426 860q0 -110 37.5 -196.5t109.5 -128.5q-1 31 -4.5 127t-3.5 149 q0 93 18.5 268t20.5 203q-61 -36 -103 -112.5t-58.5 -155t-16.5 -154.5z" />
<glyph unicode="&#xa3;" d="M-12 846q0 33 31 105.5t67 72.5q12 0 35 -11.5t31 -11.5q22 0 22 66q0 7 -11 42.5t-11 80.5q0 226 140 364t353 138q87 0 163.5 -20t127 -50t87 -65.5t53 -65t16.5 -49.5q0 -29 -91.5 -94.5t-123.5 -65.5q-16 0 -31 15t-30.5 37t-36 44t-56 37t-82.5 15q-70 0 -130 -66 t-60 -160q0 -64 9 -106t27 -62.5t37.5 -27.5t48.5 -7q38 0 121.5 11.5t104.5 11.5q36 0 59 -15.5t23 -39.5q0 -38 -36 -112.5t-79 -74.5q-25 0 -78 12.5t-82 12.5q-22 0 -22 -25t11 -51t21.5 -70.5t10.5 -113.5q0 -70 -14 -119.5t-50 -101.5q8 2 24.5 8.5t29.5 10t26 3.5 q44 0 109.5 -18.5t115.5 -18.5q57 -2 96.5 24t57 66t27.5 87.5t12 88t7 68t15 27.5q14 0 31.5 -21t34 -57.5t28 -93.5t11.5 -121q0 -90 -22 -163t-55 -118t-75.5 -75t-80 -42t-70.5 -12q-70 0 -130 13t-95 28t-83.5 28t-99.5 13q-116 0 -184 -31q-39 -18 -58 -25.5 t-57 -16.5t-76 -9q-21 0 -37.5 4t-27 9t-18 14.5t-11 16.5t-5 20.5t-2 20t0 20.5t0.5 18v50q-1 29 -0.5 53.5t2 45t5.5 36t11.5 26t20 16t29.5 5.5q22 0 57.5 -6.5t67.5 -6.5q82 -6 118.5 37t36.5 156q0 109 -32 206t-66 97t-96.5 -12.5t-81.5 -12.5q-36 0 -61 18.5 t-25 45.5z" />
<glyph unicode="&#xa4;" horiz-adv-x="1222" d="M123 342l153 168q-96 134 -96 315q0 89 26.5 174t72.5 140l-154 164l119 110l135 -168q93 84 231 84q145 0 236 -82l137 170l115 -114l-156 -164q48 -54 75 -139t27 -175q0 -86 -28.5 -171t-75.5 -142l158 -170l-115 -109l-143 170q-95 -77 -230 -77q-144 0 -231 80 l-137 -173zM369 825q0 -138 68.5 -225.5t174.5 -87.5q105 0 173.5 88.5t68.5 224.5q0 138 -69 228t-173 90h-4q-102 0 -170.5 -90.5t-68.5 -227.5z" />
<glyph unicode="&#xa5;" d="M2 1548q0 42 5 64.5t22 33.5t35 13t59 2h113h7h28t27.5 -3t27.5 -8t18 -16t8 -26q0 -6 -9 -73t-9 -87q0 -103 32 -209.5t75.5 -180t86 -120.5t66.5 -47q23 0 71 55.5t97.5 136t87 185t37.5 190.5q0 39 -9.5 102.5t-9.5 65.5q0 10 4.5 17.5t10 11t16 5t16.5 2t19 0 t16 -0.5h137q60 0 79.5 -23.5t19.5 -85.5q0 -122 -33 -236.5t-80 -194.5t-94 -144.5t-80 -110t-33 -67.5q0 -7 6.5 -10.5t23 -4.5t31 -1t44.5 0.5t49 0.5q31 0 62.5 -43.5t49 -90.5t17.5 -68q0 -14 -5 -22.5t-19 -12t-26.5 -4t-41.5 -0.5q-69 0 -141 23.5t-101 23.5 q-66 0 -104.5 -103t-38.5 -317q0 -20 11 -69t11 -81q0 -23 -128 -37t-195 -14q-30 0 -47 53.5t-17 96.5q0 80 14.5 150t31.5 108t31.5 70t14.5 45q-2 55 -18 76.5t-64 21.5q-39 0 -106 -23q-54 -24 -88 -24q-103 0 -103 196q0 17 9.5 26.5t34.5 13.5t41.5 4.5t57.5 0.5h25 q66 0 82 8q17 9 17 27q0 13 -29.5 53t-71 103t-83.5 143t-71.5 194.5t-29.5 235.5z" />
<glyph unicode="&#xa6;" horiz-adv-x="698" d="M211 -451v904h272v-904h-272zM211 842v903h272v-903h-272z" />
<glyph unicode="&#xa7;" horiz-adv-x="1245" d="M111 823q0 88 50 170.5t142 126.5q-44 47 -70 107.5t-26 122.5q0 129 64 219.5t172 133t251 42.5q187 0 332 -74l-49 -231q-44 27 -114.5 45t-141.5 18q-98 0 -153.5 -35.5t-55.5 -89.5q0 -55 62 -94.5t208 -87.5q189 -77 274 -170.5t85 -230.5q0 -173 -166 -312 q42 -33 70 -99.5t28 -127.5q0 -78 -28 -145t-75.5 -114t-110.5 -81t-133.5 -50t-143.5 -16q-256 0 -398 95l58 233q49 -34 135.5 -62t169.5 -28q92 0 156.5 38.5t64.5 109.5q0 65 -55.5 99.5t-212.5 84.5q-194 61 -291.5 154t-97.5 249zM387 872q0 -60 47.5 -100t155.5 -76 q11 -4 35.5 -13.5t35 -13.5l31.5 -12t31 -12t26 -11t25.5 -11.5t19.5 -10t17 -10.5q30 17 46.5 52.5t16.5 78.5q0 130 -190 193q-168 57 -217 80q-80 -51 -80 -132v-2z" />
<glyph unicode="&#xa8;" horiz-adv-x="1161" d="M164 1614q0 76 52.5 120t129.5 44t129.5 -44t52.5 -120t-52.5 -120t-129.5 -44t-129.5 44t-52.5 120zM633 1614q0 76 52.5 120t129.5 44t129.5 -44t52.5 -120t-52.5 -120t-129.5 -44t-129.5 44t-52.5 120z" />
<glyph unicode="&#xa9;" horiz-adv-x="1900" d="M68 852q0 421 230.5 652t651.5 231t652 -231t231 -652t-231 -652t-652 -231t-651.5 231t-230.5 652zM262 852q0 -322 183 -505t505 -183t505 183t183 505t-183 505t-505 183t-505 -183t-183 -505zM508 825q0 81 19 160t59 151.5t96 127.5t136.5 87.5t174.5 32.5 q47 0 95.5 -10t93.5 -29.5t73.5 -55.5t28.5 -83q0 -131 -133 -131q-15 0 -20.5 12t-8.5 28.5t-11.5 33.5t-36.5 29t-75 12q-70 0 -120.5 -27.5t-77.5 -74.5t-39 -100.5t-12 -115.5q0 -84 24 -146.5t64.5 -96t83.5 -49t90 -15.5q61 0 110 18.5t77 45t47 53t28.5 45t11.5 18.5 q12 0 20.5 -49t8.5 -84q0 -87 -53 -154.5t-135 -100.5t-177 -33q-109 0 -195.5 43t-139 115t-80 159.5t-27.5 183.5z" />
<glyph unicode="&#xaa;" horiz-adv-x="819" d="M51 1155q0 56 32 108t83 89t110 62.5t117 35.5q5 1 23 3t24.5 3.5t17.5 6t15 12t4 18.5q0 30 -37 44.5t-88 14.5q-32 0 -57.5 -13t-38.5 -28t-25.5 -28t-21.5 -13q-63 0 -100 35.5t-37 79.5q0 67 70 114.5t163 47.5q8 0 53 1.5t72 1t74 -7t79 -20t66.5 -41t55.5 -67.5 q10 -19 16.5 -153t8 -232.5t1.5 -153.5q0 -57 5 -109t5 -65q0 -29 -299 -29q-105 0 -182 23t-115.5 54.5t-61.5 75t-27.5 72t-4.5 58.5zM293 1184q0 -31 34 -50.5t87 -19.5q75 0 75 57v56q0 4 0.5 17.5t0 17t-2 13t-4.5 12.5t-8.5 8t-14 6.5t-20.5 1.5q-58 0 -102.5 -37.5 t-44.5 -81.5z" />
<glyph unicode="&#xab;" horiz-adv-x="1245" d="M102 647q0 52 39 105l224 338q1 1 8 12.5t11.5 17t12 14.5t15.5 13t16 4q19 0 102 -53q10 -6 24.5 -15t22.5 -14t18 -12t15.5 -12t11 -11t7.5 -11.5t2 -12.5q0 -9 -3 -18t-10 -20t-11 -16.5t-14.5 -18.5t-12.5 -15l-177 -224q-30 -36 -30 -51t30 -51l177 -223 q2 -2 12.5 -15t14.5 -18.5t11 -16.5t10 -20t3 -18q0 -7 -2 -12.5t-7.5 -11.5t-11 -11t-15.5 -12t-18 -12t-22.5 -14t-24.5 -15q-6 -4 -17 -11t-16 -10t-13.5 -8.5t-12.5 -7.5t-10 -5.5t-10 -5t-8.5 -3.5t-8 -2.5t-6.5 -0.5q-8 0 -16 4t-15.5 13t-12 15t-11.5 17t-8 13 l-224 338q-39 53 -39 104zM614 647q0 52 39 105l224 338q1 1 8 12.5t11.5 17t12 14.5t15.5 13t16 4q19 0 102 -53q10 -6 24.5 -15t22.5 -14t18 -12t15.5 -12t11 -11t7.5 -11.5t2 -12.5q0 -9 -3 -18t-10 -20t-11 -16.5t-14.5 -18.5t-12.5 -15l-177 -224q-30 -36 -30 -51 t30 -51l177 -223q2 -2 12.5 -15t14.5 -18.5t11 -16.5t10 -20t3 -18q0 -7 -2 -12.5t-7.5 -11.5t-11 -11t-15.5 -12t-18 -12t-22.5 -14t-24.5 -15q-6 -4 -17 -11t-16 -10t-13.5 -8.5t-12.5 -7.5t-10 -5.5t-10 -5t-8.5 -3.5t-8 -2.5t-6.5 -0.5q-8 0 -16 4t-15.5 13t-12 15 t-11.5 17t-8 13l-224 338q-39 53 -39 104z" />
<glyph unicode="&#xac;" d="M104 795v190h979v-661h-188v471h-791z" />
<glyph unicode="&#xad;" horiz-adv-x="512" d="M0 551q0 11 7 44t20 75t36.5 74t51.5 32h303q2 0 21.5 0.5t27 -0.5t21 -4t19 -11.5t5.5 -21.5q0 -11 -7 -44t-20 -75t-36.5 -74t-51.5 -32h-303q-2 0 -21.5 -0.5t-27 0.5t-21 4t-19 11.5t-5.5 21.5z" />
<glyph unicode="&#xae;" horiz-adv-x="1900" d="M68 852q0 421 230.5 652t651.5 231t652 -231t231 -652t-231 -652t-652 -231t-651.5 231t-230.5 652zM262 852q0 -322 183 -505t505 -183t505 183t183 505t-183 505t-505 183t-505 -183t-183 -505zM561 784l12 365q12 135 33 182q10 22 20.5 30.5t32.5 8.5h383 q97 0 166 -20.5t103.5 -55.5t49.5 -72.5t15 -80.5q0 -53 -23 -99.5t-56 -76.5t-65.5 -53t-55.5 -39t-23 -25q0 -6 27 -34.5t66 -73t78 -99.5t66 -130t27 -149q0 -9 -6 -11.5t-27 -2.5h-196h-12h-12t-9.5 0.5t-8.5 2t-6.5 4.5t-4.5 7q-12 94 -46 188t-70 148t-58 54 q-37 0 -87.5 -36.5t-50.5 -82.5q0 -42 12.5 -107.5t24.5 -114t12 -49.5q0 -6 -3.5 -9.5t-10 -4.5t-11.5 -1t-12.5 0.5t-9.5 0.5h-184h-10.5h-10t-8 0.5t-8 2t-5.5 3.5t-5 6t-4 9q-15 43 -22 180t-7 235zM809 969q0 -76 43 -76q27 0 92.5 30.5t128 85.5t62.5 107 q0 53 -45.5 80t-106.5 27q-64 0 -99.5 -19t-55 -75t-19.5 -160z" />
<glyph unicode="&#xaf;" horiz-adv-x="1024" d="M236 1487q0 11 7 41t19.5 68.5t36 67t51.5 28.5h344q2 0 21.5 0.5t27 -0.5t21 -4t19 -11.5t5.5 -21.5q0 -11 -7 -41t-19.5 -68.5t-36 -67t-51.5 -28.5h-344q-2 0 -21.5 -0.5t-27 0.5t-21 4t-19 11.5t-5.5 21.5z" />
<glyph unicode="&#xb0;" horiz-adv-x="847" d="M84 1337q0 168 96.5 272.5t233.5 104.5h4q152 0 243 -111t91 -266q0 -174 -97 -275t-241 -101q-138 0 -234 101.5t-96 274.5zM236 1339q0 -114 50 -185t132 -71q85 0 132.5 68.5t47.5 181.5q0 115 -46 185.5t-136 70.5h-2q-81 0 -129.5 -69.5t-48.5 -180.5z" />
<glyph unicode="&#xb1;" d="M102 745v193h392v455h192v-455h387v-193h-387v-475h-192v475h-392zM111 -18v188h972v-188h-972z" />
<glyph unicode="&#xb2;" horiz-adv-x="716" d="M33 719q0 86 24.5 159t63.5 123.5t86.5 93.5t95 78t86.5 67.5t63.5 70.5t24.5 80q0 54 -25 80t-85 26q-39 0 -73.5 -17t-57 -41t-40 -48t-30 -41t-19.5 -17q-8 0 -51 69t-43 79q0 25 22.5 60t61 69t99 58t126.5 24q140 0 230 -71t90 -198q0 -62 -22.5 -119t-58.5 -98.5 t-79.5 -78.5t-87 -64t-79.5 -48t-58.5 -38t-22.5 -29q0 -18 25 -18q1 0 30.5 5t55.5 5q23 0 70 -12.5t63 -12.5q94 0 94 78q0 7 -2 16t-4 15.5t-4 12.5t-1 9t5 3q7 0 23.5 -21t33.5 -67t17 -99q0 -87 -63.5 -148t-131.5 -61q-25 0 -116 17q-82 16 -113 16q-37 0 -98.5 -16.5 t-73.5 -16.5q-51 0 -51 66z" />
<glyph unicode="&#xb3;" horiz-adv-x="716" d="M35 768q0 9 65.5 111t73.5 102q9 0 24.5 -13.5t31.5 -30.5t43.5 -30.5t58.5 -13.5q53 0 80.5 29.5t27.5 66.5q0 157 -213 174q-15 0 -31 6.5t-16 18.5q0 18 56.5 71.5t113 106t56.5 66.5q0 34 -56 34q-43 0 -121 -21.5t-90 -21.5q-13 0 -35 92t-22 119q0 7 2 12t6.5 8 t9 4.5t11.5 2t12 1t13 0t11 -0.5h441q4 0 17 0.5t18.5 0t15.5 -2t14.5 -5t8.5 -11t4 -17.5q0 -69 -31.5 -136.5t-69 -108.5t-69 -74t-31.5 -41q0 -7 22.5 -17.5t54.5 -28t63.5 -44.5t54 -78t22.5 -117q0 -150 -94 -250t-252 -100q-54 0 -105 13t-85 31.5t-60 38.5 t-38.5 34.5t-12.5 19.5z" />
<glyph unicode="&#xb4;" horiz-adv-x="788" d="M240 1419q0 14 24 54l156 290q9 16 14.5 25t10 17.5t12 12t10.5 7t15 4t17 1t24.5 0t29.5 -0.5q2 0 26 1t37 0t32 -5t28.5 -15t9.5 -28q0 -19 -48.5 -81.5t-114 -130t-139.5 -118.5t-118 -47q-26 0 -26 14z" />
<glyph unicode="&#xb5;" horiz-adv-x="1138" d="M94 334v500q0 76 4 149t14 152t31.5 127.5t51.5 48.5h188q3 0 18 1t23 0t19 -3.5t16.5 -9.5t5.5 -19q0 -8 -23.5 -71.5t-47 -160t-23.5 -184.5q0 -73 17 -126t45 -79t55.5 -37.5t56.5 -11.5q25 0 49.5 5t57 23t56.5 48.5t41.5 88t18.5 134.5q1 85 -17 171t-36.5 141.5 t-18.5 64.5t6.5 15t21.5 8t20 2h22h190q30 0 49.5 -56t27 -165t9.5 -191t2 -211q0 -88 -3.5 -152.5t-10.5 -109.5t-17.5 -73t-25 -44t-33 -22.5t-41 -7.5t-49.5 0h-30q-44 0 -67.5 10t-27 25t-2.5 32.5t4.5 32.5t-3 25t-27.5 10q-8 0 -28 -20t-48 -40t-57 -20 q-112 0 -143 -10q-52 -23 -54 -88q0 -42 19.5 -122t19.5 -85t-1.5 -9.5t-4.5 -7.5t-6 -5t-8 -3.5t-9 -2.5t-10 -1h-9.5h-9.5h-8h-168q-39 0 -49 6q-31 20 -39 147q-4 68 -4 181z" />
<glyph unicode="&#xb6;" horiz-adv-x="1193" d="M80 1163q2 266 163.5 414.5t483.5 148.5q205 0 307 -26v-1825h-200v1643h-150v-1643h-199v789h-18q-47 0 -97 15t-103 52t-94 92t-67.5 143t-25.5 197z" />
<glyph unicode="&#xb7;" horiz-adv-x="593" d="M68 690q0 92 66.5 157.5t158.5 65.5q97 0 165 -65t68 -160t-67.5 -160t-163.5 -65q-95 0 -161 66.5t-66 160.5z" />
<glyph unicode="&#xb8;" horiz-adv-x="1024" d="M231 -223q0 22 76.5 86.5t175.5 122t152 59.5q37 -1 64.5 0t46.5 1.5t31 -1t17 -7.5t5 -18q0 -7 -29.5 -29t-59.5 -52.5t-30 -57.5q0 -14 24 -28t53 -26.5t53 -42.5t24 -71q0 -59 -50 -107.5t-124.5 -75.5t-148.5 -41.5t-132 -14.5q-74 0 -74 26q0 12 25.5 26t56.5 26 t56.5 33.5t25.5 45.5q0 45 -37 73.5t-82 36.5t-82 16.5t-37 19.5z" />
<glyph unicode="&#xb9;" horiz-adv-x="716" d="M131 1559q0 11 22.5 33t57.5 44.5t86 39t100 16.5q41 0 74 -11t33 -34q0 -6 -9 -59.5t-18.5 -140t-9.5 -171.5q0 -91 22.5 -290t22.5 -249q0 -27 -95 -47t-147 -20q-20 0 -26.5 7t-12.5 70.5t-6 210.5q0 99 7.5 252.5t7.5 206.5q0 35 -17 59.5t-37.5 34.5t-37.5 22 t-17 26z" />
<glyph unicode="&#xba;" horiz-adv-x="819" d="M20 1325q0 77 23.5 149.5t69 134.5t122.5 100t175 38q79 0 144.5 -25t110 -66.5t75.5 -97t45 -114t14 -119.5q0 -111 -33 -197t-89 -136.5t-123.5 -75.5t-143.5 -25t-143.5 25t-124 75.5t-89.5 136.5t-33 197zM262 1352q0 -84 35 -141.5t113 -57.5q79 0 113 57t34 142 q0 54 -12.5 96.5t-47 73t-87.5 30.5q-77 0 -112.5 -58t-35.5 -142z" />
<glyph unicode="&#xbb;" horiz-adv-x="1245" d="M102 285q0 9 3 18t10 19.5t12 17t14.5 18t12.5 15.5l176 223q30 36 30 51t-30 51l-176 224q-3 4 -12.5 15.5t-14.5 18t-12 17t-10 19.5t-3 18q0 7 2 12.5t7.5 11.5t11 11t15.5 12t18 12t22.5 14t24.5 15q83 53 102 53q7 0 14 -3.5t12.5 -8t12 -12.5t10 -13t9 -13.5 t6.5 -10.5l223 -338q39 -53 39 -105q0 -51 -39 -104l-223 -338q-1 -1 -8.5 -13t-11.5 -17.5t-12 -14.5t-16 -13t-16 -4q-3 0 -6.5 0.5t-8 2.5t-8.5 3.5t-10 5t-10 5.5t-12.5 7.5t-13.5 8.5t-16 10t-17 11q-10 6 -24.5 15t-22.5 14t-18 12t-15.5 12t-11 11t-7.5 11.5t-2 12.5 zM614 285q0 9 3 18t10 19.5t12 17t14.5 18t12.5 15.5l176 223q30 36 30 51t-30 51l-176 224q-3 4 -12.5 15.5t-14.5 18t-12 17t-10 19.5t-3 18q0 7 2 12.5t7.5 11.5t11 11t15.5 12t18 12t22.5 14t24.5 15q83 53 102 53q7 0 14 -3.5t12.5 -8t12 -12.5t10 -13t9 -13.5 t6.5 -10.5l223 -338q39 -53 39 -105q0 -51 -39 -104l-223 -338q-1 -1 -8.5 -13t-11.5 -17.5t-12 -14.5t-16 -13t-16 -4q-3 0 -6.5 0.5t-8 2.5t-8.5 3.5t-10 5t-10 5.5t-12.5 7.5t-13.5 8.5t-16 10t-17 11q-10 6 -24.5 15t-22.5 14t-18 12t-15.5 12t-11 11t-7.5 11.5t-2 12.5 z" />
<glyph unicode="&#xbc;" horiz-adv-x="1775" d="M57 1559l224 114h237v-997h-260v768h-6l-141 -70zM317 -20l783 1701h200l-782 -1701h-201zM909 215v160l402 624h245v-596h121v-188h-121v-215h-241v215h-406zM1087 406l3 -3h225v177q0 106 4 153l-4 4q-8 -14 -20 -38t-22 -41t-20 -31z" />
<glyph unicode="&#xbd;" horiz-adv-x="1855" d="M57 1559l224 114h237v-997h-260v768h-6l-141 -70zM317 -20l781 1701h200l-780 -1701h-201zM1063 0v158l154 159q135 132 189 210t54 143q0 49 -37 85t-106 36q-44 0 -97.5 -21t-86.5 -45l-60 188q49 37 138.5 66t185.5 29q149 0 241.5 -80.5t92.5 -214.5 q0 -46 -8.5 -87.5t-28.5 -80.5t-39.5 -69t-56 -69t-62.5 -64t-73 -69q-9 -8 -13 -12l-55 -37v-6h348v-219h-680z" />
<glyph unicode="&#xbe;" horiz-adv-x="1898" d="M59 721l43 190q30 -19 86 -36t107 -17q83 0 132.5 34.5t49.5 88.5q0 62 -60 97.5t-155 35.5h-59v172h53q85 0 142 29.5t57 75.5q0 41 -34 69.5t-112 28.5q-91 0 -170 -53l-45 184q46 28 125.5 47t175.5 19q141 0 231.5 -67t90.5 -181q0 -82 -52 -141t-135 -93v-6 q91 -14 154.5 -81t63.5 -150q0 -134 -107 -218.5t-289 -84.5q-85 0 -170 16.5t-123 40.5zM440 -20l783 1701h200l-780 -1701h-203zM1034 215v160l402 624h243v-596h121v-188h-121v-215h-239v215h-406zM1210 406l2 -3h228v177q0 106 4 153l-4 4q-7 -13 -28.5 -53t-33.5 -59z " />
<glyph unicode="&#xbf;" horiz-adv-x="983" d="M102 451q0 75 22.5 142t58 115t79 90t87 76t79 64.5t58 62.5t22.5 64q0 15 0.5 26t3 20t4 14.5t8 9t10 5.5t14.5 3t17.5 1t23.5 -0.5t27 -0.5q9 0 26.5 0.5t23 0t17 -2t14.5 -5.5t8 -11t6.5 -18.5t1.5 -27.5v-147q0 -61 -17 -110t-44.5 -81.5t-61 -60.5t-67 -54.5 t-61 -55t-44.5 -70t-17 -92.5q0 -70 37.5 -123.5t104.5 -53.5q33 0 60 13t44 31.5t30.5 37.5t24 32t19.5 13q17 0 88.5 -81.5t71.5 -100.5q0 -25 -28 -60t-73 -68t-110.5 -56t-132.5 -23q-126 0 -227 69t-154.5 178.5t-53.5 234.5zM379 1511q0 92 66.5 158t158.5 66 q97 0 165.5 -65.5t68.5 -160.5t-68 -160t-164 -65q-95 0 -161 66.5t-66 160.5z" />
<glyph unicode="&#xc0;" horiz-adv-x="1429" d="M68 451q0 158 26 306.5t70.5 264.5t101 220t118 180t122 137.5t113.5 99t91 57t56 19.5q13 0 38.5 -11t64 -36.5t82.5 -63t91.5 -95.5t93 -127.5t87 -165.5t72.5 -204t49 -247.5t18 -292.5q0 -80 -3 -146.5t-6.5 -115t-11.5 -86t-14 -62t-17.5 -41.5t-18 -25.5 t-20.5 -12.5t-20 -4.5t-20.5 0.5t-18.5 1h-229q-2 0 -10 -0.5t-13.5 0t-14.5 1t-15 2t-12.5 4t-9.5 7.5t-3 11q0 17 24.5 69t54.5 111.5t54.5 147t24.5 167.5q0 64 -51.5 95.5t-128.5 31.5q-53 0 -101 -3.5t-106.5 -13t-105 -29t-86.5 -47.5t-62.5 -72.5t-22.5 -100.5 q0 -55 21 -120.5t45.5 -112.5t45.5 -86t21 -48q0 -14 -38 -14h-293q-73 0 -103 117t-30 334zM424 2177q0 17 9.5 28t28.5 15t32 5t37 0t26 -1h27t22.5 0.5t17 -0.5t13.5 -2t10.5 -4.5t10.5 -7.5l9 -12t10.5 -16.5t12.5 -22.5l156 -291q24 -40 24 -53q0 -15 -26 -15 q-44 -4 -118 47t-139.5 118.5t-114 130t-48.5 81.5zM444 909q0 -39 39 -39q1 0 154.5 27t261.5 27q58 0 81.5 13t23.5 54q0 61 -41 155.5t-96.5 166t-92.5 71.5q-53 0 -132.5 -87t-138.5 -201t-59 -187z" />
<glyph unicode="&#xc1;" horiz-adv-x="1429" d="M68 451q0 158 26 306.5t70.5 264.5t101 220t118 180t122 137.5t113.5 99t91 57t56 19.5q13 0 38.5 -11t64 -36.5t82.5 -63t91.5 -95.5t93 -127.5t87 -165.5t72.5 -204t49 -247.5t18 -292.5q0 -80 -3 -146.5t-6.5 -115t-11.5 -86t-14 -62t-17.5 -41.5t-18 -25.5 t-20.5 -12.5t-20 -4.5t-20.5 0.5t-18.5 1h-229q-2 0 -10 -0.5t-13.5 0t-14.5 1t-15 2t-12.5 4t-9.5 7.5t-3 11q0 17 24.5 69t54.5 111.5t54.5 147t24.5 167.5q0 64 -51.5 95.5t-128.5 31.5q-53 0 -101 -3.5t-106.5 -13t-105 -29t-86.5 -47.5t-62.5 -72.5t-22.5 -100.5 q0 -55 21 -120.5t45.5 -112.5t45.5 -86t21 -48q0 -14 -38 -14h-293q-73 0 -103 117t-30 334zM444 909q0 -39 39 -39q1 0 154.5 27t261.5 27q58 0 81.5 13t23.5 54q0 61 -41 155.5t-96.5 166t-92.5 71.5q-53 0 -132.5 -87t-138.5 -201t-59 -187zM623 1815q0 13 24 53l156 291 q8 14 12.5 22.5t10.5 16.5l9 12t10.5 7.5t10.5 4.5t13.5 2t17 0.5t22.5 -0.5h27q2 0 26 1t37 0t32 -5t28.5 -15t9.5 -28q0 -19 -48.5 -81.5t-114 -130t-139.5 -118.5t-118 -47q-26 0 -26 15z" />
<glyph unicode="&#xc2;" horiz-adv-x="1429" d="M68 451q0 158 26 306.5t70.5 264.5t101 220t118 180t122 137.5t113.5 99t91 57t56 19.5q13 0 38.5 -11t64 -36.5t82.5 -63t91.5 -95.5t93 -127.5t87 -165.5t72.5 -204t49 -247.5t18 -292.5q0 -80 -3 -146.5t-6.5 -115t-11.5 -86t-14 -62t-17.5 -41.5t-18 -25.5 t-20.5 -12.5t-20 -4.5t-20.5 0.5t-18.5 1h-229q-2 0 -10 -0.5t-13.5 0t-14.5 1t-15 2t-12.5 4t-9.5 7.5t-3 11q0 17 24.5 69t54.5 111.5t54.5 147t24.5 167.5q0 64 -51.5 95.5t-128.5 31.5q-53 0 -101 -3.5t-106.5 -13t-105 -29t-86.5 -47.5t-62.5 -72.5t-22.5 -100.5 q0 -55 21 -120.5t45.5 -112.5t45.5 -86t21 -48q0 -14 -38 -14h-293q-73 0 -103 117t-30 334zM362 1862q0 23 46 69l204 219q41 43 54 51q23 13 69 13q43 0 71 -10.5t42 -22.5t53 -53l221 -219q27 -23 27 -39q0 -5 -37.5 -24.5t-86.5 -37.5t-75 -18q-8 0 -15.5 4t-17.5 14 l-10 9l-123 120q-1 1 -8 8.5t-12.5 13t-13.5 12.5t-15 10.5t-12 3.5q-23 0 -68 -52l-75 -82l-12 -12t-14 -14.5t-13.5 -12.5t-16.5 -11.5t-15.5 -7t-16.5 -3.5q-20 0 -75 25t-55 47zM444 909q0 -39 39 -39q1 0 154.5 27t261.5 27q58 0 81.5 13t23.5 54q0 61 -41 155.5 t-96.5 166t-92.5 71.5q-53 0 -132.5 -87t-138.5 -201t-59 -187z" />
<glyph unicode="&#xc3;" horiz-adv-x="1429" d="M68 451q0 158 26 306.5t70.5 264.5t101 220t118 180t122 137.5t113.5 99t91 57t56 19.5q13 0 38.5 -11t64 -36.5t82.5 -63t91.5 -95.5t93 -127.5t87 -165.5t72.5 -204t49 -247.5t18 -292.5q0 -80 -3 -146.5t-6.5 -115t-11.5 -86t-14 -62t-17.5 -41.5t-18 -25.5 t-20.5 -12.5t-20 -4.5t-20.5 0.5t-18.5 1h-229q-2 0 -10 -0.5t-13.5 0t-14.5 1t-15 2t-12.5 4t-9.5 7.5t-3 11q0 17 24.5 69t54.5 111.5t54.5 147t24.5 167.5q0 64 -51.5 95.5t-128.5 31.5q-53 0 -101 -3.5t-106.5 -13t-105 -29t-86.5 -47.5t-62.5 -72.5t-22.5 -100.5 q0 -55 21 -120.5t45.5 -112.5t45.5 -86t21 -48q0 -14 -38 -14h-293q-73 0 -103 117t-30 334zM295 1933q0 36 16.5 76t47 77.5t82.5 62t114 24.5q77 0 156 -33q4 -2 29 -11.5t31.5 -12t28.5 -10.5t31 -10.5t28 -8t31 -7l28 -3.5t30 -2q34 0 57 8.5t32.5 21t15.5 25t13.5 21 t18.5 8.5q26 0 38 -8.5t12 -18.5q0 -9 -4 -29.5t-22 -61t-47 -74t-89 -59.5t-139 -26q-91 0 -224 49q-124 47 -170 47q-28 0 -46 -11.5t-23 -25t-8.5 -25t-6.5 -11.5h-9.5h-11.5t-11.5 0.5t-11.5 2.5t-8.5 5t-6.5 8t-2 12zM444 909q0 -39 39 -39q1 0 154.5 27t261.5 27 q58 0 81.5 13t23.5 54q0 61 -41 155.5t-96.5 166t-92.5 71.5q-53 0 -132.5 -87t-138.5 -201t-59 -187z" />
<glyph unicode="&#xc4;" horiz-adv-x="1429" d="M68 451q0 158 26 306.5t70.5 264.5t101 220t118 180t122 137.5t113.5 99t91 57t56 19.5q13 0 38.5 -11t64 -36.5t82.5 -63t91.5 -95.5t93 -127.5t87 -165.5t72.5 -204t49 -247.5t18 -292.5q0 -80 -3 -146.5t-6.5 -115t-11.5 -86t-14 -62t-17.5 -41.5t-18 -25.5 t-20.5 -12.5t-20 -4.5t-20.5 0.5t-18.5 1h-229q-2 0 -10 -0.5t-13.5 0t-14.5 1t-15 2t-12.5 4t-9.5 7.5t-3 11q0 17 24.5 69t54.5 111.5t54.5 147t24.5 167.5q0 64 -51.5 95.5t-128.5 31.5q-53 0 -101 -3.5t-106.5 -13t-105 -29t-86.5 -47.5t-62.5 -72.5t-22.5 -100.5 q0 -55 21 -120.5t45.5 -112.5t45.5 -86t21 -48q0 -14 -38 -14h-293q-73 0 -103 117t-30 334zM340 2009q0 76 52.5 120t129.5 44t130 -44t53 -120t-53 -120t-130 -44t-129.5 44t-52.5 120zM444 909q0 -39 39 -39q1 0 154.5 27t261.5 27q58 0 81.5 13t23.5 54q0 61 -41 155.5 t-96.5 166t-92.5 71.5q-53 0 -132.5 -87t-138.5 -201t-59 -187zM809 2009q0 76 52.5 120t129.5 44t130 -44t53 -120t-53 -120t-130 -44t-129.5 44t-52.5 120z" />
<glyph unicode="&#xc5;" horiz-adv-x="1429" d="M68 451q0 158 26 306.5t70.5 264.5t101 220t118 180t122 137.5t113.5 99t91 57t56 19.5q13 0 38.5 -11t64 -36.5t82.5 -63t91.5 -95.5t93 -127.5t87 -165.5t72.5 -204t49 -247.5t18 -292.5q0 -80 -3 -146.5t-6.5 -115t-11.5 -86t-14 -62t-17.5 -41.5t-18 -25.5 t-20.5 -12.5t-20 -4.5t-20.5 0.5t-18.5 1h-229q-2 0 -10 -0.5t-13.5 0t-14.5 1t-15 2t-12.5 4t-9.5 7.5t-3 11q0 17 24.5 69t54.5 111.5t54.5 147t24.5 167.5q0 64 -51.5 95.5t-128.5 31.5q-53 0 -101 -3.5t-106.5 -13t-105 -29t-86.5 -47.5t-62.5 -72.5t-22.5 -100.5 q0 -55 21 -120.5t45.5 -112.5t45.5 -86t21 -48q0 -14 -38 -14h-293q-73 0 -103 117t-30 334zM444 909q0 -39 39 -39q1 0 154.5 27t261.5 27q58 0 81.5 13t23.5 54q0 61 -41 155.5t-96.5 166t-92.5 71.5q-53 0 -132.5 -87t-138.5 -201t-59 -187zM504 2021q0 96 71.5 165 t176.5 69q109 0 182.5 -67t73.5 -169q0 -97 -73.5 -167t-178.5 -70q-107 0 -179.5 69.5t-72.5 169.5zM651 2021q0 -46 28.5 -79t76.5 -33t76 32.5t28 81.5q0 43 -31.5 74t-74.5 31q-42 0 -72.5 -32t-30.5 -75z" />
<glyph unicode="&#xc6;" horiz-adv-x="2160" d="M68 451q0 158 26 306.5t70.5 264.5t101 220t118 180t122 137.5t113.5 99t91 57t56 19.5q52 0 177 -110.5t161 -174.5q15 68 24 108t20.5 71t18 44t22.5 21.5t26 9t36 0.5h11h757h13h18t18 -1t19 -3t15 -6t12 -10.5t4 -14.5q0 -17 -70 -160t-88 -143q-10 0 -33.5 15 t-52 33t-85.5 33t-126 15q-56 0 -111.5 -16.5t-105.5 -49t-81.5 -88.5t-31.5 -126q0 -117 64 -117q42 0 113 24t154.5 48t156.5 24q29 0 60.5 -10t31.5 -33q0 -10 -61.5 -173t-77.5 -163q-2 0 -67 20.5t-112 20.5q-42 0 -85 -15.5t-83.5 -46.5t-66 -87.5t-25.5 -128.5 q0 -127 68.5 -205t193.5 -78q69 0 137 21t110 46.5t78.5 46.5t51.5 21q20 0 94 -172t74 -194q0 -11 -4.5 -18t-16 -9.5t-17 -3.5t-21.5 -0.5t-17 0.5h-1083q-2 0 -10 -0.5t-13.5 0t-14.5 1t-15 2t-12.5 4t-9.5 7.5t-3 11q0 17 20.5 61t45 96.5t45 144.5t20.5 193 q0 72 -39 99.5t-114 27.5q-53 0 -101 -3.5t-106.5 -13t-105 -29t-86.5 -47.5t-62.5 -72.5t-22.5 -100.5q0 -55 21 -120.5t45.5 -112.5t45.5 -86t21 -48q0 -14 -38 -14h-293q-73 0 -103 117t-30 334zM444 909q0 -39 39 -39q1 0 154.5 27t261.5 27q58 0 81.5 13t23.5 54 q0 66 -41 160.5t-96 163.5t-93 69q-53 0 -132.5 -87t-138.5 -201t-59 -187z" />
<glyph unicode="&#xc7;" horiz-adv-x="1320" d="M51 805q0 135 29.5 267t91 252t148.5 211.5t210.5 145.5t268.5 54q72 0 146.5 -16t145.5 -49t115.5 -93.5t44.5 -138.5q0 -88 -56.5 -137.5t-154.5 -49.5q-19 0 -28.5 14.5t-11 35.5t-10.5 46.5t-24 46.5t-55.5 35.5t-101.5 14.5q-86 0 -158.5 -34t-121 -90t-82.5 -129.5 t-49 -151t-15 -156.5q0 -112 29 -206.5t75.5 -156.5t106 -105t118.5 -62t115 -19q68 0 125 16.5t94 43t65.5 58t44.5 63.5t26.5 58.5t16.5 43t9 16.5q19 0 32 -75.5t13 -108.5q0 -157 -74.5 -264t-191.5 -162q-158 -106 -158 -166q0 -14 24 -28t53 -26.5t53 -42.5t24 -71 q0 -59 -50 -107.5t-124.5 -76t-148.5 -42t-132 -14.5q-73 0 -73 27q0 12 25.5 26t56 26t56 33.5t25.5 45.5q0 37 -24.5 62.5t-59 36.5t-69.5 17.5t-59.5 13t-24.5 15.5q0 25 89.5 97.5t182.5 123.5q-148 16 -266 93.5t-189.5 194.5t-109 256t-37.5 288z" />
<glyph unicode="&#xc8;" horiz-adv-x="1222" d="M102 483q0 227 65.5 724t106.5 497h807h13h18t18 -1t19 -3t15 -6t12 -10.5t4 -14.5q0 -17 -70 -160t-88 -143q-10 0 -33.5 15t-52 33t-85.5 33t-126 15q-55 0 -105.5 -16.5t-92.5 -49t-67.5 -88t-25.5 -126.5q0 -117 66 -117q25 0 85.5 24t141.5 48t156 24q29 0 60.5 -10 t31.5 -33q0 -10 -61.5 -173t-77.5 -163q-2 0 -67 20.5t-112 20.5q-42 0 -84.5 -15.5t-82 -46.5t-64.5 -87.5t-25 -128.5q0 -128 66.5 -205.5t191.5 -77.5q69 0 137 21t110 46.5t78.5 46.5t51.5 21q20 0 94 -172t74 -194q0 -11 -4.5 -18t-16 -9.5t-17 -3.5t-21.5 -0.5 t-17 0.5h-940q-60 -2 -72 39.5t-12 205.5q0 141 -2 238zM442 2177q0 17 9.5 28t28.5 15t32 5t37 0t26 -1q12 0 30.5 0.5t24 0t17 -1t15 -3.5t10.5 -7t12 -12t11 -17t14 -25l155 -291q25 -42 25 -53q0 -15 -27 -15q-44 -4 -118 47t-139.5 118.5t-114 130t-48.5 81.5z" />
<glyph unicode="&#xc9;" horiz-adv-x="1222" d="M102 483q0 227 65.5 724t106.5 497h807h13h18t18 -1t19 -3t15 -6t12 -10.5t4 -14.5q0 -17 -70 -160t-88 -143q-10 0 -33.5 15t-52 33t-85.5 33t-126 15q-55 0 -105.5 -16.5t-92.5 -49t-67.5 -88t-25.5 -126.5q0 -117 66 -117q25 0 85.5 24t141.5 48t156 24q29 0 60.5 -10 t31.5 -33q0 -10 -61.5 -173t-77.5 -163q-2 0 -67 20.5t-112 20.5q-42 0 -84.5 -15.5t-82 -46.5t-64.5 -87.5t-25 -128.5q0 -128 66.5 -205.5t191.5 -77.5q69 0 137 21t110 46.5t78.5 46.5t51.5 21q20 0 94 -172t74 -194q0 -11 -4.5 -18t-16 -9.5t-17 -3.5t-21.5 -0.5 t-17 0.5h-940q-60 -2 -72 39.5t-12 205.5q0 141 -2 238zM580 1815q0 13 24 53l156 291q8 14 12.5 22.5t10.5 16.5l9 12t10.5 7.5t10.5 4.5t13.5 2t17 0.5t22.5 -0.5h27q2 0 26 1t37 0t32 -5t28.5 -15t9.5 -28q0 -19 -48.5 -81.5t-114 -130t-139.5 -118.5t-118 -47 q-26 0 -26 15z" />
<glyph unicode="&#xca;" horiz-adv-x="1222" d="M102 483q0 227 65.5 724t106.5 497h807h13h18t18 -1t19 -3t15 -6t12 -10.5t4 -14.5q0 -17 -70 -160t-88 -143q-10 0 -33.5 15t-52 33t-85.5 33t-126 15q-55 0 -105.5 -16.5t-92.5 -49t-67.5 -88t-25.5 -126.5q0 -117 66 -117q25 0 85.5 24t141.5 48t156 24q29 0 60.5 -10 t31.5 -33q0 -10 -61.5 -173t-77.5 -163q-2 0 -67 20.5t-112 20.5q-42 0 -84.5 -15.5t-82 -46.5t-64.5 -87.5t-25 -128.5q0 -128 66.5 -205.5t191.5 -77.5q69 0 137 21t110 46.5t78.5 46.5t51.5 21q20 0 94 -172t74 -194q0 -11 -4.5 -18t-16 -9.5t-17 -3.5t-21.5 -0.5 t-17 0.5h-940q-60 -2 -72 39.5t-12 205.5q0 141 -2 238zM301 1882q0 25 45 70l205 219q41 43 55 51q23 12 68 12q43 0 71 -10.5t42 -22.5t53 -53l221 -219q26 -22 26 -39q0 -5 -37 -24.5t-86 -37.5t-75 -18q-8 0 -15.5 4t-17.5 14l-10 9l-123 121q-47 47 -61 47 q-24 0 -68 -51l-76 -82q-3 -3 -12 -12.5t-14 -14.5t-14 -12.5t-16 -11.5t-15.5 -7.5t-16.5 -3.5q-20 0 -74.5 25t-54.5 47z" />
<glyph unicode="&#xcb;" horiz-adv-x="1222" d="M102 483q0 227 65.5 724t106.5 497h807h13h18t18 -1t19 -3t15 -6t12 -10.5t4 -14.5q0 -17 -70 -160t-88 -143q-10 0 -33.5 15t-52 33t-85.5 33t-126 15q-55 0 -105.5 -16.5t-92.5 -49t-67.5 -88t-25.5 -126.5q0 -117 66 -117q25 0 85.5 24t141.5 48t156 24q29 0 60.5 -10 t31.5 -33q0 -10 -61.5 -173t-77.5 -163q-2 0 -67 20.5t-112 20.5q-42 0 -84.5 -15.5t-82 -46.5t-64.5 -87.5t-25 -128.5q0 -128 66.5 -205.5t191.5 -77.5q69 0 137 21t110 46.5t78.5 46.5t51.5 21q20 0 94 -172t74 -194q0 -11 -4.5 -18t-16 -9.5t-17 -3.5t-21.5 -0.5 t-17 0.5h-940q-60 -2 -72 39.5t-12 205.5q0 141 -2 238zM195 2009q0 76 52.5 120t129.5 44t129.5 -44t52.5 -120t-52.5 -120t-129.5 -44t-129.5 44t-52.5 120zM664 2009q0 76 52.5 120t129.5 44t129.5 -44t52.5 -120t-52.5 -120t-129.5 -44t-129.5 44t-52.5 120z" />
<glyph unicode="&#xcc;" horiz-adv-x="669" d="M43 2177q0 17 9.5 28t28.5 15t32 5t37 0t26 -1h27t22.5 0.5t17 -0.5t13.5 -2t10.5 -4.5t10.5 -7.5l9 -12t10.5 -16.5t12.5 -22.5l156 -291q24 -40 24 -53q0 -15 -26 -15q-44 -4 -118 47t-139.5 118.5t-114 130t-48.5 81.5zM127 729q0 957 125 975h16h221h12.5h15t14 -0.5 t14.5 -3t11 -6t8.5 -9.5t2.5 -14q0 -4 -11 -47.5t-27 -116t-32 -161.5t-27 -205.5t-11 -227.5q0 -147 10.5 -289.5t25.5 -243.5t30 -180t25.5 -125t10.5 -52q0 -23 -31 -23h-41h-249h-7q-20 -1 -30.5 4t-27.5 41.5t-25.5 109t-15.5 218t-7 356.5z" />
<glyph unicode="&#xcd;" horiz-adv-x="669" d="M127 729q0 957 125 975h16h221h12.5h15t14 -0.5t14.5 -3t11 -6t8.5 -9.5t2.5 -14q0 -4 -11 -47.5t-27 -116t-32 -161.5t-27 -205.5t-11 -227.5q0 -147 10.5 -289.5t25.5 -243.5t30 -180t25.5 -125t10.5 -52q0 -23 -31 -23h-41h-249h-7q-20 -1 -30.5 4t-27.5 41.5 t-25.5 109t-15.5 218t-7 356.5zM221 1815q0 11 25 53l155 291q8 16 14 25t11 17t12 12t10.5 7t15 3.5t17 1t24 0t30.5 -0.5q2 0 26 1t37 0t32 -5t28.5 -15t9.5 -28q0 -19 -48.5 -81.5t-114 -130t-139.5 -118.5t-118 -47q-27 0 -27 15z" />
<glyph unicode="&#xce;" horiz-adv-x="669" d="M-18 1882q0 25 45 70l204 219q41 43 55 51q23 12 68 12q43 0 71 -10.5t42 -22.5t53 -53l221 -219q27 -23 27 -39q0 -5 -37.5 -24.5t-86.5 -37.5t-75 -18q-8 0 -15.5 4t-17.5 14l-10 9l-123 121q-47 47 -61 47q-24 0 -68 -51l-75 -82q-3 -3 -12 -12.5t-14 -14.5t-14 -12.5 t-16 -11.5t-15.5 -7.5t-16.5 -3.5q-20 0 -74.5 25t-54.5 47zM127 729q0 957 125 975h16h221h12.5h15t14 -0.5t14.5 -3t11 -6t8.5 -9.5t2.5 -14q0 -4 -11 -47.5t-27 -116t-32 -161.5t-27 -205.5t-11 -227.5q0 -147 10.5 -289.5t25.5 -243.5t30 -180t25.5 -125t10.5 -52 q0 -23 -31 -23h-41h-249h-7q-20 -1 -30.5 4t-27.5 41.5t-25.5 109t-15.5 218t-7 356.5z" />
<glyph unicode="&#xcf;" horiz-adv-x="669" d="M-82 2009q0 76 52.5 120t129.5 44t130 -44t53 -120t-53 -120t-130 -44t-129.5 44t-52.5 120zM127 729q0 957 125 975h16h221h12.5h15t14 -0.5t14.5 -3t11 -6t8.5 -9.5t2.5 -14q0 -4 -11 -47.5t-27 -116t-32 -161.5t-27 -205.5t-11 -227.5q0 -147 10.5 -289.5t25.5 -243.5 t30 -180t25.5 -125t10.5 -52q0 -23 -31 -23h-41h-249h-7q-20 -1 -30.5 4t-27.5 41.5t-25.5 109t-15.5 218t-7 356.5zM387 2009q0 76 52.5 120t129.5 44t130 -44t53 -120t-53 -120t-130 -44t-129.5 44t-52.5 120z" />
<glyph unicode="&#xd0;" horiz-adv-x="1372" d="M-25 784v152q0 16 9 25.5t22 9.5h98q3 185 13 321t22.5 213.5t29.5 123.5t33 60.5t36 14.5h354q58 0 122.5 -17.5t135.5 -57.5t138 -97.5t128 -144t106 -191.5t72 -245.5t27 -299.5q0 -109 -20 -204t-64 -178t-110 -142t-163.5 -93t-218.5 -34h-528q-19 0 -34 7.5 t-27 27.5t-20.5 46.5t-14.5 72t-9.5 96t-6 127.5t-3 157.5t-0.5 194.5v21h-96q-13 0 -22 9t-9 25zM422 750q0 -126 15.5 -218t39 -142.5t59 -80.5t66.5 -38.5t70 -8.5q36 0 75.5 13t83.5 47.5t78.5 86t57 136.5t22.5 190q0 145 -28.5 269t-72.5 206t-98 141t-104 85t-92 26 q-75 0 -123.5 -107.5t-48.5 -285.5v-98h248q21 0 34.5 -10t26.5 -37l45 -103q12 -24 12 -41q0 -30 -45 -30h-321z" />
<glyph unicode="&#xd1;" horiz-adv-x="1452" d="M102 729q0 958 127 975h15h162q25 0 57 -22t83 -81.5t116 -155.5t156.5 -251.5t203.5 -362.5q1 -1 4 -7.5t5.5 -10t7 -8.5t9 -7.5t9.5 -2.5q4 0 7 4.5t5 13.5t3 18t1 22v22v21v15q0 169 -26 349.5t-52 295.5t-26 125q0 6 2.5 10.5t7.5 7t10.5 4t14.5 1.5t15 0.5t17 0 t17 -0.5h155q28 0 40 -9q102 -81 102 -966q0 -211 -7 -356.5t-15.5 -218t-25.5 -109t-27.5 -41.5t-30.5 -4h-3.5h-3.5h-215q-27 0 -42 7t-24.5 22t-17.5 45.5t-16 69.5t-25.5 101.5t-41 134t-67.5 176t-100 218.5q-16 33 -46 87.5t-74 131t-86.5 129t-65.5 52.5 q-14 0 -23 -22t-12 -61t-3.5 -69.5t0.5 -71t1 -41.5q0 -198 13 -367t29 -258t29 -162.5t13 -103.5q0 -8 -4 -12.5t-11.5 -5.5t-13.5 -1.5t-15.5 0.5t-12.5 1h-191h-7q-20 -1 -30.5 4t-27.5 41.5t-25.5 109t-15.5 218t-7 356.5zM307 1933q0 36 16.5 76t47 77.5t82.5 62 t114 24.5q77 0 156 -33q4 -2 26 -10.5t28 -10.5t25.5 -9.5t27.5 -10t25 -7.5t28 -7t25.5 -5t27 -4t25.5 -1q34 0 57 8.5t32.5 21t15.5 25t13.5 21t18.5 8.5q26 0 37.5 -8.5t11.5 -18.5q0 -9 -4 -29.5t-22 -61t-47 -74t-89 -59.5t-139 -26q-90 0 -223 49q-124 47 -170 47 q-28 0 -46 -11.5t-23 -25t-8.5 -25t-6.5 -11.5h-9.5h-11.5t-11.5 0.5t-11.5 2.5t-9 5t-7 8t-2 12z" />
<glyph unicode="&#xd2;" horiz-adv-x="1458" d="M51 621q0 196 53 395.5t141.5 358.5t216.5 259.5t267 100.5t267 -100.5t216.5 -259.5t141.5 -358.5t53 -395.5q0 -137 -32.5 -252t-99.5 -206t-180.5 -142.5t-263.5 -51.5h-204q-150 0 -263.5 51.5t-180.5 142.5t-99.5 206t-32.5 252zM377 2177q0 17 9.5 28t28.5 15t32 5 t37 0t26 -1h27t22.5 0.5t17 -0.5t13.5 -2t10.5 -4.5t10.5 -7.5l9 -12t10.5 -16.5t12.5 -22.5l156 -291q24 -40 24 -53q0 -15 -26 -15q-44 -4 -118 47t-139.5 118.5t-114 130t-48.5 81.5zM383 666q0 -174 88.5 -253t257.5 -79t257.5 79t88.5 253q0 162 -34.5 305t-87 234.5 t-112 144.5t-112.5 53t-112.5 -53t-112 -144.5t-87 -234.5t-34.5 -305z" />
<glyph unicode="&#xd3;" horiz-adv-x="1458" d="M51 621q0 196 53 395.5t141.5 358.5t216.5 259.5t267 100.5t267 -100.5t216.5 -259.5t141.5 -358.5t53 -395.5q0 -137 -32.5 -252t-99.5 -206t-180.5 -142.5t-263.5 -51.5h-204q-150 0 -263.5 51.5t-180.5 142.5t-99.5 206t-32.5 252zM383 666q0 -174 88.5 -253 t257.5 -79t257.5 79t88.5 253q0 162 -34.5 305t-87 234.5t-112 144.5t-112.5 53t-112.5 -53t-112 -144.5t-87 -234.5t-34.5 -305zM575 1815q0 11 25 53l156 291q8 14 12.5 22.5t10.5 16.5l9 12t10.5 7.5t10.5 4.5t13.5 2t17 0.5t22.5 -0.5h27q2 0 26 1t37 0t32 -5t28.5 -15 t9.5 -28q0 -19 -48.5 -81.5t-114 -130t-139.5 -118.5t-118 -47q-27 0 -27 15z" />
<glyph unicode="&#xd4;" horiz-adv-x="1458" d="M51 621q0 196 53 395.5t141.5 358.5t216.5 259.5t267 100.5t267 -100.5t216.5 -259.5t141.5 -358.5t53 -395.5q0 -137 -32.5 -252t-99.5 -206t-180.5 -142.5t-263.5 -51.5h-204q-150 0 -263.5 51.5t-180.5 142.5t-99.5 206t-32.5 252zM377 1882q0 25 45 70l205 219 q41 43 55 51q23 12 68 12q33 0 52.5 -3t42 -18.5t30 -23t40.5 -41.5l222 -219q26 -22 26 -39q0 -5 -37 -24.5t-86 -37.5t-75 -18q-8 0 -15.5 4t-17.5 14l-10 9l-123 121q-47 47 -62 47q-23 0 -67 -51l-76 -82q-3 -3 -12 -12.5t-14 -14.5t-14 -12.5t-16 -11.5t-15.5 -7.5 t-16.5 -3.5q-20 0 -74.5 25t-54.5 47zM383 666q0 -174 88.5 -253t257.5 -79t257.5 79t88.5 253q0 162 -34.5 305t-87 234.5t-112 144.5t-112.5 53t-112.5 -53t-112 -144.5t-87 -234.5t-34.5 -305z" />
<glyph unicode="&#xd5;" horiz-adv-x="1458" d="M51 621q0 196 53 395.5t141.5 358.5t216.5 259.5t267 100.5t267 -100.5t216.5 -259.5t141.5 -358.5t53 -395.5q0 -137 -32.5 -252t-99.5 -206t-180.5 -142.5t-263.5 -51.5h-204q-150 0 -263.5 51.5t-180.5 142.5t-99.5 206t-32.5 252zM309 1933q0 36 16.5 76t47 77.5 t82.5 62t114 24.5q77 0 156 -33q4 -2 26 -10.5t28 -10.5t25.5 -9.5t27.5 -10t25 -7.5t28 -7t25.5 -5t27 -4t25.5 -1q34 0 57 8.5t32.5 21t15.5 25t13.5 21t18.5 8.5q26 0 37.5 -8.5t11.5 -18.5q0 -9 -4 -29.5t-22 -61t-47 -74t-89 -59.5t-139 -26q-90 0 -223 49 q-124 47 -170 47q-28 0 -46 -11.5t-23 -25t-8.5 -25t-6.5 -11.5h-9.5h-11.5t-11.5 0.5t-11.5 2.5t-9 5t-7 8t-2 12zM383 666q0 -174 88.5 -253t257.5 -79t257.5 79t88.5 253q0 162 -34.5 305t-87 234.5t-112 144.5t-112.5 53t-112.5 -53t-112 -144.5t-87 -234.5t-34.5 -305z " />
<glyph unicode="&#xd6;" horiz-adv-x="1458" d="M51 621q0 196 53 395.5t141.5 358.5t216.5 259.5t267 100.5t267 -100.5t216.5 -259.5t141.5 -358.5t53 -395.5q0 -137 -32.5 -252t-99.5 -206t-180.5 -142.5t-263.5 -51.5h-204q-150 0 -263.5 51.5t-180.5 142.5t-99.5 206t-32.5 252zM334 2009q0 76 52.5 120t129.5 44 t129.5 -44t52.5 -120t-52.5 -120t-129.5 -44t-129.5 44t-52.5 120zM383 666q0 -174 88.5 -253t257.5 -79t257.5 79t88.5 253q0 162 -34.5 305t-87 234.5t-112 144.5t-112.5 53t-112.5 -53t-112 -144.5t-87 -234.5t-34.5 -305zM803 2009q0 76 52.5 120t129.5 44t129.5 -44 t52.5 -120t-52.5 -120t-129.5 -44t-129.5 44t-52.5 120z" />
<glyph unicode="&#xd7;" d="M76 207l395 444l-385 443l137 127l377 -430l365 432l135 -125l-391 -445l389 -446l-140 -123l-372 432l-371 -430z" />
<glyph unicode="&#xd8;" horiz-adv-x="1458" d="M-33 -37q0 12 3.5 23.5t6 16.5t10.5 15.5t9 12.5l149 186q-94 178 -94 404q0 196 53 395.5t141.5 358.5t216.5 259.5t267 100.5q115 0 227 -68.5t205 -202.5l135 166q33 45 53 58q20 12 40 12q29 0 50 -19t21 -49q0 -12 -5 -25t-9 -18.5t-15.5 -20t-13.5 -16.5l-178 -223 q75 -146 121.5 -330.5t46.5 -377.5q0 -137 -32.5 -252t-99.5 -206t-180.5 -142.5t-263.5 -51.5h-204h-9q-197 -2 -376 125l-125 -151q0 -1 -5.5 -7.5t-7 -8.5t-7 -8t-8.5 -9t-8.5 -7.5t-10 -6.5t-10 -3.5t-11.5 -1.5q-33 0 -57.5 20.5t-24.5 51.5zM383 666q0 -35 14 -154 l559 700q-44 76 -103.5 133.5t-123.5 57.5q-53 0 -113 -53t-113 -144.5t-87 -235t-33 -304.5zM487 395q77 -61 242 -61q169 0 257.5 79t88.5 253q0 205 -55 393z" />
<glyph unicode="&#xd9;" horiz-adv-x="1378" d="M68 879q0 186 8.5 336t20.5 238.5t27 147.5t27 81t21 22h285q14 0 21.5 -1t15.5 -7t8 -19q0 -11 -16 -70t-35.5 -137t-35.5 -222.5t-16 -305.5q0 -134 18.5 -241.5t48 -174t68.5 -111.5t77 -63t77 -18q28 0 50.5 3t57.5 16t62.5 35.5t57.5 67t50 104.5t33 153t13 209 q0 149 -10.5 277.5t-25 209t-29.5 138.5t-25.5 90t-10.5 40q0 7 3 12t9.5 8t12.5 4.5t15 2t14.5 1t13.5 0t10 -0.5h201q11 0 20 -3.5t22 -20.5t23 -46.5t21 -87.5t18.5 -137t12 -201t4.5 -274q0 -965 -623 -965q-295 0 -457.5 230t-162.5 680zM336 2177q0 17 9.5 28t28.5 15 t32 5t37 0t26 -1h27t22.5 0.5t17 -0.5t13.5 -2t10.5 -4.5t10.5 -7.5l9 -12t10.5 -16.5t12.5 -22.5l156 -291q24 -40 24 -53q0 -15 -26 -15q-44 -4 -118 47t-139.5 118.5t-114 130t-48.5 81.5z" />
<glyph unicode="&#xda;" horiz-adv-x="1378" d="M68 879q0 186 8.5 336t20.5 238.5t27 147.5t27 81t21 22h285q14 0 21.5 -1t15.5 -7t8 -19q0 -11 -16 -70t-35.5 -137t-35.5 -222.5t-16 -305.5q0 -134 18.5 -241.5t48 -174t68.5 -111.5t77 -63t77 -18q28 0 50.5 3t57.5 16t62.5 35.5t57.5 67t50 104.5t33 153t13 209 q0 149 -10.5 277.5t-25 209t-29.5 138.5t-25.5 90t-10.5 40q0 7 3 12t9.5 8t12.5 4.5t15 2t14.5 1t13.5 0t10 -0.5h201q11 0 20 -3.5t22 -20.5t23 -46.5t21 -87.5t18.5 -137t12 -201t4.5 -274q0 -965 -623 -965q-295 0 -457.5 230t-162.5 680zM596 1815q0 11 25 53l155 291 q8 14 12.5 22.5t10.5 16.5l9 12t10.5 7.5t10.5 4.5t13.5 2t17 0.5t22.5 -0.5h27q2 0 26 1t37 0t32 -5t28.5 -15t9.5 -28q0 -26 -77.5 -119.5t-181 -178t-160.5 -79.5q-27 0 -27 15z" />
<glyph unicode="&#xdb;" horiz-adv-x="1378" d="M68 879q0 186 8.5 336t20.5 238.5t27 147.5t27 81t21 22h285q14 0 21.5 -1t15.5 -7t8 -19q0 -11 -16 -70t-35.5 -137t-35.5 -222.5t-16 -305.5q0 -134 18.5 -241.5t48 -174t68.5 -111.5t77 -63t77 -18q28 0 50.5 3t57.5 16t62.5 35.5t57.5 67t50 104.5t33 153t13 209 q0 149 -10.5 277.5t-25 209t-29.5 138.5t-25.5 90t-10.5 40q0 7 3 12t9.5 8t12.5 4.5t15 2t14.5 1t13.5 0t10 -0.5h201q11 0 20 -3.5t22 -20.5t23 -46.5t21 -87.5t18.5 -137t12 -201t4.5 -274q0 -965 -623 -965q-295 0 -457.5 230t-162.5 680zM297 1882q0 25 45 70l205 219 q41 43 55 51q23 12 68 12q43 0 71 -10.5t42 -22.5t53 -53l221 -219q26 -22 26 -39q0 -5 -37 -24.5t-86 -37.5t-75 -18q-8 0 -15.5 4t-17.5 14l-10 9l-123 121q-47 47 -62 47q-23 0 -67 -51l-76 -82q-3 -3 -12 -12.5t-14 -14.5t-14 -12.5t-16 -11.5t-15.5 -7.5t-16.5 -3.5 q-20 0 -74.5 25t-54.5 47z" />
<glyph unicode="&#xdc;" horiz-adv-x="1378" d="M68 879q0 186 8.5 336t20.5 238.5t27 147.5t27 81t21 22h285q14 0 21.5 -1t15.5 -7t8 -19q0 -11 -16 -70t-35.5 -137t-35.5 -222.5t-16 -305.5q0 -134 18.5 -241.5t48 -174t68.5 -111.5t77 -63t77 -18q28 0 50.5 3t57.5 16t62.5 35.5t57.5 67t50 104.5t33 153t13 209 q0 149 -10.5 277.5t-25 209t-29.5 138.5t-25.5 90t-10.5 40q0 7 3 12t9.5 8t12.5 4.5t15 2t14.5 1t13.5 0t10 -0.5h201q11 0 20 -3.5t22 -20.5t23 -46.5t21 -87.5t18.5 -137t12 -201t4.5 -274q0 -965 -623 -965q-295 0 -457.5 230t-162.5 680zM272 2009q0 76 53 120t130 44 t129.5 -44t52.5 -120t-52.5 -120t-129.5 -44t-130 44t-53 120zM741 2009q0 76 53 120t130 44t129.5 -44t52.5 -120t-52.5 -120t-129.5 -44t-130 44t-53 120z" />
<glyph unicode="&#xdd;" horiz-adv-x="1318" d="M33 1548q0 58 5 89.5t22.5 46.5t35 17.5t58.5 2.5h163h7q22 0 35.5 -1t33.5 -5t30.5 -16t10.5 -31q0 -6 -9 -73t-9 -87q0 -103 32 -209.5t76 -180t87 -120.5t67 -47q23 0 71 55.5t97.5 136t87 185t37.5 190.5q0 39 -9.5 102.5t-9.5 65.5q0 10 4.5 17.5t10 11t16 5t16.5 2 t19 0t16 -0.5h154q60 0 79 -23.5t19 -85.5q0 -131 -30 -247t-77.5 -205.5t-105 -174.5t-115.5 -170t-105.5 -174.5t-77.5 -206t-30 -247.5q0 -23 6.5 -66.5t6.5 -64.5q0 -14 -8 -23t-24 -12t-26 -3.5t-29 -0.5h-7h-238q-36 0 -50 37.5t-14 81.5q0 84 21.5 170.5t47.5 142.5 t47.5 107t21.5 73q0 14 -26 45.5t-67 77t-90.5 104.5t-99.5 136t-91 162t-67 192.5t-26 218.5zM608 1815q0 11 25 53l155 291q8 16 14 25t11 17t12 12t10.5 7t15 3.5t17 1t24 0t30.5 -0.5q2 0 26 1t37 0t32 -5t28.5 -15t9.5 -28q0 -19 -48.5 -81.5t-114 -130t-139.5 -118.5 t-118 -47q-27 0 -27 15z" />
<glyph unicode="&#xde;" horiz-adv-x="1277" d="M158 700v293q0 711 96 711h289q28 0 28 -21q0 -8 -4 -32l-37 -197q66 -4 101 -4q49 0 147.5 4t147.5 4q144 0 247 -100t103 -271q0 -90 -27.5 -169t-84 -150.5t-122.5 -130.5t-163 -131l-289 -213q-31 -21 -31 -51q0 -32 8 -64l27 -104q8 -40 8 -51q0 -23 -55 -23h-318 q-33 0 -39 43q-11 75 -21.5 268t-10.5 389zM489 993q0 -47 3 -114l12 -209q3 -45 11 -63.5t30 -18.5q16 0 63.5 27.5t107.5 74t116 101t94.5 117t38.5 112.5q0 176 -213 176q-77 0 -129.5 -14t-81 -42.5t-40.5 -63.5t-12 -83z" />
<glyph unicode="&#xdf;" horiz-adv-x="1140" d="M102 831q0 363 24.5 517t82.5 245q116 185 332 185q146 0 253 -99.5t107 -257.5q0 -65 -15 -117.5t-36 -82.5t-42.5 -51t-36.5 -33.5t-15 -18.5q0 -4 19.5 -16.5t50 -35t68 -55.5t75 -86t68 -117t50 -157.5t19.5 -199.5q0 -108 -24 -194t-62 -139t-88.5 -87.5t-99.5 -48 t-99 -13.5q-76 0 -150.5 43.5t-74.5 75.5q0 21 68 140.5t88 119.5q8 0 31.5 -15.5t41.5 -15.5q70 0 70 142q0 106 -26.5 211t-64 176.5t-78 116.5t-69.5 45q-14 0 -39.5 -19.5t-29.5 -19.5q-31 0 -31 102q0 64 9.5 97t22.5 42.5t42 16.5q44 11 74 54t30 103q0 47 -26 82 t-74 35q-21 0 -33.5 -2t-32.5 -13.5t-32.5 -33.5t-27 -66t-23 -106.5t-14 -159.5t-5.5 -221q0 -170 19 -373t38 -338t19 -141q0 -27 -14.5 -37t-67.5 -10h-150q-43 0 -53 5q-34 15 -48 121q-20 154 -20 705z" />
<glyph unicode="&#xe0;" horiz-adv-x="1064" d="M68 377q0 93 43 177t113 143.5t154.5 99.5t172.5 55q27 5 42 9t32 13t24.5 25.5t7.5 40.5q0 73 -61.5 116.5t-136.5 43.5q-49 0 -85.5 -13t-55 -32.5t-32 -42.5t-19 -42.5t-13.5 -32.5t-18 -13q-51 0 -94.5 51.5t-43.5 116.5q0 110 106 179.5t253 69.5q347 0 450 -284 q19 -53 31 -249.5t14 -329t2 -218.5q0 -48 8.5 -114t8.5 -99q0 -29 -100.5 -38t-274.5 -9q-102 0 -184.5 15t-136.5 38t-94 57t-61 66.5t-33.5 72.5t-15.5 68t-3 60zM242 1782q0 17 9.5 28t28.5 15t32 5t37 0t26 -1q10 0 29.5 0.5t24.5 0t17 -1t15 -4t10.5 -7t12 -12 t10 -17.5t14.5 -25l156 -290q24 -40 24 -54t-26 -14q-44 -4 -118 47t-139.5 118.5t-114 130t-48.5 81.5zM344 424q0 -83 61.5 -132.5t147.5 -49.5q44 0 70.5 10t38 34.5t14 48t2.5 68.5v91q0 6 0.5 27t0 28.5t-2 25.5t-4.5 25t-9.5 19.5t-15.5 17.5t-23 9.5t-32 4.5 q-93 0 -170.5 -68t-77.5 -159z" />
<glyph unicode="&#xe1;" horiz-adv-x="1064" d="M68 377q0 93 43 177t113 143.5t154.5 99.5t172.5 55q27 5 42 9t32 13t24.5 25.5t7.5 40.5q0 73 -61.5 116.5t-136.5 43.5q-49 0 -85.5 -13t-55 -32.5t-32 -42.5t-19 -42.5t-13.5 -32.5t-18 -13q-51 0 -94.5 51.5t-43.5 116.5q0 110 106 179.5t253 69.5q347 0 450 -284 q19 -53 31 -249.5t14 -329t2 -218.5q0 -48 8.5 -114t8.5 -99q0 -29 -100.5 -38t-274.5 -9q-102 0 -184.5 15t-136.5 38t-94 57t-61 66.5t-33.5 72.5t-15.5 68t-3 60zM344 424q0 -83 61.5 -132.5t147.5 -49.5q44 0 70.5 10t38 34.5t14 48t2.5 68.5v91q0 6 0.5 27t0 28.5 t-2 25.5t-4.5 25t-9.5 19.5t-15.5 17.5t-23 9.5t-32 4.5q-93 0 -170.5 -68t-77.5 -159zM440 1419q0 12 25 54l156 290q9 16 14.5 25t10 17.5t12 12t10.5 7t15 4t17 1t24.5 0t29.5 -0.5q2 0 26 1t37 0t32 -5t28.5 -15t9.5 -28q0 -19 -48.5 -81.5t-114 -130t-139.5 -118.5 t-118 -47q-27 0 -27 14z" />
<glyph unicode="&#xe2;" horiz-adv-x="1064" d="M68 377q0 93 43 177t113 143.5t154.5 99.5t172.5 55q27 5 42 9t32 13t24.5 25.5t7.5 40.5q0 73 -61.5 116.5t-136.5 43.5q-49 0 -85.5 -13t-55 -32.5t-32 -42.5t-19 -42.5t-13.5 -32.5t-18 -13q-51 0 -94.5 51.5t-43.5 116.5q0 110 106 179.5t253 69.5q347 0 450 -284 q19 -53 31 -249.5t14 -329t2 -218.5q0 -48 8.5 -114t8.5 -99q0 -29 -100.5 -38t-274.5 -9q-102 0 -184.5 15t-136.5 38t-94 57t-61 66.5t-33.5 72.5t-15.5 68t-3 60zM119 1487q0 24 45 69l205 220q41 43 55 51q23 12 68 12q33 0 52.5 -3t42 -18.5t30 -23t40.5 -41.5 l222 -219q26 -22 26 -39q0 -5 -37 -24.5t-86 -37.5t-75 -18q-8 0 -15.5 4t-17.5 13l-10 10l-123 121q-47 47 -62 47q-23 0 -67 -51l-76 -82q-3 -3 -12 -12.5t-14 -14.5t-14 -12.5t-16 -11.5t-15.5 -7.5t-16.5 -3.5q-20 0 -74.5 25t-54.5 47zM344 424q0 -83 61.5 -132.5 t147.5 -49.5q44 0 70.5 10t38 34.5t14 48t2.5 68.5v91q0 6 0.5 27t0 28.5t-2 25.5t-4.5 25t-9.5 19.5t-15.5 17.5t-23 9.5t-32 4.5q-93 0 -170.5 -68t-77.5 -159z" />
<glyph unicode="&#xe3;" horiz-adv-x="1064" d="M68 377q0 93 43 177t113 143.5t154.5 99.5t172.5 55q27 5 42 9t32 13t24.5 25.5t7.5 40.5q0 73 -61.5 116.5t-136.5 43.5q-49 0 -85.5 -13t-55 -32.5t-32 -42.5t-19 -42.5t-13.5 -32.5t-18 -13q-51 0 -94.5 51.5t-43.5 116.5q0 110 106 179.5t253 69.5q347 0 450 -284 q19 -53 31 -249.5t14 -329t2 -218.5q0 -48 8.5 -114t8.5 -99q0 -29 -100.5 -38t-274.5 -9q-102 0 -184.5 15t-136.5 38t-94 57t-61 66.5t-33.5 72.5t-15.5 68t-3 60zM113 1538q0 36 16.5 76t47 77.5t82.5 62t114 24.5q76 0 155 -33q8 -3 29.5 -11.5t31 -12t29 -11 t30.5 -10.5t29 -8t31 -7t28.5 -4t29.5 -2q34 0 57 8.5t32.5 21t15.5 25t13.5 21t18.5 8.5q26 0 37.5 -8t11.5 -18q0 -9 -4 -29.5t-22 -61t-47 -74t-89 -59.5t-139 -26q-90 0 -223 49q-124 47 -170 47q-36 0 -54.5 -18.5t-23 -37t-6.5 -18.5h-8h-10t-10 0.5t-10.5 1.5t-8.5 3 t-7.5 5.5t-4.5 8t-2 10.5zM344 424q0 -83 61.5 -132.5t147.5 -49.5q44 0 70.5 10t38 34.5t14 48t2.5 68.5v91q0 6 0.5 27t0 28.5t-2 25.5t-4.5 25t-9.5 19.5t-15.5 17.5t-23 9.5t-32 4.5q-93 0 -170.5 -68t-77.5 -159z" />
<glyph unicode="&#xe4;" horiz-adv-x="1064" d="M68 377q0 93 43 177t113 143.5t154.5 99.5t172.5 55q27 5 42 9t32 13t24.5 25.5t7.5 40.5q0 73 -61.5 116.5t-136.5 43.5q-49 0 -85.5 -13t-55 -32.5t-32 -42.5t-19 -42.5t-13.5 -32.5t-18 -13q-51 0 -94.5 51.5t-43.5 116.5q0 110 106 179.5t253 69.5q347 0 450 -284 q19 -53 31 -249.5t14 -329t2 -218.5q0 -48 8.5 -114t8.5 -99q0 -29 -100.5 -38t-274.5 -9q-102 0 -184.5 15t-136.5 38t-94 57t-61 66.5t-33.5 72.5t-15.5 68t-3 60zM117 1614q0 76 52.5 120t129.5 44t129.5 -44t52.5 -120t-52.5 -120t-129.5 -44t-129.5 44t-52.5 120z M344 424q0 -83 61.5 -132.5t147.5 -49.5q44 0 70.5 10t38 34.5t14 48t2.5 68.5v91q0 6 0.5 27t0 28.5t-2 25.5t-4.5 25t-9.5 19.5t-15.5 17.5t-23 9.5t-32 4.5q-93 0 -170.5 -68t-77.5 -159zM586 1614q0 76 52.5 120t129.5 44t129.5 -44t52.5 -120t-52.5 -120t-129.5 -44 t-129.5 44t-52.5 120z" />
<glyph unicode="&#xe5;" horiz-adv-x="1064" d="M68 377q0 93 43 177t113 143.5t154.5 99.5t172.5 55q27 5 42 9t32 13t24.5 25.5t7.5 40.5q0 73 -61.5 116.5t-136.5 43.5q-49 0 -85.5 -13t-55 -32.5t-32 -42.5t-19 -42.5t-13.5 -32.5t-18 -13q-51 0 -94.5 51.5t-43.5 116.5q0 110 106 179.5t253 69.5q347 0 450 -284 q19 -53 31 -249.5t14 -329t2 -218.5q0 -48 8.5 -114t8.5 -99q0 -29 -100.5 -38t-274.5 -9q-102 0 -184.5 15t-136.5 38t-94 57t-61 66.5t-33.5 72.5t-15.5 68t-3 60zM260 1626q0 96 71.5 165t176.5 69q109 0 182.5 -67t73.5 -169q0 -97 -73.5 -167.5t-178.5 -70.5 q-107 0 -179.5 70t-72.5 170zM344 424q0 -83 61.5 -132.5t147.5 -49.5q44 0 70.5 10t38 34.5t14 48t2.5 68.5v91q0 6 0.5 27t0 28.5t-2 25.5t-4.5 25t-9.5 19.5t-15.5 17.5t-23 9.5t-32 4.5q-93 0 -170.5 -68t-77.5 -159zM408 1626q0 -47 28 -80t76 -33t76 33t28 82 q0 43 -31.5 74t-74.5 31q-42 0 -72 -32t-30 -75z" />
<glyph unicode="&#xe6;" horiz-adv-x="1681" d="M68 377q0 93 43 177t113 143.5t154.5 99.5t172.5 55q27 5 42 9t32 13t24.5 25.5t7.5 40.5q0 73 -61.5 116.5t-136.5 43.5q-49 0 -85.5 -13t-55 -32.5t-32 -42.5t-19 -42.5t-13.5 -32.5t-18 -13q-51 0 -94.5 51.5t-43.5 116.5q0 110 106 179.5t253 69.5q252 0 387 -167 q66 76 156.5 121.5t197.5 45.5q115 0 208 -40.5t150.5 -125.5t57.5 -202q0 -89 -36.5 -157.5t-94.5 -109t-128.5 -71t-141 -52t-128.5 -43.5t-94.5 -53.5t-36.5 -74.5q0 -67 86.5 -116.5t171.5 -49.5q69 0 124.5 14t90 36.5t60.5 50t40 55t23.5 50t15.5 36.5t11 14 q20 0 28.5 -46t8.5 -77q0 -189 -128 -299.5t-319 -110.5q-158 0 -276 94q-2 -3 -7.5 -14t-9.5 -14t-17 -11t-34 -10.5t-55 -6.5t-86.5 -5.5t-122.5 -1.5q-119 0 -207 19.5t-141.5 52t-86 82t-44.5 102.5t-12 121zM344 424q0 -83 61.5 -132.5t147.5 -49.5q44 0 70.5 10 t38 34.5t14 48t2.5 68.5v91q0 6 0.5 27t0 28.5t-2 25.5t-4.5 25t-9.5 19.5t-15.5 17.5t-23 9.5t-32 4.5q-93 0 -170.5 -68t-77.5 -159zM926 803q0 -45 37 -45q22 0 113 23.5t187.5 69.5t96.5 93q0 70 -54 113t-118 43q-59 0 -110.5 -29.5t-83.5 -74.5t-50 -96t-18 -97z" />
<glyph unicode="&#xe7;" horiz-adv-x="999" d="M43 590q0 108 21.5 213.5t68 203t113 171.5t164.5 118.5t215 44.5q132 0 219.5 -62t87.5 -151q0 -55 -34.5 -117.5t-86.5 -62.5q-12 0 -22.5 15.5t-22.5 38t-29 45t-51 38t-80 15.5q-75 0 -133 -45.5t-90 -116.5t-48 -145t-16 -144q0 -158 74.5 -261t214.5 -103 q62 0 113 21t80.5 50.5t50 59t32 50.5t15.5 21q6 0 12.5 -11.5t12.5 -40.5t6 -68q0 -114 -44.5 -201t-127.5 -137q-5 -5 -38 -30t-53 -49t-20 -48q0 -14 24 -28t53 -26.5t53 -42.5t24 -71q0 -59 -50 -107.5t-124.5 -76t-148.5 -42t-132 -14.5q-74 0 -74 27q0 12 25.5 26 t56.5 26t56.5 33.5t25.5 45.5q0 37 -24.5 62.5t-59 36.5t-69.5 17.5t-59.5 13t-24.5 15.5q0 21 65 79t146 108q-93 24 -165 85t-115 145t-65 179.5t-22 196.5z" />
<glyph unicode="&#xe8;" horiz-adv-x="1075" d="M43 600q0 179 47 324t125.5 234t175 136t201.5 47q115 0 208 -40.5t150.5 -125.5t57.5 -202q0 -89 -36.5 -157.5t-94.5 -109t-128.5 -71t-141 -52t-128.5 -43.5t-94.5 -53.5t-36.5 -74.5q0 -67 86.5 -116.5t171.5 -49.5q69 0 124.5 14t90 36.5t60.5 50t40 55t23.5 50 t15.5 36.5t11 14q20 0 28.5 -46t8.5 -77q0 -189 -128 -299.5t-319 -110.5q-133 0 -235 52t-162.5 141.5t-90.5 200t-30 237.5zM307 1782q0 17 9.5 28t28.5 15t32 5t37 0t26 -1q10 0 29.5 0.5t24.5 0t17 -1t15 -4t10.5 -7t12 -12t10 -17.5t14.5 -25l156 -290q25 -42 25 -54 q0 -14 -27 -14q-44 -4 -118 47t-139.5 118.5t-114 130t-48.5 81.5zM319 803q0 -45 37 -45q13 0 73.5 15t134.5 38.5t132 60t58 72.5q0 70 -54 113t-118 43q-78 0 -140.5 -50.5t-92.5 -117t-30 -129.5z" />
<glyph unicode="&#xe9;" horiz-adv-x="1075" d="M43 600q0 179 47 324t125.5 234t175 136t201.5 47q115 0 208 -40.5t150.5 -125.5t57.5 -202q0 -89 -36.5 -157.5t-94.5 -109t-128.5 -71t-141 -52t-128.5 -43.5t-94.5 -53.5t-36.5 -74.5q0 -67 86.5 -116.5t171.5 -49.5q69 0 124.5 14t90 36.5t60.5 50t40 55t23.5 50 t15.5 36.5t11 14q20 0 28.5 -46t8.5 -77q0 -189 -128 -299.5t-319 -110.5q-133 0 -235 52t-162.5 141.5t-90.5 200t-30 237.5zM319 803q0 -45 37 -45q13 0 73.5 15t134.5 38.5t132 60t58 72.5q0 70 -54 113t-118 43q-78 0 -140.5 -50.5t-92.5 -117t-30 -129.5zM444 1419 q0 12 25 54l156 290q9 16 14.5 25t10 17.5t12 12t10.5 7t15 4t17 1t24.5 0t29.5 -0.5q2 0 26 1t37 0t32 -5t28.5 -15t9.5 -28q0 -19 -48.5 -81.5t-114 -130t-139.5 -118.5t-118 -47q-27 0 -27 14z" />
<glyph unicode="&#xea;" horiz-adv-x="1075" d="M43 600q0 179 47 324t125.5 234t175 136t201.5 47q115 0 208 -40.5t150.5 -125.5t57.5 -202q0 -89 -36.5 -157.5t-94.5 -109t-128.5 -71t-141 -52t-128.5 -43.5t-94.5 -53.5t-36.5 -74.5q0 -67 86.5 -116.5t171.5 -49.5q69 0 124.5 14t90 36.5t60.5 50t40 55t23.5 50 t15.5 36.5t11 14q20 0 28.5 -46t8.5 -77q0 -189 -128 -299.5t-319 -110.5q-133 0 -235 52t-162.5 141.5t-90.5 200t-30 237.5zM145 1487q0 24 45 69l205 220q41 43 55 51q22 12 68 12q43 0 71 -10.5t42 -22.5t53 -53l221 -219q27 -22 27 -39q0 -5 -37.5 -24.5t-86.5 -37.5 t-75 -18q-8 0 -15.5 4t-17.5 13l-10 10l-123 121q-47 47 -61 47q-24 0 -68 -51l-76 -82q-3 -3 -12 -12.5t-14 -14.5t-14 -12.5t-16 -11.5t-15.5 -7.5t-16.5 -3.5q-20 0 -74.5 25t-54.5 47zM319 803q0 -45 37 -45q13 0 73.5 15t134.5 38.5t132 60t58 72.5q0 70 -54 113 t-118 43q-78 0 -140.5 -50.5t-92.5 -117t-30 -129.5z" />
<glyph unicode="&#xeb;" horiz-adv-x="1075" d="M43 600q0 179 47 324t125.5 234t175 136t201.5 47q115 0 208 -40.5t150.5 -125.5t57.5 -202q0 -89 -36.5 -157.5t-94.5 -109t-128.5 -71t-141 -52t-128.5 -43.5t-94.5 -53.5t-36.5 -74.5q0 -67 86.5 -116.5t171.5 -49.5q69 0 124.5 14t90 36.5t60.5 50t40 55t23.5 50 t15.5 36.5t11 14q20 0 28.5 -46t8.5 -77q0 -189 -128 -299.5t-319 -110.5q-133 0 -235 52t-162.5 141.5t-90.5 200t-30 237.5zM121 1614q0 76 52.5 120t129.5 44t129.5 -44t52.5 -120t-52.5 -120t-129.5 -44t-129.5 44t-52.5 120zM319 803q0 -45 37 -45q13 0 73.5 15 t134.5 38.5t132 60t58 72.5q0 70 -54 113t-118 43q-78 0 -140.5 -50.5t-92.5 -117t-30 -129.5zM590 1614q0 76 52.5 120t129.5 44t129.5 -44t52.5 -120t-52.5 -120t-129.5 -44t-129.5 44t-52.5 120z" />
<glyph unicode="&#xec;" horiz-adv-x="544" d="M-18 1782q0 17 9.5 28t28.5 15t32 5t37 0t26 -1q10 0 29.5 0.5t24.5 0t17 -1t15 -4t10.5 -7t12 -12t10 -17.5t14.5 -25l155 -290q25 -42 25 -54q0 -14 -27 -14q-57 -5 -160.5 79.5t-181 178t-77.5 119.5zM94 678q0 137 1.5 237.5t5 169.5t9 113.5t12 68t15.5 34t19 11.5 t23 0q3 0 5 -0.5t5 -0.5h6h112q61 0 74.5 -5.5t13.5 -25.5t-12 -132.5t-12 -242.5q0 -144 8 -283t20 -236t24 -172t20 -117t8 -44q0 -16 -5.5 -27t-12 -16.5t-20 -8t-21.5 -2.5t-26 0.5t-24 0.5h-139h-16q-40 -1 -53 12q-27 26 -34 178q-6 121 -6 488z" />
<glyph unicode="&#xed;" horiz-adv-x="544" d="M94 678q0 137 1.5 237.5t5 169.5t9 113.5t12 68t15.5 34t19 11.5t23 0q3 0 5 -0.5t5 -0.5h6h112q61 0 74.5 -5.5t13.5 -25.5t-12 -132.5t-12 -242.5q0 -144 8 -283t20 -236t24 -172t20 -117t8 -44q0 -16 -5.5 -27t-12 -16.5t-20 -8t-21.5 -2.5t-26 0.5t-24 0.5h-139h-16 q-40 -1 -53 12q-27 26 -34 178q-6 121 -6 488zM119 1419q0 14 24 54l156 290q9 16 14.5 25t10 17.5t12 12t10.5 7t15 4t17 1t24.5 0t29.5 -0.5q2 0 26 1t37 0t32 -5t28.5 -15t9.5 -28q0 -19 -48.5 -81.5t-114 -130t-139.5 -118.5t-118 -47q-26 0 -26 14z" />
<glyph unicode="&#xee;" horiz-adv-x="544" d="M-121 1487q0 24 45 69l205 220q41 43 55 51q22 12 68 12q43 0 71 -10.5t42 -22.5t53 -53l221 -219q27 -22 27 -39q0 -5 -37.5 -24.5t-86.5 -37.5t-75 -18q-8 0 -15.5 4t-17.5 13l-10 10l-123 121q-47 47 -61 47q-24 0 -68 -51l-76 -82q-3 -3 -12 -12.5t-14 -14.5 t-14 -12.5t-16 -11.5t-15.5 -7.5t-16.5 -3.5q-20 0 -74.5 25t-54.5 47zM94 678q0 137 1.5 237.5t5 169.5t9 113.5t12 68t15.5 34t19 11.5t23 0q3 0 5 -0.5t5 -0.5h6h112q61 0 74.5 -5.5t13.5 -25.5t-12 -132.5t-12 -242.5q0 -144 8 -283t20 -236t24 -172t20 -117t8 -44 q0 -16 -5.5 -27t-12 -16.5t-20 -8t-21.5 -2.5t-26 0.5t-24 0.5h-139h-16q-40 -1 -53 12q-27 26 -34 178q-6 121 -6 488z" />
<glyph unicode="&#xef;" horiz-adv-x="544" d="M-143 1614q0 76 52.5 120t129.5 44t129.5 -44t52.5 -120t-52.5 -120t-129.5 -44t-129.5 44t-52.5 120zM94 678q0 137 1.5 237.5t5 169.5t9 113.5t12 68t15.5 34t19 11.5t23 0q3 0 5 -0.5t5 -0.5h6h112q61 0 74.5 -5.5t13.5 -25.5t-12 -132.5t-12 -242.5q0 -144 8 -283 t20 -236t24 -172t20 -117t8 -44q0 -16 -5.5 -27t-12 -16.5t-20 -8t-21.5 -2.5t-26 0.5t-24 0.5h-139h-16q-40 -1 -53 12q-27 26 -34 178q-6 121 -6 488zM326 1614q0 76 52.5 120t129.5 44t129.5 -44t52.5 -120t-52.5 -120t-129.5 -44t-129.5 44t-52.5 120z" />
<glyph unicode="&#xf0;" horiz-adv-x="1114" d="M43 657q0 318 131 501t334 183q122 0 213 -75h4q-53 134 -162 225l-241 -105l-86 97l206 88q-111 61 -190 61q-10 0 -10 8t6 11l176 127q20 12 29 12q31 0 120 -34.5t140 -69.5l233 104l86 -100l-217 -93q256 -259 256 -768q0 -227 -40.5 -397t-112.5 -269t-162.5 -146.5 t-198.5 -47.5q-73 0 -144.5 25t-138.5 79.5t-118 133t-82 195t-31 255.5zM297 709q0 -53 7 -104.5t25.5 -106t46.5 -95t75 -66.5t106 -26t106 26t75 66.5t46.5 95t25.5 106t7 104.5q0 67 -12.5 130.5t-40.5 124.5t-81.5 98.5t-125.5 37.5t-125.5 -37.5t-81.5 -98.5 t-40.5 -124.5t-12.5 -130.5z" />
<glyph unicode="&#xf1;" horiz-adv-x="1130" d="M94 506q0 146 2.5 260.5t7 202.5t12 152t17.5 109t22.5 73t27.5 43.5t32.5 22t38 7.5t44.5 0h26q11 0 30.5 0.5t30.5 0.5t26 -0.5t24 -3t17.5 -6.5t12.5 -11t4 -17q0 -9 -9 -33t-9 -40t8 -27.5t22 -11.5q12 0 50.5 21t95.5 42t114 21q19 0 35 -1.5t48 -13t57.5 -31 t56 -60.5t50.5 -96.5t34 -144.5t14 -200q0 -126 -2.5 -228.5t-5.5 -178t-10 -133t-11.5 -95.5t-15.5 -64t-17 -38.5t-19.5 -19t-19.5 -7t-22 -0.5h-10h-176h-12h-14.5t-13 0.5t-13 3t-9.5 6t-7.5 9.5t-2.5 14q0 4 11 40t26.5 99.5t30.5 144t26 194.5t11 230q0 66 -4.5 114.5 t-19 102t-47 82.5t-81.5 29q-28 0 -55 -8t-61.5 -36.5t-60 -75.5t-43 -134t-17.5 -203q0 -109 14.5 -248.5t29.5 -236t15 -100.5q0 -10 -4.5 -16t-16.5 -8t-16 -2.5t-18 -0.5h-174h-13q-21 -1 -30.5 1t-23 16t-19 44.5t-11.5 86.5t-8 143.5t-2 214.5zM125 1538q0 36 16.5 76 t47 77.5t82.5 62t114 24.5q77 0 156 -33q7 -3 33 -13t36 -14t32.5 -12t35.5 -11t32 -8t35.5 -6.5t32.5 -1.5q34 0 57 8.5t32.5 21t15.5 25t13.5 21t18.5 8.5q26 0 38 -8t12 -18q0 -9 -4 -29.5t-22 -61t-47 -74t-89 -59.5t-139 -26q-91 0 -224 49q-124 47 -170 47 q-36 0 -54.5 -18.5t-23 -37t-6.5 -18.5h-8h-10t-10 0.5t-10.5 1.5t-8.5 3t-7.5 5.5t-4.5 8t-2 10.5z" />
<glyph unicode="&#xf2;" horiz-adv-x="1114" d="M43 657q0 101 19 198t60 185.5t100 155t145.5 106t189.5 39.5t189.5 -39.5t145.5 -106t100 -155t60 -185.5t19 -198q0 -139 -31 -255.5t-82 -195t-118 -133t-138.5 -79.5t-144.5 -25t-144.5 25t-138.5 79.5t-118 133t-82 195t-31 255.5zM297 709q0 -53 7 -104.5 t25.5 -106t46.5 -95t75 -66.5t106 -26t106 26t75 66.5t46.5 95t25.5 106t7 104.5q0 67 -12.5 130.5t-40.5 124.5t-81.5 98.5t-125.5 37.5t-125.5 -37.5t-81.5 -98.5t-40.5 -124.5t-12.5 -130.5zM328 1782q0 17 9.5 28t28.5 15t32 5t37 0t26 -1q10 0 29.5 0.5t24.5 0t17 -1 t15 -4t10.5 -7t12 -12t10 -17.5t14.5 -25l156 -290q24 -40 24 -54t-26 -14q-44 -4 -118 47t-139.5 118.5t-114 130t-48.5 81.5z" />
<glyph unicode="&#xf3;" horiz-adv-x="1114" d="M43 657q0 101 19 198t60 185.5t100 155t145.5 106t189.5 39.5t189.5 -39.5t145.5 -106t100 -155t60 -185.5t19 -198q0 -139 -31 -255.5t-82 -195t-118 -133t-138.5 -79.5t-144.5 -25t-144.5 25t-138.5 79.5t-118 133t-82 195t-31 255.5zM297 709q0 -53 7 -104.5 t25.5 -106t46.5 -95t75 -66.5t106 -26t106 26t75 66.5t46.5 95t25.5 106t7 104.5q0 67 -12.5 130.5t-40.5 124.5t-81.5 98.5t-125.5 37.5t-125.5 -37.5t-81.5 -98.5t-40.5 -124.5t-12.5 -130.5zM403 1419q0 12 25 54l156 290q9 16 14.5 25t10 17.5t12 12t10.5 7t15 4t17 1 t24.5 0t29.5 -0.5q2 0 26 1t37 0t32 -5t28.5 -15t9.5 -28q0 -19 -48.5 -81.5t-114 -130t-139.5 -118.5t-118 -47q-27 0 -27 14z" />
<glyph unicode="&#xf4;" horiz-adv-x="1114" d="M43 657q0 101 19 198t60 185.5t100 155t145.5 106t189.5 39.5t189.5 -39.5t145.5 -106t100 -155t60 -185.5t19 -198q0 -139 -31 -255.5t-82 -195t-118 -133t-138.5 -79.5t-144.5 -25t-144.5 25t-138.5 79.5t-118 133t-82 195t-31 255.5zM164 1487q0 24 45 69l205 220 q41 43 55 51q22 12 68 12q33 0 52.5 -3t42 -18.5t30 -23t40.5 -41.5l222 -219q26 -22 26 -39q0 -5 -37 -24.5t-86 -37.5t-75 -18q-8 0 -15.5 4t-17.5 13l-10 10l-123 121q-47 47 -62 47q-23 0 -67 -51l-76 -82q-3 -3 -12 -12.5t-14 -14.5t-14 -12.5t-16 -11.5t-15.5 -7.5 t-16.5 -3.5q-20 0 -74.5 25t-54.5 47zM297 709q0 -53 7 -104.5t25.5 -106t46.5 -95t75 -66.5t106 -26t106 26t75 66.5t46.5 95t25.5 106t7 104.5q0 67 -12.5 130.5t-40.5 124.5t-81.5 98.5t-125.5 37.5t-125.5 -37.5t-81.5 -98.5t-40.5 -124.5t-12.5 -130.5z" />
<glyph unicode="&#xf5;" horiz-adv-x="1114" d="M43 657q0 101 19 198t60 185.5t100 155t145.5 106t189.5 39.5t189.5 -39.5t145.5 -106t100 -155t60 -185.5t19 -198q0 -139 -31 -255.5t-82 -195t-118 -133t-138.5 -79.5t-144.5 -25t-144.5 25t-138.5 79.5t-118 133t-82 195t-31 255.5zM137 1538q0 36 16.5 76t47 77.5 t82.5 62t114 24.5q77 0 156 -33q8 -3 29.5 -11.5t31 -12t29 -11t30.5 -10.5t29 -8t31 -7t28.5 -4t29.5 -2q34 0 57 8.5t32.5 21t15.5 25t13.5 21t18.5 8.5q26 0 37.5 -8t11.5 -18q0 -9 -4 -29.5t-22 -61t-47 -74t-89 -59.5t-139 -26q-90 0 -223 49q-124 47 -170 47 q-36 0 -54.5 -18.5t-23 -37t-6.5 -18.5h-8h-10t-10 0.5t-10.5 1.5t-9 3t-8 5.5t-4.5 8t-2 10.5zM297 709q0 -53 7 -104.5t25.5 -106t46.5 -95t75 -66.5t106 -26t106 26t75 66.5t46.5 95t25.5 106t7 104.5q0 67 -12.5 130.5t-40.5 124.5t-81.5 98.5t-125.5 37.5t-125.5 -37.5 t-81.5 -98.5t-40.5 -124.5t-12.5 -130.5z" />
<glyph unicode="&#xf6;" horiz-adv-x="1114" d="M43 657q0 101 19 198t60 185.5t100 155t145.5 106t189.5 39.5t189.5 -39.5t145.5 -106t100 -155t60 -185.5t19 -198q0 -139 -31 -255.5t-82 -195t-118 -133t-138.5 -79.5t-144.5 -25t-144.5 25t-138.5 79.5t-118 133t-82 195t-31 255.5zM141 1614q0 76 53 120t130 44 t129.5 -44t52.5 -120t-52.5 -120t-129.5 -44t-130 44t-53 120zM297 709q0 -53 7 -104.5t25.5 -106t46.5 -95t75 -66.5t106 -26t106 26t75 66.5t46.5 95t25.5 106t7 104.5q0 67 -12.5 130.5t-40.5 124.5t-81.5 98.5t-125.5 37.5t-125.5 -37.5t-81.5 -98.5t-40.5 -124.5 t-12.5 -130.5zM610 1614q0 76 53 120t130 44t129.5 -44t52.5 -120t-52.5 -120t-129.5 -44t-130 44t-53 120z" />
<glyph unicode="&#xf7;" d="M104 578v192h979v-192h-979zM455 246q0 65 41 110t102 45h2q52 0 94.5 -46t42.5 -109q0 -62 -43 -111t-96 -49q-60 0 -101.5 48t-41.5 112zM459 1104q0 61 43.5 109.5t97.5 48.5q58 0 98.5 -47.5t40.5 -110.5q0 -65 -40.5 -111.5t-98.5 -46.5h-4q-52 0 -94.5 47.5 t-42.5 110.5z" />
<glyph unicode="&#xf8;" horiz-adv-x="1114" d="M4 41q0 26 39 70l98 120q-49 83 -73.5 197.5t-24.5 228.5q0 101 19 198t60 185.5t100 155t145.5 106t189.5 39.5q218 0 344 -157l60 82l14 19q14 19 22 27.5t23.5 18.5t30.5 10q73 0 73 -69q0 -39 -47 -92l-94 -121q88 -180 88 -402q0 -139 -31 -255.5t-82 -195 t-118 -133t-138.5 -79.5t-144.5 -25q-92 0 -177.5 38t-150.5 106l-75 -95q-2 -2 -9 -11t-11.5 -13.5t-12.5 -11.5t-17 -10t-20 -3q-31 0 -55.5 19.5t-24.5 52.5zM297 709q0 -137 41 -234l407 512q-61 113 -188 113q-72 0 -125.5 -37.5t-81.5 -98.5t-40.5 -124.5 t-12.5 -130.5zM426 356q61 -45 131 -45q59 0 106 26t75 66.5t46.5 95t25.5 106t7 104.5q0 65 -12 120z" />
<glyph unicode="&#xf9;" horiz-adv-x="1138" d="M94 662q0 32 4 119t13.5 215t31.5 221.5t52 93.5h188q3 0 18 1t23 0t19 -3.5t16.5 -9.5t5.5 -19q0 -7 -9.5 -38.5t-23.5 -84t-28 -121.5t-23.5 -170t-9.5 -209v-45.5t1.5 -54t4.5 -63t9 -62t14 -62.5t21.5 -53.5t30.5 -45.5t41 -28.5t52 -11.5q27 0 50 5t57.5 31t57.5 72 t40.5 137t17.5 216q0 108 -18 248.5t-36 239t-18 106.5q0 9 6.5 15t21.5 8t20 2h22h190q88 0 88 -625q0 -155 -4 -266.5t-8 -190.5t-18 -128t-23.5 -77t-34.5 -39.5t-40.5 -13.5t-52.5 -2h-19q-50 0 -78.5 8.5t-34.5 21.5t-7.5 27.5t0 27.5t-9.5 21.5t-38 8.5 q-8 0 -24.5 -10.5t-41.5 -30t-37 -27.5q-76 -47 -151 -47q-56 0 -100 15.5t-88.5 60.5t-73.5 119.5t-47.5 201t-18.5 296.5zM279 1782q0 17 9.5 28t28.5 15t32 5t37 0t26 -1q10 0 29.5 0.5t24.5 0t17 -1t15 -4t10.5 -7t12 -12t10 -17.5t14.5 -25l155 -290q25 -42 25 -54 q0 -14 -27 -14q-57 -5 -160.5 79.5t-181 178t-77.5 119.5z" />
<glyph unicode="&#xfa;" horiz-adv-x="1138" d="M94 662q0 32 4 119t13.5 215t31.5 221.5t52 93.5h188q3 0 18 1t23 0t19 -3.5t16.5 -9.5t5.5 -19q0 -7 -9.5 -38.5t-23.5 -84t-28 -121.5t-23.5 -170t-9.5 -209v-45.5t1.5 -54t4.5 -63t9 -62t14 -62.5t21.5 -53.5t30.5 -45.5t41 -28.5t52 -11.5q27 0 50 5t57.5 31t57.5 72 t40.5 137t17.5 216q0 108 -18 248.5t-36 239t-18 106.5q0 9 6.5 15t21.5 8t20 2h22h190q88 0 88 -625q0 -155 -4 -266.5t-8 -190.5t-18 -128t-23.5 -77t-34.5 -39.5t-40.5 -13.5t-52.5 -2h-19q-50 0 -78.5 8.5t-34.5 21.5t-7.5 27.5t0 27.5t-9.5 21.5t-38 8.5 q-8 0 -24.5 -10.5t-41.5 -30t-37 -27.5q-76 -47 -151 -47q-56 0 -100 15.5t-88.5 60.5t-73.5 119.5t-47.5 201t-18.5 296.5zM477 1419q0 12 25 54l155 290q8 14 12.5 22.5t10.5 16.5l9 12t10.5 7.5t11 5t14.5 2.5t16.5 0.5t22 -0.5h27.5q2 0 26 1t37 0t32 -5t28.5 -15 t9.5 -28q0 -19 -48.5 -81.5t-114 -130t-139.5 -118.5t-118 -47q-27 0 -27 14z" />
<glyph unicode="&#xfb;" horiz-adv-x="1138" d="M94 662q0 32 4 119t13.5 215t31.5 221.5t52 93.5h188q3 0 18 1t23 0t19 -3.5t16.5 -9.5t5.5 -19q0 -7 -9.5 -38.5t-23.5 -84t-28 -121.5t-23.5 -170t-9.5 -209v-45.5t1.5 -54t4.5 -63t9 -62t14 -62.5t21.5 -53.5t30.5 -45.5t41 -28.5t52 -11.5q27 0 50 5t57.5 31t57.5 72 t40.5 137t17.5 216q0 108 -18 248.5t-36 239t-18 106.5q0 9 6.5 15t21.5 8t20 2h22h190q88 0 88 -625q0 -155 -4 -266.5t-8 -190.5t-18 -128t-23.5 -77t-34.5 -39.5t-40.5 -13.5t-52.5 -2h-19q-50 0 -78.5 8.5t-34.5 21.5t-7.5 27.5t0 27.5t-9.5 21.5t-38 8.5 q-8 0 -24.5 -10.5t-41.5 -30t-37 -27.5q-76 -47 -151 -47q-56 0 -100 15.5t-88.5 60.5t-73.5 119.5t-47.5 201t-18.5 296.5zM176 1487q0 24 45 69l205 220q41 43 55 51q22 12 68 12q43 0 71 -10.5t42 -22.5t53 -53l221 -219q27 -22 27 -39q0 -5 -37.5 -24.5t-86.5 -37.5 t-75 -18q-8 0 -15.5 4t-17.5 13l-10 10l-123 121q-47 47 -61 47q-24 0 -68 -51l-76 -82q-3 -3 -12 -12.5t-14 -14.5t-14 -12.5t-16 -11.5t-15.5 -7.5t-16.5 -3.5q-20 0 -74.5 25t-54.5 47z" />
<glyph unicode="&#xfc;" horiz-adv-x="1138" d="M94 662q0 32 4 119t13.5 215t31.5 221.5t52 93.5h188q3 0 18 1t23 0t19 -3.5t16.5 -9.5t5.5 -19q0 -7 -9.5 -38.5t-23.5 -84t-28 -121.5t-23.5 -170t-9.5 -209v-45.5t1.5 -54t4.5 -63t9 -62t14 -62.5t21.5 -53.5t30.5 -45.5t41 -28.5t52 -11.5q27 0 50 5t57.5 31t57.5 72 t40.5 137t17.5 216q0 108 -18 248.5t-36 239t-18 106.5q0 9 6.5 15t21.5 8t20 2h22h190q88 0 88 -625q0 -155 -4 -266.5t-8 -190.5t-18 -128t-23.5 -77t-34.5 -39.5t-40.5 -13.5t-52.5 -2h-19q-50 0 -78.5 8.5t-34.5 21.5t-7.5 27.5t0 27.5t-9.5 21.5t-38 8.5 q-8 0 -24.5 -10.5t-41.5 -30t-37 -27.5q-76 -47 -151 -47q-56 0 -100 15.5t-88.5 60.5t-73.5 119.5t-47.5 201t-18.5 296.5zM154 1614q0 76 52.5 120t129.5 44t129.5 -44t52.5 -120t-52.5 -120t-129.5 -44t-129.5 44t-52.5 120zM623 1614q0 76 52.5 120t129.5 44t129.5 -44 t52.5 -120t-52.5 -120t-129.5 -44t-129.5 44t-52.5 120z" />
<glyph unicode="&#xfd;" horiz-adv-x="1050" d="M53 47v180q0 84 60 84q67 0 121 8t86 20t53 27t29 27t8 21q0 17 -19.5 41t-51 56t-69.5 74t-76.5 103t-70 133t-51 174.5t-19.5 218.5q0 71 9.5 84t68.5 13h168h12.5h14t12.5 -1t13.5 -3.5t10 -6.5t7.5 -10.5t2 -15.5q0 -10 -9.5 -65t-9.5 -89q0 -84 32 -173t74 -150.5 t80.5 -101.5t55.5 -40q39 0 71.5 69t49 161t16.5 174q0 60 -11 136.5t-11 84.5t2.5 13.5t8 9t10.5 5.5t13.5 2.5t13.5 0.5h14h11h183q6 -1 11 -4t8.5 -8.5t6 -11.5t4 -16.5t2 -18.5t1 -22t0 -24t-0.5 -27v-28q4 -147 -29 -295.5t-94.5 -277.5t-148.5 -242.5t-186.5 -194 t-212.5 -126.5t-224 -46q-22 0 -33.5 11t-13.5 25t-2 42zM473 1419q0 12 25 54l155 290q9 16 14.5 25t10 17.5t12 12t10.5 7t15 4t17 1t24.5 0t29.5 -0.5q2 0 26.5 1t37 0t32 -5t29 -15t9.5 -28q0 -19 -48.5 -81.5t-114 -130t-139.5 -118.5t-118 -47q-27 0 -27 14z" />
<glyph unicode="&#xfe;" horiz-adv-x="1075" d="M94 334v678q0 209 12 379.5t32 263t42 92.5h207q64 0 64 -43q0 -5 -15.5 -66t-31 -141.5t-15.5 -132.5q0 -29 23 -29q9 0 45 4q10 0 26.5 1t20.5 1q141 0 247.5 -33.5t170.5 -93t95.5 -136t31.5 -169.5q0 -92 -33.5 -188.5t-87 -175.5t-116 -142.5t-125 -99t-109.5 -35.5 q-17 0 -39.5 16.5t-33 28.5t-36.5 43q-8 9 -18.5 22t-18 21t-15 16.5t-13 12.5t-9.5 4q-10 0 -12 -16t-2 -58q0 -63 9.5 -139.5t19.5 -130t10 -59.5q0 -29 -47 -29h-209q-27 0 -41 22.5t-22 96.5t-7 215zM371 684q0 -28 1 -44.5t6 -40t14 -36.5t28 -23t45 -10 q133 0 231.5 106.5t98.5 237.5q0 98 -69.5 162t-168.5 64q-29 0 -45 -1.5t-39 -9.5t-35.5 -24t-27 -46t-22 -74t-12.5 -109.5t-5 -151.5z" />
<glyph unicode="&#xff;" horiz-adv-x="1050" d="M53 47v180q0 84 60 84q67 0 121 8t86 20t53 27t29 27t8 21q0 17 -19.5 41t-51 56t-69.5 74t-76.5 103t-70 133t-51 174.5t-19.5 218.5q0 71 9.5 84t68.5 13h168h12.5h14t12.5 -1t13.5 -3.5t10 -6.5t7.5 -10.5t2 -15.5q0 -10 -9.5 -65t-9.5 -89q0 -84 32 -173t74 -150.5 t80.5 -101.5t55.5 -40q39 0 71.5 69t49 161t16.5 174q0 60 -11 136.5t-11 84.5t2.5 13.5t8 9t10.5 5.5t13.5 2.5t13.5 0.5h14h11h183q6 -1 11 -4t8.5 -8.5t6 -11.5t4 -16.5t2 -18.5t1 -22t0 -24t-0.5 -27v-28q4 -147 -29 -295.5t-94.5 -277.5t-148.5 -242.5t-186.5 -194 t-212.5 -126.5t-224 -46q-22 0 -33.5 11t-13.5 25t-2 42zM109 1614q0 76 52.5 120t129.5 44t129.5 -44t52.5 -120t-52.5 -120t-129.5 -44t-129.5 44t-52.5 120zM578 1614q0 76 52.5 120t129.5 44t129.5 -44t52.5 -120t-52.5 -120t-129.5 -44t-129.5 44t-52.5 120z" />
<glyph unicode="&#x152;" horiz-adv-x="2205" d="M51 621q0 196 53 395.5t141.5 358.5t216.5 259.5t267 100.5q67 0 126 -19t112 -58.5t93 -79t93 -101.5q13 61 21.5 96.5t20 63.5t17.5 39.5t21.5 19t25 8t35.5 0.5h4h4.5h4.5h757h13h18t18 -1t19 -3t15 -6t12 -10.5t4 -14.5q0 -17 -70 -160t-88 -143q-10 0 -33.5 15 t-52 33t-85.5 33t-126 15q-56 0 -111.5 -16.5t-105.5 -49t-81.5 -88.5t-31.5 -126q0 -117 64 -117q42 0 113 24t154.5 48t156.5 24q29 0 60.5 -10t31.5 -33q0 -10 -61.5 -173t-77.5 -163q-3 0 -67 20.5t-112 20.5q-42 0 -86 -15.5t-85.5 -46.5t-68 -87.5t-26.5 -128.5 q0 -126 71 -204.5t197 -78.5q69 0 137 21t110 46.5t78.5 46.5t51.5 21q20 0 94 -172t74 -194q0 -11 -4.5 -18t-16 -9.5t-17 -3.5t-21.5 -0.5t-17 0.5h-894q-115 0 -115 45q-101 -76 -271 -76h-204q-150 0 -263.5 51.5t-180.5 142.5t-99.5 206t-32.5 252zM383 666 q0 -174 88.5 -253t257.5 -79t257.5 79t88.5 253q0 162 -34.5 305t-87 234.5t-112 144.5t-112.5 53t-112.5 -53t-112 -144.5t-87 -234.5t-34.5 -305z" />
<glyph unicode="&#x153;" horiz-adv-x="1826" d="M43 657q0 101 19 198t60 185.5t100 155t145.5 106t189.5 39.5q245 0 389 -208q156 208 397 208q115 0 208 -40.5t150.5 -125.5t57.5 -202q0 -89 -36.5 -157.5t-94.5 -109t-128 -71t-140.5 -52t-128.5 -43.5t-94.5 -53.5t-36.5 -74.5q0 -67 86.5 -116.5t171.5 -49.5 q79 0 141 19t96.5 47.5t59.5 61.5t35 61.5t18 47.5t14 19q20 0 28.5 -46t8.5 -77q0 -189 -127.5 -299.5t-318.5 -110.5q-236 0 -393 189q-54 -82 -156 -135.5t-207 -53.5q-73 0 -144.5 25t-138.5 79.5t-118 133t-82 195t-31 255.5zM297 709q0 -53 7 -104.5t25.5 -106 t46.5 -95t75 -66.5t106 -26t106 26t75 66.5t46.5 95t25.5 106t7 104.5q0 67 -12.5 130.5t-40.5 124.5t-81.5 98.5t-125.5 37.5t-125.5 -37.5t-81.5 -98.5t-40.5 -124.5t-12.5 -130.5zM1071 803q0 -45 37 -45q22 0 113 23.5t187.5 69.5t96.5 93q0 70 -54 113t-118 43 q-59 0 -110.5 -29.5t-83.5 -74.5t-50 -96t-18 -97z" />
<glyph unicode="&#x178;" horiz-adv-x="1318" d="M33 1548q0 58 5 89.5t22.5 46.5t35 17.5t58.5 2.5h163h7q22 0 35.5 -1t33.5 -5t30.5 -16t10.5 -31q0 -6 -9 -73t-9 -87q0 -103 32 -209.5t76 -180t87 -120.5t67 -47q23 0 71 55.5t97.5 136t87 185t37.5 190.5q0 39 -9.5 102.5t-9.5 65.5q0 10 4.5 17.5t10 11t16 5t16.5 2 t19 0t16 -0.5h154q60 0 79 -23.5t19 -85.5q0 -131 -30 -247t-77.5 -205.5t-105 -174.5t-115.5 -170t-105.5 -174.5t-77.5 -206t-30 -247.5q0 -23 6.5 -66.5t6.5 -64.5q0 -14 -8 -23t-24 -12t-26 -3.5t-29 -0.5h-7h-238q-36 0 -50 37.5t-14 81.5q0 84 21.5 170.5t47.5 142.5 t47.5 107t21.5 73q0 14 -26 45.5t-67 77t-90.5 104.5t-99.5 136t-91 162t-67 192.5t-26 218.5zM244 2009q0 76 52.5 120t129.5 44t129.5 -44t52.5 -120t-52.5 -120t-129.5 -44t-129.5 44t-52.5 120zM713 2009q0 76 52.5 120t129.5 44t129.5 -44t52.5 -120t-52.5 -120 t-129.5 -44t-129.5 44t-52.5 120z" />
<glyph unicode="&#x2c6;" horiz-adv-x="1126" d="M170 1487q0 24 45 69l205 220q41 43 55 51q22 12 68 12q43 0 71 -10.5t42 -22.5t53 -53l221 -219q26 -22 26 -39q0 -5 -37 -24.5t-86 -37.5t-75 -18q-8 0 -15.5 4t-17.5 13l-10 10l-123 121q-47 47 -62 47q-23 0 -67 -51l-76 -82q-3 -3 -12 -12.5t-14 -14.5t-14 -12.5 t-16 -11.5t-15.5 -7.5t-16.5 -3.5q-20 0 -74.5 25t-54.5 47z" />
<glyph unicode="&#x2dc;" horiz-adv-x="839" d="M0 1538q0 36 16.5 76t47 77.5t82.5 62t114 24.5q77 0 156 -33q7 -3 33 -13t36 -14t32.5 -12t35.5 -11t32 -8t35.5 -6.5t32.5 -1.5q42 0 67 13t32 29t16.5 29t22.5 13q26 0 37.5 -8t11.5 -18q0 -9 -4 -29.5t-22 -61t-47 -74t-89 -59.5t-139 -26q-91 0 -224 49 q-124 47 -170 47q-36 0 -54.5 -18.5t-23 -37t-6.5 -18.5h-8h-10t-10 0.5t-10.5 1.5t-8.5 3t-7.5 5.5t-4.5 8t-2 10.5z" />
<glyph unicode="&#x2000;" horiz-adv-x="1127" />
<glyph unicode="&#x2001;" horiz-adv-x="2255" />
<glyph unicode="&#x2002;" horiz-adv-x="1127" />
<glyph unicode="&#x2003;" horiz-adv-x="2255" />
<glyph unicode="&#x2004;" horiz-adv-x="751" />
<glyph unicode="&#x2005;" horiz-adv-x="563" />
<glyph unicode="&#x2006;" horiz-adv-x="375" />
<glyph unicode="&#x2007;" horiz-adv-x="375" />
<glyph unicode="&#x2008;" horiz-adv-x="281" />
<glyph unicode="&#x2009;" horiz-adv-x="451" />
<glyph unicode="&#x200a;" horiz-adv-x="125" />
<glyph unicode="&#x2010;" horiz-adv-x="512" d="M0 551q0 11 7 44t20 75t36.5 74t51.5 32h303q2 0 21.5 0.5t27 -0.5t21 -4t19 -11.5t5.5 -21.5q0 -11 -7 -44t-20 -75t-36.5 -74t-51.5 -32h-303q-2 0 -21.5 -0.5t-27 0.5t-21 4t-19 11.5t-5.5 21.5z" />
<glyph unicode="&#x2011;" horiz-adv-x="512" d="M0 551q0 11 7 44t20 75t36.5 74t51.5 32h303q2 0 21.5 0.5t27 -0.5t21 -4t19 -11.5t5.5 -21.5q0 -11 -7 -44t-20 -75t-36.5 -74t-51.5 -32h-303q-2 0 -21.5 -0.5t-27 0.5t-21 4t-19 11.5t-5.5 21.5z" />
<glyph unicode="&#x2012;" horiz-adv-x="512" d="M0 551q0 11 7 44t20 75t36.5 74t51.5 32h303q2 0 21.5 0.5t27 -0.5t21 -4t19 -11.5t5.5 -21.5q0 -11 -7 -44t-20 -75t-36.5 -74t-51.5 -32h-303q-2 0 -21.5 -0.5t-27 0.5t-21 4t-19 11.5t-5.5 21.5z" />
<glyph unicode="&#x2013;" horiz-adv-x="1024" d="M-51 563q0 11 7 41t19.5 68.5t36 67t51.5 28.5h918q2 0 21.5 0.5t27 -0.5t21 -4t19 -11.5t5.5 -21.5q0 -11 -7 -41t-19.5 -68.5t-36 -67t-51.5 -28.5h-918q-2 0 -21.5 -0.5t-27 0.5t-21 4t-19 11.5t-5.5 21.5z" />
<glyph unicode="&#x2014;" horiz-adv-x="2048" d="M-51 563q0 11 7 41t19.5 68.5t36 67t51.5 28.5h1942q2 0 21.5 0.5t27 -0.5t21 -4t19 -11.5t5.5 -21.5q0 -11 -7 -41t-19.5 -68.5t-36 -67t-51.5 -28.5h-1942q-2 0 -21.5 -0.5t-27 0.5t-21 4t-19 11.5t-5.5 21.5z" />
<glyph unicode="&#x2018;" horiz-adv-x="696" d="M102 1401q0 67 27 125t68.5 95t92.5 64t97 38.5t84 11.5q5 0 10.5 -3.5t5.5 -7.5q0 -1 -13.5 -23t-26.5 -58.5t-13 -73.5q0 -48 16.5 -83t40 -51.5t47 -26t40 -14.5t16.5 -10q0 -11 -41 -38l-170 -138q-2 -2 -16.5 -12.5t-20.5 -14t-18 -8t-23 -4.5q-83 0 -143 74 t-60 158z" />
<glyph unicode="&#x2019;" horiz-adv-x="696" d="M102 1520q0 12 41 39l170 137q2 2 16.5 12.5t20.5 14t18 8t23 4.5q83 0 143 -74t60 -158q0 -67 -27 -125t-68.5 -95t-92.5 -64t-97 -38.5t-84 -11.5q-5 0 -10.5 3.5t-5.5 7.5q0 1 13.5 23t26.5 58.5t13 73.5q0 48 -16.5 83t-40 51.5t-47 26t-40 14.5t-16.5 10z" />
<glyph unicode="&#x201a;" horiz-adv-x="696" d="M102 219q0 12 41 39l170 137q2 2 16.5 12.5t20.5 14t18 8t23 4.5q83 0 143 -73.5t60 -157.5q0 -67 -27 -125t-68.5 -95t-92.5 -64t-97 -38.5t-84 -11.5q-16 0 -16 10q0 1 13.5 23t26.5 59t13 74q0 48 -16.5 82.5t-40 51t-47 26t-40 14.5t-16.5 10z" />
<glyph unicode="&#x201c;" horiz-adv-x="1259" d="M102 1401q0 67 27 125t68.5 95t92.5 64t97 38.5t84 11.5q5 0 10.5 -3.5t5.5 -7.5q0 -1 -13.5 -23t-26.5 -58.5t-13 -73.5q0 -48 16.5 -83t40 -51.5t47 -26t40 -14.5t16.5 -10q0 -11 -41 -38l-170 -138q-2 -2 -16.5 -12.5t-20.5 -14t-18 -8t-23 -4.5q-83 0 -143 74 t-60 158zM666 1401q0 67 27 125t68.5 95t92 64t96.5 38.5t84 11.5q5 0 11 -3.5t6 -7.5q0 -1 -13.5 -23t-27 -58.5t-13.5 -73.5q0 -48 16.5 -83t40 -51.5t47 -26t40 -14.5t16.5 -10q0 -11 -41 -38l-170 -138q-2 -2 -16.5 -12.5t-20.5 -14t-18 -8t-23 -4.5q-83 0 -142.5 74 t-59.5 158z" />
<glyph unicode="&#x201d;" horiz-adv-x="1259" d="M102 1520q0 12 41 39l170 137q2 2 16.5 12.5t20.5 14t18 8t23 4.5q83 0 143 -74t60 -158q0 -67 -27 -125t-68.5 -95t-92.5 -64t-97 -38.5t-84 -11.5q-5 0 -10.5 3.5t-5.5 7.5q0 1 13.5 23t26.5 58.5t13 73.5q0 48 -16.5 83t-40 51.5t-47 26t-40 14.5t-16.5 10zM666 1520 q0 12 41 39l170 137q3 2 16.5 12t20 14t18 8.5t22.5 4.5q83 0 143 -74t60 -158q0 -67 -27 -125t-68.5 -95t-92.5 -64t-97 -38.5t-84 -11.5q-5 0 -10.5 3.5t-5.5 7.5q0 1 13 23t26.5 58.5t13.5 73.5q0 59 -25 98t-54.5 52t-54.5 21.5t-25 13.5z" />
<glyph unicode="&#x201e;" horiz-adv-x="1259" d="M102 219q0 12 41 39l170 137q2 2 16.5 12.5t20.5 14t18 8t23 4.5q83 0 143 -73.5t60 -157.5q0 -67 -27 -125t-68.5 -95t-92.5 -64t-97 -38.5t-84 -11.5q-16 0 -16 10q0 1 13.5 23t26.5 59t13 74q0 48 -16.5 82.5t-40 51t-47 26t-40 14.5t-16.5 10zM666 219q0 12 41 39 l170 137q3 2 16.5 12t20 14t18 8.5t22.5 4.5q83 0 143 -73.5t60 -157.5q0 -67 -27 -125t-68.5 -95t-92.5 -64t-97 -38.5t-84 -11.5q-16 0 -16 10q0 1 13 23t26.5 59t13.5 74q0 48 -16.5 82.5t-39.5 51t-46.5 26t-40 14.5t-16.5 10z" />
<glyph unicode="&#x2022;" horiz-adv-x="819" d="M0 819q0 177 116.5 293.5t293.5 116.5t293 -116.5t116 -293.5t-116 -293t-293 -116t-293.5 116t-116.5 293z" />
<glyph unicode="&#x2026;" horiz-adv-x="2048" d="M113 197q0 92 66.5 157.5t158.5 65.5q97 0 165 -65t68 -160t-67.5 -160.5t-163.5 -65.5q-95 0 -161 67t-66 161zM795 197q0 92 66.5 157.5t158.5 65.5q97 0 165 -65t68 -160t-67.5 -160.5t-163.5 -65.5q-95 0 -161 67t-66 161zM1477 197q0 92 66.5 157.5t158.5 65.5 q97 0 165 -65t68 -160t-67.5 -160.5t-163.5 -65.5q-95 0 -161 67t-66 161z" />
<glyph unicode="&#x202f;" horiz-adv-x="451" />
<glyph unicode="&#x2039;" horiz-adv-x="733" d="M102 647q0 52 39 105l224 338q1 1 8 12.5t11.5 17t12 14.5t15.5 13t16 4q19 0 102 -53q10 -6 24.5 -15t22.5 -14t18 -12t15.5 -12t11 -11t7.5 -11.5t2 -12.5q0 -9 -3 -18t-10 -20t-11 -16.5t-14.5 -18.5t-12.5 -15l-177 -224q-30 -36 -30 -51t30 -51l177 -223 q2 -2 12.5 -15t14.5 -18.5t11 -16.5t10 -20t3 -18q0 -7 -2 -12.5t-7.5 -11.5t-11 -11t-15.5 -12t-18 -12t-22.5 -14t-24.5 -15q-6 -4 -17 -11t-16 -10t-13.5 -8.5t-12.5 -7.5t-10 -5.5t-10 -5t-8.5 -3.5t-8 -2.5t-6.5 -0.5q-8 0 -16 4t-15.5 13t-12 15t-11.5 17t-8 13 l-224 338q-39 53 -39 104z" />
<glyph unicode="&#x203a;" horiz-adv-x="733" d="M102 285q0 9 3 18t10 19.5t12 17t14.5 18t12.5 15.5l176 223q30 36 30 51t-30 51l-176 224q-3 4 -12.5 15.5t-14.5 18t-12 17t-10 19.5t-3 18q0 7 2 12.5t7.5 11.5t11 11t15.5 12t18 12t22.5 14t24.5 15q83 53 102 53q7 0 14 -3.5t12.5 -8t12 -12.5t10 -13t9 -13.5 t6.5 -10.5l223 -338q39 -53 39 -105q0 -51 -39 -104l-223 -338q-1 -1 -8.5 -13t-11.5 -17.5t-12 -14.5t-16 -13t-16 -4q-3 0 -6.5 0.5t-8 2.5t-8.5 3.5t-10 5t-10 5.5t-12.5 7.5t-13.5 8.5t-16 10t-17 11q-10 6 -24.5 15t-22.5 14t-18 12t-15.5 12t-11 11t-7.5 11.5t-2 12.5 z" />
<glyph unicode="&#x205f;" horiz-adv-x="563" />
<glyph unicode="&#x20ac;" d="M39 541l67 219h87q-3 27 -3 74q0 28 3 63h-154l67 219h105q80 574 561 574q108 0 193.5 -23t126.5 -51v-301q-84 88 -261 88q-124 0 -193 -70t-89 -217h477l-70 -219h-430q0 -8 -1 -29.5t-1 -33.5q0 -13 1 -39t1 -35h385l-69 -219h-291q19 -147 89 -217t194 -70 q168 0 258 82v-299q-35 -27 -118 -46.5t-202 -19.5q-478 0 -557 570h-176z" />
<glyph unicode="&#x2122;" horiz-adv-x="2048" d="M10 1430q0 30 20.5 114.5t35.5 110.5q10 19 128.5 43t243.5 24q160 0 282 -33.5t122 -76.5q0 -37 -33.5 -103.5t-46.5 -66.5q-8 0 -31.5 21.5t-61 43t-79.5 21.5q-25 0 -42 -34.5t-24.5 -91t-10.5 -105.5t-3 -101q0 -89 7.5 -170t18 -135t21 -95t18 -65t7.5 -29 q0 -8 -6 -12.5t-17.5 -6t-20 -2t-21 0t-13.5 0.5h-142q-4 0 -14.5 -1.5t-16 -1t-15.5 6t-15 16.5t-12.5 33.5t-11 55t-6.5 83t-3 115.5q0 129 15 247.5t30 186t15 72.5q0 33 -29 33q-36 0 -98 -32t-113 -63.5t-59 -31.5q-1 0 -5 -0.5t-5 0t-3.5 2t-3.5 4.5t-1.5 8.5 t-0.5 14.5zM928 1118l12 367q11 127 33 180q10 22 23.5 30.5t47.5 8.5h117q43 0 66 -12.5t69 -69.5q53 -68 88.5 -132.5t48 -90t23.5 -25.5q7 0 19 26t50.5 89.5t98.5 132.5q37 41 62.5 59t39.5 20.5t46 2.5h96q32 0 45.5 -8.5t21.5 -30.5q21 -46 33 -180l12 -367 q0 -102 -6.5 -237t-21.5 -176q-1 -5 -3.5 -8.5t-4.5 -6.5t-6 -4.5t-6.5 -2.5t-9 -1h-10h-12.5h-14h-162h-16.5h-16h-13t-11.5 1t-8.5 3t-6 5.5t-1.5 8.5q0 3 8.5 32.5t20.5 80t24 115t20.5 153.5t8.5 179q0 176 -41 176q-15 0 -42 -54t-44 -98q-30 -67 -50 -134t-28 -105 t-18 -69.5t-27.5 -44.5t-50.5 -13t-51 12.5t-30 44.5t-21 70t-31.5 105.5t-53.5 133.5q-2 5 -20 49t-33.5 73.5t-24.5 29.5q-39 0 -39 -176q0 -90 8.5 -179t20.5 -153.5t24 -115t20.5 -80t8.5 -32.5q0 -7 -3 -11t-10 -5.5t-11 -2t-14 0t-11 0.5h-135h-14.5h-13.5h-11t-9.5 1 t-7 2.5t-6.5 4.5t-4.5 6.5t-3.5 8.5q-15 41 -21.5 176t-6.5 237z" />
<glyph unicode="&#xe000;" horiz-adv-x="1310" d="M0 0v1311h1311v-1311h-1311z" />
</font>
</defs>
</svg>
