<?xml version="1.0" standalone="no"?>
<!DOCTYPE svg PUBLIC "-//W3C//DTD SVG 1.1//EN" "http://www.w3.org/Graphics/SVG/1.1/DTD/svg11.dtd" >
<svg xmlns="http://www.w3.org/2000/svg">
<metadata>
This is a custom SVG webfont generated by Font Squirrel.
Copyright   : Copyright c 2011 John Vargas Beltran wwwjohnvargasbeltrancomjohnvargasbeltrangmailcom with Reserved Font Name Boogaloo
Designer    : John Vargas Beltran
Foundry     : John Vargas Beltran
</metadata>
<defs>
<font id="BoogalooRegular" horiz-adv-x="991" >
<font-face units-per-em="2048" ascent="1638" descent="-410" />
<missing-glyph horiz-adv-x="495" />
<glyph unicode=" "  horiz-adv-x="495" />
<glyph unicode="&#x09;" horiz-adv-x="495" />
<glyph unicode="&#xa0;" horiz-adv-x="495" />
<glyph unicode="!" horiz-adv-x="569" d="M133 0q20 76 21 217q0 25 -4 82l237 -25q23 -41 23 -131q0 -115 -33 -190zM156 942q0 266 39 555l299 -57q-103 -397 -138 -1059l-163 20q-37 305 -37 541z" />
<glyph unicode="&#x22;" horiz-adv-x="712" d="M51 889q17 211 25 553l221 -19q-10 -240 -57 -551zM391 889q17 211 25 553l221 -19q-10 -240 -57 -551z" />
<glyph unicode="#" horiz-adv-x="1705" d="M215 379l25 225q84 0 264 4q16 154 22 244q-86 -4 -262 -4l25 225q82 0 258 4q15 184 37 369l237 -19q-16 -121 -35 -342q139 4 218 5q34 256 65 397l231 -19q-41 -252 -57 -383q139 -4 262 -18l-55 -225q-115 16 -233 18q-23 -236 -23 -244q139 -4 262 -18l-55 -225 q-111 16 -225 18q-25 -262 -41 -391h-238q23 203 37 395q-70 0 -213 -4q-39 -291 -72 -450l-231 22q29 152 61 420q-176 -4 -264 -4zM745 616q135 4 207 5q17 132 23 243q-68 0 -207 -4q-6 -68 -23 -244z" />
<glyph unicode="$" d="M117 293l125 121q172 -160 278 -160q76 0 76 61q0 45 -37 86t-123 103q-264 190 -264 414q0 133 77 224t193 122q0 25 -2 98.5t-2 136.5l205 -16q0 -162 4 -221q111 -35 182.5 -131.5t71.5 -174.5q0 -127 -43 -215l-231 70q23 57 22 104q0 39 -30.5 71t-73.5 32 q-39 0 -69 -26.5t-30 -73.5q0 -49 33 -98.5t82 -80.5q172 -104 250 -185t78 -196q0 -131 -69.5 -216t-180.5 -115q0 -117 -23 -265l-204 19q20 141 22 242q-180 43 -317 270z" />
<glyph unicode="%" horiz-adv-x="1384" d="M57 877q0 168 77 304t202 136q135 0 200.5 -102.5t65.5 -264.5q0 -145 -84 -262t-186 -117q-127 0 -201 84.5t-74 221.5zM217 12q512 893 930 1352l131 -82q-238 -266 -448.5 -581.5t-454.5 -747.5zM246 877q0 -53 23.5 -86t62.5 -33q31 0 57.5 58t26.5 134 q0 182 -80 183q-41 0 -65.5 -80t-24.5 -176zM815 254q0 168 77 304t202 136q135 0 200.5 -102.5t65.5 -263.5q0 -145 -84 -262t-186 -117q-127 0 -201 84t-74 221zM1004 254q0 -53 23.5 -86t62.5 -33q31 0 57.5 58.5t26.5 134.5q0 182 -80 182q-41 0 -65.5 -80t-24.5 -176z " />
<glyph unicode="&#x26;" horiz-adv-x="1103" d="M39 287q0 96 63.5 176t186.5 176q-113 190 -113 332q0 186 133 316t303 130q162 0 264.5 -96t102.5 -234q0 -61 -22.5 -119.5t-47 -98.5t-84 -95t-92.5 -81.5t-108 -86.5q66 -86 178 -209q57 39 188 131l176 -163q-63 -49 -196 -142q31 -31 96.5 -93t89.5 -87l-205 -143 q-27 27 -94 91t-106 101q-215 -113 -332 -112q-166 0 -273.5 85t-107.5 222zM305 307q0 -43 33 -72.5t82 -29.5q47 0 164 61q-88 90 -164 189q-115 -90 -115 -148zM442 991q0 -84 58 -192q223 166 223 248q0 61 -37 98t-94 37q-63 0 -106.5 -54.5t-43.5 -136.5z" />
<glyph unicode="'" horiz-adv-x="370" d="M51 889q17 211 25 553l221 -19q-10 -240 -57 -551z" />
<glyph unicode="(" horiz-adv-x="724" d="M205 383q0 307 71.5 612t180.5 508l196 -110q-74 -172 -123 -437.5t-49 -531.5q0 -442 189 -834l-267 -94q-199 365 -198 887z" />
<glyph unicode=")" horiz-adv-x="724" d="M68 1413l266 94q199 -365 198 -886q0 -307 -71 -612.5t-180 -508.5l-197 111q74 172 123 437t49 532q0 442 -188 833z" />
<glyph unicode="*" horiz-adv-x="972" d="M84 1069q0 72 16 150q8 2 27 2q45 0 91 -19.5t106.5 -55.5t91.5 -50q-23 123 -105 272q88 53 238 72q20 -43 20 -90q0 -35 -16 -118t-23 -134q104 57 228 188q78 -68 141 -205q-37 -35 -82 -49q-37 -10 -120 -20.5t-128 -18.5q92 -88 248 -157q-39 -94 -151 -199 q-41 23 -72 63q-20 29 -55 106t-58 118q-55 -109 -73 -285q-106 10 -236 84q8 45 37 86q20 29 81.5 84t96.5 92q-49 6 -94 6q-82 0 -199 -22q-10 41 -10 100z" />
<glyph unicode="+" horiz-adv-x="1705" d="M248 702q178 6 391 23q18 0 55 4q10 274 31 506l287 -25q-23 -231 -29 -467q143 4 209 5q172 -1 278 -11l-28 -245q-109 10 -250 10q-70 0 -213 -4v-27q0 -207 10 -473l-287 18q-10 266 -10 455v10q-12 -2 -33 -2q-236 -14 -399 -22z" />
<glyph unicode="," horiz-adv-x="532" d="M78 -231q56 335 76 634l272 -90q-20 -186 -160 -559z" />
<glyph unicode="-" horiz-adv-x="663" d="M70 561q68 0 200.5 9.5t196.5 9.5q62 -1 113 -7l8 -221q-61 6 -121 6q-57 0 -183 -9t-190 -9z" />
<glyph unicode="." horiz-adv-x="532" d="M102 -20q18 156 19 217q0 104 -2 153l266 -24q23 -72 23 -152q0 -143 -29 -217z" />
<glyph unicode="/" horiz-adv-x="839" d="M-49 -150q35 86 154.5 383t184 452t175 393.5t211.5 418.5l180 -96q-115 -176 -234.5 -438.5t-272 -649.5t-193.5 -483z" />
<glyph unicode="0" d="M98 516q0 195 48.5 374t148.5 303t231 124q143 0 237.5 -93.5t134.5 -238.5t40 -334q0 -174 -61.5 -334.5t-157.5 -257t-199 -96.5q-197 0 -309.5 151.5t-112.5 401.5zM365 516q0 -147 42 -237.5t113 -90.5q55 0 103.5 142.5t48.5 320.5q0 440 -146 441 q-72 0 -116.5 -178.5t-44.5 -397.5z" />
<glyph unicode="1" d="M195 868q129 188 272 463l283 -55q-41 -336 -41 -694q0 -340 28 -619l-274 27q-14 240 -14 422q0 274 16 479l-115 -154z" />
<glyph unicode="2" d="M66 901q266 424 526 424q162 0 249 -102.5t87 -257.5q0 -104 -115 -302t-291 -399q45 16 164 17q162 0 238 -15l-25 -231q-127 10 -213 10q-236 0 -524 -98l-88 178q223 186 415.5 456.5t192.5 383.5q0 115 -90 114q-74 0 -153 -84.5t-169 -236.5z" />
<glyph unicode="3" d="M127 1149q123 88 222.5 128t207.5 40q141 0 233.5 -84t92.5 -225q0 -160 -238 -326q205 -106 205 -297q0 -172 -135 -288.5t-275 -116.5q-131 0 -243 43l-37 225q72 -23 198 -23q82 0 164 46t82 114q0 57 -51 99t-143 42q-68 0 -160 -28l-70 211q215 72 331 152.5 t116 146.5q0 74 -80 73q-107 0 -289 -127z" />
<glyph unicode="4" d="M35 475q0 49 193.5 394t303.5 466l338 -32q-49 -385 -61 -744l131 -12l-29 -215h-106q0 -233 10 -393l-246 20q-10 145 -10 375q-72 0 -280 -25zM340 547q102 14 221 14q14 270 49 506q-174 -301 -270 -520z" />
<glyph unicode="5" d="M176 629l115 620q342 74 577 74v-225q-164 0 -358 -31q-2 -20 -43 -283q209 0 332 -87t123 -246q0 -365 -674 -508l-58 221q465 102 465 266q0 57 -60 94t-146 37q-27 1 -154 -26z" />
<glyph unicode="6" d="M125 451q0 129 24.5 242.5t82 229t105.5 193.5t140 213l316 -26q-276 -289 -369 -547q98 39 188 39q127 0 223.5 -92.5t96.5 -262.5q0 -211 -122 -357t-284 -146q-190 0 -295.5 141t-105.5 373zM381 451q0 -129 39 -209t106 -80q57 0 103.5 69.5t46.5 167.5q0 84 -34 127 t-91 43t-168 -61q0 -8 -1 -27.5t-1 -29.5z" />
<glyph unicode="7" d="M160 1274q260 35 661 55l66 -231q-315 -639 -404 -1129l-241 23q106 559 407 1106q-262 -20 -444 -45z" />
<glyph unicode="8" d="M111 319q0 178 163 326q-133 123 -133 289t125 293t281 127q180 0 281.5 -122t101.5 -249q0 -197 -191 -342q84 -47 136.5 -127t52.5 -180q0 -147 -121 -274.5t-285 -127.5q-170 0 -290.5 108.5t-120.5 278.5zM356 319q0 -72 49.5 -116.5t116.5 -44.5q63 0 111.5 40.5 t48.5 114.5q0 51 -33 96.5t-65.5 69t-87.5 53.5q-139 -92 -140 -213zM387 954q0 -45 34 -102t77 -84q88 53 137 102.5t49 112.5q0 45 -38 95t-99 50q-66 0 -113 -50t-47 -124z" />
<glyph unicode="9" d="M90 821q0 197 139.5 356.5t315.5 159.5q68 0 133 -27.5t126.5 -86t99.5 -168t38 -256.5q0 -325 -465 -903l-194 137q178 203 321 432q-96 -35 -153 -35q-158 0 -259.5 116t-101.5 275zM336 821q0 -68 38 -117t97 -49q96 0 217 93q8 49 8 71q0 154 -46 223.5t-105 69.5 q-80 0 -144.5 -90t-64.5 -201z" />
<glyph unicode=":" horiz-adv-x="532" d="M102 -20q18 156 19 217q0 104 -2 153l266 -24q23 -72 23 -152q0 -143 -29 -217zM115 606q18 156 18 217q0 105 -2 154l266 -25q23 -72 23 -151q0 -143 -29 -217z" />
<glyph unicode=";" horiz-adv-x="532" d="M78 -231q56 335 76 634l272 -90q-20 -186 -160 -559zM115 606q18 156 18 217q0 105 -2 154l266 -25q23 -72 23 -151q0 -143 -29 -217z" />
<glyph unicode="&#x3c;" horiz-adv-x="1705" d="M262 512l23 223q598 211 1097 484l52 -256q-401 -199 -848 -353q451 -233 858 -354l-53 -227q-554 151 -1129 483z" />
<glyph unicode="=" horiz-adv-x="1705" d="M252 256v246q111 0 349.5 8t379.5 8q306 1 494 -22l-37 -246q-166 23 -437 22q-129 0 -379.5 -8t-369.5 -8zM252 705v245q111 0 349.5 8.5t379.5 8.5q306 0 494 -23l-37 -246q-166 23 -437 23q-129 0 -379.5 -8t-369.5 -8z" />
<glyph unicode="&#x3e;" horiz-adv-x="1705" d="M262 991l53 228q554 -152 1129 -484l-23 -223q-598 -211 -1097 -483l-52 256q401 199 848 352q-451 233 -858 354z" />
<glyph unicode="?" horiz-adv-x="858" d="M-12 1149q268 285 491 285q158 0 248 -101.5t90 -255.5q0 -33 -7 -65.5t-26.5 -68.5t-35 -60.5t-51 -65.5t-53 -60.5t-65 -69.5t-63.5 -66q-92 -98 -92 -177q0 -29 10 -63l-174 20q-66 45 -65 111q0 59 40.5 123.5t129.5 165.5q18 20 58 64t59.5 66.5t44 56.5t34.5 59.5 t10 50.5q0 37 -24.5 63.5t-67.5 26.5q-96 0 -303 -203zM195 0q20 76 20 217q0 25 -4 82l238 -25q23 -41 22 -131q0 -115 -33 -190z" />
<glyph unicode="@" horiz-adv-x="1708" d="M70 532q0 213 66.5 394.5t177 303.5t255 189.5t301.5 67.5q156 0 290 -49t242.5 -148.5t172 -266.5t63.5 -384q0 -223 -117.5 -370.5t-291.5 -147.5q-96 0 -167 56t-91 165q-98 -197 -211 -197q-158 0 -219.5 88.5t-61.5 245.5q0 182 81 369.5t183 187.5q92 0 195 -49 q0 16 -4 62l240 -21q0 -344 -15 -610q8 -43 31.5 -64.5t52.5 -21.5q82 0 128 94t46 219q0 172 -45 303t-121.5 208t-172 115t-206.5 38q-238 0 -409.5 -217.5t-171.5 -565.5q0 -332 159.5 -498.5t395.5 -166.5q84 0 174 39l67 -164q-125 -51 -241 -51q-156 0 -292 49 t-246.5 147.5t-174 265t-63.5 385.5zM719 479q0 -113 69 -112q27 0 72 76.5t82 197.5l2 156q-47 39 -100 39q-51 0 -88 -119t-37 -238z" />
<glyph unicode="A" horiz-adv-x="1056" d="M6 -68l367 1485l379 -33l268 -1388l-297 24l-47 285l-305 -12l-78 -385zM414 512l229 8l-100 629z" />
<glyph unicode="B" horiz-adv-x="1071" d="M141 -2q29 440 29 772q0 270 -20 592q240 74 436 74q190 0 325.5 -103.5t135.5 -255.5q0 -227 -254 -360q237 -96 237 -320q0 -168 -174 -298t-364 -130q-27 0 -72 4zM432 225q37 -6 88 -6q84 0 160 54t76 122q0 74 -88 127t-228 66q-4 -242 -8 -363zM434 1169 q8 -246 8 -370q94 8 211 85t117 165q0 61 -60.5 103t-144.5 42q-53 0 -131 -25z" />
<glyph unicode="C" horiz-adv-x="987" d="M53 530q0 141 30 293t88 293t161.5 232.5t236.5 91.5q80 0 140.5 -27t97.5 -81t60.5 -109.5t34.5 -141.5t15.5 -145.5t6.5 -149.5l-265 25q0 74 -3 123t-12 112.5t-32.5 97.5t-60.5 34q-90 0 -157.5 -222.5t-67.5 -404.5q0 -164 47 -257t141 -93q53 0 93 46t57.5 95 t42.5 135l260 -20q-53 -252 -159 -385t-294 -133q-221 0 -341 166.5t-120 424.5z" />
<glyph unicode="D" horiz-adv-x="1028" d="M113 -2q28 425 28 750v22q0 246 -18 596q199 70 364 70q240 0 370 -188.5t130 -456.5q0 -207 -65.5 -390.5t-204.5 -307.5t-326 -124q-37 0 -278 29zM401 236q14 -16 41 -17q94 0 187.5 167t93.5 362q0 193 -66.5 317.5t-158.5 124.5q-49 0 -92 -16q8 -303 8 -461 q0 -254 -13 -477z" />
<glyph unicode="E" horiz-adv-x="915" d="M145 510q0 383 33 846q350 53 684 53v-252q-231 0 -430 -14q-8 -229 -10 -352q156 23 369 26l38 -225q-137 -2 -411 -31q0 -246 2 -354q178 14 426 61l35 -225q-174 -80 -412 -80l-315 29q-8 324 -9 518z" />
<glyph unicode="F" horiz-adv-x="864" d="M145 510q0 383 33 846q350 53 684 53v-252q-229 0 -430 -14q-4 -59 -7 -210t-5 -185q222 30 359 30h9l41 -225q-229 -6 -411 -29q0 -319 8 -563l-276 31q-4 332 -5 518z" />
<glyph unicode="G" horiz-adv-x="1019" d="M82 578q0 223 55.5 417.5t164 319.5t247.5 125q63 0 127.5 -23.5t126 -75t99.5 -146.5t38 -220q0 -84 -18 -182l-240 20q8 41 8 117q0 111 -30.5 189.5t-90.5 78.5q-72 0 -139.5 -185.5t-67.5 -385.5q0 -223 41 -343t117 -120q84 0 125 73.5t62 217.5q-74 0 -158 -15 l-43 203q186 12 467 45q12 -106 12 -170q0 -113 -52 -244t-155.5 -231t-226.5 -100q-213 0 -341 165.5t-128 469.5z" />
<glyph unicode="H" horiz-adv-x="1103" d="M137 813q0 340 17 604l270 -24q-12 -182 -12 -367q0 -37 1 -117t1 -118l307 18q0 320 10 678l270 -25q-18 -326 -18 -676q0 -410 23 -792l-263 22q-18 176 -22 566l-301 -19q6 -291 18 -592l-278 25q-23 432 -23 817z" />
<glyph unicode="I" horiz-adv-x="591" d="M182 754q1 311 19 688l276 -25q-18 -324 -18 -698q0 -436 26 -770l-276 24q-27 418 -27 781z" />
<glyph unicode="J" horiz-adv-x="839" d="M4 356q0 62 16 138l242 -25q-8 -41 -8 -88q0 -82 27.5 -137.5t72.5 -55.5q61 0 89 95.5t28 208.5q0 471 -37 944l289 -25q29 -369 29 -919q0 -86 -19.5 -176.5t-60.5 -177.5t-116 -143t-171 -56q-172 0 -276.5 119.5t-104.5 297.5z" />
<glyph unicode="K" horiz-adv-x="1054" d="M123 666q0 446 20 725l281 -27q-20 -254 -21 -629q259 424 390 711l258 -103q-147 -295 -400 -684q205 -326 396 -491l-189 -213q-238 231 -455 633q0 -375 15 -606l-281 30q-14 313 -14 654z" />
<glyph unicode="L" horiz-adv-x="794" d="M147 788q0 348 23 635l272 -24q-30 -341 -30 -671v-21q0 -303 10 -455q74 10 362 41l41 -238q-153 -18 -434 -61l-217 18q-27 422 -27 776z" />
<glyph unicode="M" horiz-adv-x="1331" d="M98 707q0 354 35 661l385 -31q72 -258 152 -723q115 375 202 811l388 -34q16 -633 16 -725q0 -492 -19 -719l-280 26q27 258 45 1094l-16 2q-20 -80 -65.5 -273.5t-87.5 -355t-95 -334.5l-187 17q-49 197 -113.5 509t-99.5 460l-16 2q18 -684 43 -1131l-270 25 q-16 532 -17 719z" />
<glyph unicode="N" horiz-adv-x="1114" d="M104 211q0 496 56 1155l272 -27q203 -559 365 -850q-12 618 -29 975l256 -22q0 -143 1 -463t1 -490q0 -236 -16 -505l-230 22q-23 51 -97.5 215t-113.5 247t-102.5 211t-118.5 226q2 -302 2 -966l-239 26q-6 127 -7 246z" />
<glyph unicode="O" horiz-adv-x="1067" d="M70 635q0 360 146 585.5t347 225.5q197 0 329 -176t132 -529q0 -356 -147.5 -583.5t-337.5 -227.5q-201 0 -335 175.5t-134 529.5zM342 635q0 -231 56.5 -347t140.5 -116t148.5 160t64.5 409q0 231 -54.5 346t-134.5 115q-90 0 -155.5 -158.5t-65.5 -408.5z" />
<glyph unicode="P" horiz-adv-x="952" d="M133 459q0 387 21 930q172 63 356 63q178 0 320.5 -134t142.5 -349q0 -193 -154.5 -341.5t-404.5 -217.5q0 -229 6 -471l-279 26q-8 231 -8 494zM414 643q129 41 203.5 129t74.5 196.5t-56 176t-126 67.5q-18 0 -84 -10q-10 -289 -12 -559z" />
<glyph unicode="Q" horiz-adv-x="1067" d="M70 635q0 360 146 585.5t347 225.5q197 0 329 -176t132 -529q0 -369 -164 -608q78 -104 201 -211l-264 -98q-70 86 -111 147q-76 -41 -147 -41q-201 0 -335 175.5t-134 529.5zM342 635q0 -231 56.5 -347t140.5 -116q10 0 26 4q-43 92 -61 184l188 -14q59 168 60 395 q0 231 -54.5 346t-134.5 115q-90 0 -155.5 -158.5t-65.5 -408.5z" />
<glyph unicode="R" horiz-adv-x="1075" d="M127 -18q27 492 27 1019q0 242 -2 363q225 106 469 106q180 0 301.5 -114.5t121.5 -323.5q0 -242 -342 -465q186 -233 381 -514l-196 -145q-129 195 -463 635q-6 -316 -18 -592zM430 682q152 72 258.5 177.5t106.5 182.5q0 94 -50.5 141.5t-123.5 47.5q-91 0 -189 -35 q0 -346 -2 -514z" />
<glyph unicode="S" horiz-adv-x="972" d="M31 371l198 96q47 -123 118 -208t151 -85q51 0 92 33t41 96q0 70 -51.5 127t-141.5 119q-82 57 -129 95t-104.5 98.5t-83 130t-25.5 153.5q0 188 125 310t293 122q176 0 294 -133t118 -283q-1 -131 -54 -231l-254 84q27 100 27 160q0 76 -37 120t-90 44q-63 0 -102 -57.5 t-39 -131.5q0 -143 164 -246q86 -55 127 -81.5t98 -72.5t80.5 -84t43 -91.5t19.5 -116.5q0 -184 -123.5 -294t-279.5 -110q-92 0 -171 41t-137.5 114t-94 136.5t-72.5 145.5z" />
<glyph unicode="T" horiz-adv-x="792" d="M-6 1393q201 35 397 51l383 20l39 -227q-113 -6 -254 -18q-12 -295 -12 -535q0 -252 8 -711l-258 23q-20 362 -21 688q0 213 13 506l-250 -35z" />
<glyph unicode="U" horiz-adv-x="1103" d="M111 481q0 433 47 922l278 -27q-45 -449 -45 -895q0 -106 47 -190t119 -84q57 0 96 57.5t55.5 151.5t22.5 172t6 157q0 272 -26 695l278 -29q29 -422 29 -666q0 -59 -4 -119.5t-16.5 -140t-33 -149.5t-55.5 -139.5t-82 -119.5t-116.5 -81t-153.5 -31q-193 0 -319.5 160 t-126.5 356z" />
<glyph unicode="V" horiz-adv-x="972" d="M43 1393l264 -25q78 -510 195 -981l8 2q143 551 231 1077l271 -22q-137 -705 -408 -1456l-235 20q-209 740 -326 1385z" />
<glyph unicode="W" horiz-adv-x="1357" d="M82 1417l264 -22q33 -346 103 -946l10 2q118 546 153 831l205 -18q8 -92 21.5 -220.5t33 -305.5t31.5 -289l10 2q145 627 189 981l268 -23q-115 -678 -336 -1393l-196 17q-70 242 -156 633q-88 -422 -168 -674l-197 16q-174 868 -235 1409z" />
<glyph unicode="X" horiz-adv-x="948" d="M47 72q131 322 287 616q-162 365 -232 678l285 -25q20 -152 102 -446q135 274 291 539l199 -170q-170 -254 -352 -598q117 -285 299 -682l-277 28q-80 182 -172 439q-162 -348 -215 -512z" />
<glyph unicode="Y" horiz-adv-x="909" d="M33 1366l256 -25q45 -229 188 -548q169 372 264 669l238 -22q-152 -432 -365 -879q-4 -184 -4 -289q0 -174 8 -315l-270 29q-18 190 -18 405v158q-268 567 -297 817z" />
<glyph unicode="Z" horiz-adv-x="937" d="M80 184q385 614 565 967q-283 -16 -493 -47l-39 239q252 53 805 60l34 -178q-303 -578 -557 -975q74 6 150 6q166 0 356 -29l-35 -243q-224 30 -381 30h-10q-92 0 -362 -45z" />
<glyph unicode="[" horiz-adv-x="763" d="M133 -465q25 659 25 1030q0 504 -25 889q199 29 352 29q150 0 230 -19l61 -204q-106 8 -241 8q-18 0 -55.5 -3t-43.5 -3q-33 -543 -33 -983q0 -215 25 -527q47 0 159.5 9.5t162.5 9.5l12 -201q-166 -47 -393 -57z" />
<glyph unicode="\" horiz-adv-x="839" d="M-4 1401l180 96q100 -180 211 -418.5t175.5 -393.5t184 -452t154.5 -383l-205 -20q-41 96 -193.5 483t-272 649.5t-234.5 438.5z" />
<glyph unicode="]" horiz-adv-x="763" d="M31 -264q106 -8 241 -8q18 0 55.5 3t43.5 3q33 543 32 983q0 215 -24 526q-47 0 -160 -9t-162 -9l-12 200q166 48 393 58l236 -23q-25 -659 -25 -1030q0 -506 25 -889q-199 -29 -352 -28q-150 0 -230 18z" />
<glyph unicode="^" horiz-adv-x="2048" d="M381 801q164 344 545 719l223 -23q233 -369 545 -688l-277 -72q-242 274 -393 520q-258 -276 -395 -530z" />
<glyph unicode="_" horiz-adv-x="1024" d="M0 -246q84 0 259 8.5t273 8.5q306 0 494 -23l-37 -225q-135 23 -436 22q-94 0 -274.5 -8t-278.5 -8v225z" />
<glyph unicode="`" horiz-adv-x="1024" d="M174 1204l111 182q146 -63 377 -215l-93 -116q-201 102 -395 149z" />
<glyph unicode="a" horiz-adv-x="798" d="M68 225q0 137 123.5 227.5t285.5 94.5v55q0 162 -78 162q-39 0 -70.5 -54t-45.5 -124l-189 18q31 160 117 271.5t213 111.5q152 0 218.5 -115.5t66.5 -298.5q0 -244 -25 -618l-172 14l-16 66q-96 -55 -183 -55q-115 0 -180 66.5t-65 178.5zM276 225q0 -65 76 -65h2h4 q52 0 109 24l4 172q-96 -8 -145.5 -48t-49.5 -83z" />
<glyph unicode="b" horiz-adv-x="882" d="M129 748q0 335 23 753l233 -20q-25 -403 -25 -733q137 217 265 217q98 0 146 -108.5t48 -250.5q0 -156 -31.5 -301t-100.5 -246.5t-157 -101.5q-129 0 -213 115q0 -29 5 -82l-181 18q-12 246 -12 740zM360 397q0 -25 1 -79t1 -80q25 -35 43.5 -48.5t55.5 -13.5 q51 0 90 113.5t39 226.5q0 92 -11.5 137t-48.5 45q-78 0 -170 -301z" />
<glyph unicode="c" horiz-adv-x="724" d="M66 330q0 92 15 192.5t51 208t108.5 177t173.5 69.5q125 0 199.5 -114.5t74.5 -254.5q0 -59 -18 -102l-195 18q4 29 4 66q0 53 -18.5 100t-46.5 47q-57 0 -83 -132t-26 -275q0 -78 22.5 -116t53.5 -38q61 0 174 215l152 -108q-55 -150 -138.5 -238t-187.5 -88 q-129 0 -222 92t-93 281z" />
<glyph unicode="d" horiz-adv-x="839" d="M53 379q0 197 81 397.5t183 200.5q92 0 195 -49q0 41 1 125t1 129q0 141 -6 321l240 -20q4 -145 4 -418q0 -492 -33 -1094l-182 17q-6 82 -13 192q-88 -176 -190 -176q-158 0 -219.5 98.5t-61.5 276.5zM293 379q0 -154 69 -154q27 0 72 89.5t82 226.5l2 196 q-51 39 -100 39q-51 0 -88 -132t-37 -265z" />
<glyph unicode="e" horiz-adv-x="751" d="M51 362q0 100 18.5 201t58.5 197t117 156.5t177 60.5q61 0 110.5 -25.5t79 -57.5t52 -93.5t32 -100t15.5 -112.5t7 -95.5t1 -82.5q-164 -45 -424 -82q6 -82 28.5 -131.5t53.5 -49.5q78 0 166 150l155 -92q-39 -68 -74.5 -115t-107.5 -90t-160 -43q-129 0 -217 109.5 t-88 295.5zM299 477q109 23 188 43v8q0 248 -65 248q-45 0 -81 -90t-42 -209z" />
<glyph unicode="f" horiz-adv-x="587" d="M31 799q20 6 114 22v90q0 276 83 435t218 159q125 0 194 -132t69 -363l-191 20q0 229 -72 230q-61 0 -61 -349v-59q137 10 223 10v-190q-141 0 -221 -10q0 -193 10 -445q2 -41 6.5 -129t6.5 -123l-240 25q-2 35 -6 108.5t-6 110.5q-8 297 -11 420q-53 -9 -73 -15z" />
<glyph unicode="g" horiz-adv-x="827" d="M37 -193l172 74q80 -155 186 -155q63 0 102.5 130t39.5 322q-108 -194 -229 -194h-1q-111 0 -181.5 78.5t-70.5 238.5q0 162 55.5 320.5t136.5 254t154 95.5q129 0 238 -105l143 -20q-26 -128 -26 -514v-29q0 -141 -15.5 -271t-50.5 -255t-102.5 -199t-161.5 -74 q-127 0 -227.5 89.5t-161.5 213.5zM297 301q0 -63 17.5 -96t41.5 -33q18 0 53 41t75.5 131t58.5 199l4 155q-59 63 -94 64q-51 0 -103.5 -147.5t-52.5 -313.5z" />
<glyph unicode="h" horiz-adv-x="870" d="M102 -8q27 352 27 862q0 359 -14 623l239 -23q16 -289 17 -620q93 116 190 116h2q84 0 141.5 -61.5t79 -133t21.5 -137.5q0 -297 -23 -620l-237 22q14 301 14 592q0 109 -55 109q-66 0 -142 -287q-4 -205 -20 -465z" />
<glyph unicode="i" horiz-adv-x="483" d="M137 1110l21 227l229 -26l-20 -230zM141 -6v983l234 -23v-983z" />
<glyph unicode="j" horiz-adv-x="516" d="M-104 -358l71 157q80 -61 119 -61q41 0 70.5 60.5t29.5 170.5q0 698 -10 989l221 -22q18 -309 19 -946q0 -236 -80 -364t-193 -128q-49 0 -121.5 39t-125.5 105zM168 1110l20 227l230 -26l-21 -230z" />
<glyph unicode="k" horiz-adv-x="839" d="M121 481q0 551 31 1016l239 -18q-31 -502 -31 -967q214 260 320 506l164 -144q-92 -215 -246 -425q160 -186 254 -349l-156 -147q-111 172 -336 407q0 -227 9 -399l-240 23q-8 213 -8 497z" />
<glyph unicode="l" horiz-adv-x="483" d="M131 481q0 500 31 1016l239 -18q-30 -502 -30 -968v-30q0 -352 10 -520l-242 23q-8 213 -8 497z" />
<glyph unicode="m" horiz-adv-x="1325" d="M123 541q0 208 12 415l170 -12q12 -55 35 -201q109 170 215 170q125 0 190 -86q106 156 211 156q285 0 285 -428q0 -242 -41 -586l-237 21q38 373 38 585v11q0 188 -65 188q-29 0 -68 -92t-51 -205q-4 -256 -16 -457l-240 23q16 289 17 471q0 190 -52 191q-33 0 -85 -114 t-74 -239q2 -188 18 -389l-240 23q-22 277 -22 533v22z" />
<glyph unicode="n" horiz-adv-x="868" d="M92 541q0 172 12 346l152 -17q4 -16 31 -133q119 238 239 238q270 0 271 -451q0 -238 -27 -504l-240 23q23 233 23 442q0 268 -68 269q-33 0 -84 -165t-63 -323q4 -84 16 -303l-239 23q-23 289 -23 555z" />
<glyph unicode="o" horiz-adv-x="753" d="M49 387q0 90 19.5 185.5t59.5 187.5t114.5 150.5t169.5 58.5q90 0 156.5 -42t101.5 -113t51 -144.5t16 -153.5q0 -223 -91 -396t-255 -173q-342 0 -342 440zM289 369q0 -231 102 -232q45 0 76 130t31 270q0 96 -20.5 168.5t-65.5 72.5q-55 0 -89 -140t-34 -269z" />
<glyph unicode="p" horiz-adv-x="839" d="M117 215v34q0 482 28 773l213 -23l-6 -170q82 125 211 125q113 0 180.5 -98t67.5 -258q0 -238 -101.5 -432.5t-215.5 -194.5q-82 0 -142 21q4 -283 15 -494l-240 25q-10 369 -10 692zM352 219q31 -43 62 -43q57 0 107 112.5t50 258.5q0 82 -20.5 144.5t-46.5 62.5 q-45 0 -79 -53.5t-71 -153.5q-2 -106 -2 -328z" />
<glyph unicode="q" horiz-adv-x="823" d="M57 354q0 250 85 434.5t225 184.5q125 0 235 -154q17 56 23 101l139 -15q-37 -268 -37 -876q0 -299 12 -518l-239 22q-12 203 -13 498q-78 -59 -149 -60q-119 0 -200 107.5t-81 275.5zM297 403q0 -109 20.5 -175t51.5 -66q35 0 68.5 53t54.5 117q4 154 16 330 q-10 45 -36 73.5t-54 28.5q-49 0 -85 -124t-36 -237z" />
<glyph unicode="r" horiz-adv-x="616" d="M88 885l154 -17q14 -59 32 -104q100 215 203 215q85 0 148 -74l-54 -188q-32 22 -78 22h-4q-86 0 -129 -217q4 -143 5 -217q0 -188 -9 -352l-237 20q6 301 6 332q0 379 -37 580z" />
<glyph unicode="s" horiz-adv-x="710" d="M51 162l111 125q82 -141 172 -142q31 0 53.5 17.5t22.5 48.5q0 66 -95 121q-100 55 -157.5 122.5t-57.5 182.5q0 133 102.5 232.5t221.5 99.5q117 0 185.5 -81t68.5 -218q0 -55 -12 -119l-187 16q6 47 6 78q0 123 -61 123q-31 0 -56.5 -29.5t-25.5 -70.5q0 -59 19.5 -92 t80.5 -72q43 -25 73 -44.5t71 -55t62.5 -82t21.5 -97.5q0 -125 -87 -196.5t-200 -71.5q-104 0 -191.5 58.5t-140.5 146.5z" />
<glyph unicode="t" horiz-adv-x="587" d="M43 801q49 10 154 26q4 152 16 443l244 -23q-12 -203 -19 -393q51 2 146 2v-194q-98 0 -152 -3q-6 -205 -6 -688l-242 23q0 358 6 649q-30 0 -116 -10z" />
<glyph unicode="u" horiz-adv-x="860" d="M82 287q0 266 39 635l237 -23q-36 -341 -36 -570v-12q0 -104 65 -104q31 0 75 84t70 203q-2 45 -2 137q1 31 7 344l237 -20q0 -51 -2 -158t-2 -166q0 -457 16 -672l-202 21q-6 86 -27 174q-113 -166 -219 -166q-121 0 -188.5 78t-67.5 215z" />
<glyph unicode="v" horiz-adv-x="749" d="M41 948l233 -20q35 -377 97 -676q84 307 178 772l221 -18q-117 -539 -283 -1039l-262 25q-152 610 -184 956z" />
<glyph unicode="w" horiz-adv-x="1056" d="M31 948l233 -22q33 -449 66 -684q74 291 147 667l158 -14q25 -330 76 -602q72 281 157 729l222 -21q-91 -432 -273 -1026l-192 17q-52 224 -93 418q-51 -182 -135 -441l-213 23q-125 610 -153 956z" />
<glyph unicode="x" horiz-adv-x="753" d="M14 4q94 219 238 463q-123 227 -172 506l227 -23q29 -143 84 -295q123 197 178 363l176 -86q-72 -223 -251 -457q90 -211 229 -375l-154 -145q-117 152 -202 332q-101 -240 -136 -346z" />
<glyph unicode="y" horiz-adv-x="770" d="M72 932l229 -23q31 -377 98 -643q95 438 189 760l196 -115q-170 -526 -348 -1396l-225 20q33 162 108 447q-197 377 -247 950z" />
<glyph unicode="z" horiz-adv-x="704" d="M90 203q231 428 342 577q-176 -14 -280 -39l-39 203q164 33 350 33q90 0 172 -6l33 -189q-180 -252 -357 -569h99q133 0 262 -14l-27 -189q-127 12 -235 13q-97 0 -283 -31z" />
<glyph unicode="{" horiz-adv-x="1024" d="M106 592q106 2 146.5 44t40.5 118q0 45 -17.5 149.5t-17.5 157.5q0 184 145.5 308t384.5 134v-205q-139 -23 -201.5 -90t-62.5 -188q0 -39 17.5 -130t17.5 -136q0 -156 -176 -252q176 -96 176 -254q0 -53 -22.5 -163t-22.5 -155q0 -82 58.5 -132t164.5 -64l-41 -236 q-203 10 -325.5 123t-122.5 279q0 57 22.5 168.5t22.5 158.5q0 66 -34 103t-122 39z" />
<glyph unicode="|" horiz-adv-x="1024" d="M412 -487q23 340 22 897q0 188 -8 568t-8 578h164q0 -170 8 -538.5t8 -587.5q0 -576 -23 -932z" />
<glyph unicode="}" horiz-adv-x="1024" d="M66 -297q139 23 201.5 90.5t62.5 188.5q0 39 -17.5 130t-17.5 136q0 156 176 252q-176 96 -176 254q0 53 22.5 162.5t22.5 154.5q0 82 -58.5 132t-164.5 65l41 235q203 -10 325.5 -122.5t122.5 -278.5q0 -57 -22.5 -169t-22.5 -159q0 -66 34 -102.5t122 -38.5l31 -223 q-106 -2 -146.5 -44t-40.5 -118q0 -45 17.5 -149.5t17.5 -157.5q0 -184 -145.5 -308.5t-384.5 -134.5v205z" />
<glyph unicode="~" horiz-adv-x="1705" d="M174 438q25 133 136.5 249t244.5 116q111 0 272.5 -43t237.5 -43q180 0 287 117l180 -15q-29 -170 -142.5 -265t-287.5 -95q-127 0 -292 51t-241 51q-53 0 -101.5 -43t-64.5 -102z" />
<glyph unicode="&#xa0;" />
<glyph unicode="&#xa1;" horiz-adv-x="569" d="M78 10q102 397 137 1059l164 -20q37 -305 37 -541q0 -266 -39 -555zM162 1307q0 115 33 190l243 -47q-20 -76 -20 -217q0 -25 4 -82l-238 25q-23 41 -22 131z" />
<glyph unicode="&#xa2;" d="M201 530q0 109 18.5 224.5t76.5 236.5t148 164q-6 123 -6 242l205 -17q0 -59 8 -227q86 -41 134.5 -139.5t48.5 -204.5q-1 -73 -19 -102l-194 18q4 29 4 66q0 53 -21.5 100t-54.5 47q-57 0 -83 -132t-26 -276q0 -78 22.5 -115.5t53.5 -37.5q61 0 174 215l152 -109 q-88 -238 -224 -303q-2 -104 -22 -233l-205 18q18 123 21 209q-94 33 -152.5 121t-58.5 235z" />
<glyph unicode="&#xa3;" d="M35 164q100 55 150.5 123.5t76.5 185.5q-96 -6 -170 -18l-45 159q147 23 240 35l6 74q47 616 389 616q125 0 195.5 -109.5t70.5 -275.5q0 -53 -12 -123l-201 21q8 61 8 102q0 160 -71 160q-88 0 -133 -412l-4 -28q150 10 284 10l29 -195q-223 0 -344 -4 q-39 -170 -127 -278q317 43 600 45l20 -225q-541 -4 -868 -70z" />
<glyph unicode="&#xa4;" horiz-adv-x="1241" d="M14 1348l197 127q86 -100 174 -193q104 76 252 76q127 0 219 -60q111 98 217 181l148 -199q-100 -74 -217 -176q35 -92 34 -197q0 -117 -43 -223l215 -215l-174 -174q-119 127 -188 197q-106 -74 -252 -74q-129 0 -227 53l-174 -170l-154 174q27 27 83 89.5t89 94.5 q-27 72 -27 172q0 143 54 265q-145 154 -226 252zM426 827q0 -113 52 -166t118 -53q98 0 150.5 103.5t52.5 216.5q0 92 -39 165.5t-123 73.5q-102 0 -156.5 -110.5t-54.5 -229.5z" />
<glyph unicode="&#xa5;" horiz-adv-x="985" d="M33 1284l246 -24q47 -207 198 -508q125 289 234 628l227 -22q-84 -250 -193 -508q37 2 115 2l8 -154q-125 0 -190 -2l-41 -88q143 4 223 4l8 -153q-178 0 -276 -2q-2 -61 -2 -185q0 -174 8 -315l-229 29q-18 127 -19 405v58q-141 -9 -258 -25l-24 139l241 25l-43 82 q-74 -8 -174 -27l-24 139l135 19q-150 319 -170 483z" />
<glyph unicode="&#xa6;" horiz-adv-x="1024" d="M412 -487q18 280 22 774l164 -15q-4 -455 -23 -774zM418 1556h164q0 -100 2 -214.5t5 -255t5 -224.5l-166 10q-10 563 -10 684z" />
<glyph unicode="&#xa7;" horiz-adv-x="1064" d="M31 2l198 96q147 -252 263 -252q57 0 98 32t41 93q0 102 -193 209q-166 90 -264 194.5t-98 239.5q0 166 104 277q-84 96 -84 211q0 190 129 302t295 112q170 0 288 -134.5t118 -255.5q0 -127 -54 -217l-254 84q27 76 27 133q0 59 -36 104.5t-89 45.5q-55 0 -99 -48 t-44 -126q0 -82 164 -158q195 -90 292 -193.5t97 -240.5q0 -176 -103 -293q82 -88 82 -194q0 -201 -122.5 -308.5t-294.5 -107.5q-84 0 -161 39t-135.5 105.5t-96.5 126t-68 124.5zM336 614q0 -55 57.5 -107t147.5 -91q61 -29 88 -43q43 49 43 127q0 119 -234 209 q-53 20 -78 34q-25 -63 -24 -129z" />
<glyph unicode="&#xa8;" horiz-adv-x="1024" d="M236 1100q18 100 18 135q0 74 -2 111l184 -17q23 -33 23 -117q0 -88 -29 -133zM553 1104q18 100 18 135q0 74 -2 111l185 -17q23 -33 22 -116q0 -88 -28 -134z" />
<glyph unicode="&#xa9;" horiz-adv-x="1527" d="M102 676q0 360 200 585.5t478 225.5q276 0 460.5 -176.5t184.5 -528.5q0 -209 -79.5 -393t-235.5 -301t-354 -117q-281 0 -467.5 175.5t-186.5 529.5zM324 670q0 -260 123 -391.5t309 -131.5q141 0 244.5 90.5t153.5 233.5t50 317q0 262 -119.5 391.5t-302.5 129.5 q-188 0 -323 -177.5t-135 -461.5zM440 643q0 117 33 234.5t116 211t199 93.5q66 0 114 -26t72.5 -60.5t40 -93t18.5 -100t5 -107.5l-217 20q0 190 -45 190.5t-78.5 -123.5t-33.5 -227q0 -186 92 -186q59 0 92 143l215 -16q-35 -147 -106.5 -225t-200.5 -78q-152 0 -234 99.5 t-82 250.5z" />
<glyph unicode="&#xaa;" horiz-adv-x="600" d="M37 922q0 96 90 159.5t209 67.5v37q0 94 -45 94q-44 0 -62 -104l-174 12q25 113 90.5 191.5t161.5 78.5q119 0 170 -82t51 -209t-16 -434l-152 8l-12 47q-59 -39 -117 -38q-90 0 -142 47t-52 125zM225 932q0 -35 35 -35q33 0 68 16l4 80q-51 -4 -79 -22.5t-28 -38.5z" />
<glyph unicode="&#xab;" horiz-adv-x="978" d="M57 455q158 218 240 415l215 -51q-74 -184 -193 -373q94 -215 203 -354l-196 -84q-137 158 -269 447zM467 455q158 218 240 415l215 -51q-74 -184 -193 -373q94 -215 203 -354l-197 -84q-137 158 -268 447z" />
<glyph unicode="&#xac;" horiz-adv-x="1705" d="M252 641v225q111 0 349.5 8.5t379.5 8.5q281 0 453 -23q20 -131 20 -280q0 -152 -20 -226l-246 21q16 76 16 143v135q-131 4 -203 4q-121 0 -370.5 -8t-378.5 -8z" />
<glyph unicode="&#xad;" horiz-adv-x="663" d="M70 561q68 0 200.5 9.5t196.5 9.5q62 -1 113 -7l8 -221q-61 6 -121 6q-57 0 -183 -9t-190 -9z" />
<glyph unicode="&#xae;" horiz-adv-x="1527" d="M102 676q0 360 200 585.5t478 225.5q276 0 460.5 -176.5t184.5 -528.5q0 -209 -79.5 -393t-235.5 -301t-354 -117q-281 0 -467.5 175.5t-186.5 529.5zM324 670q0 -260 123 -391.5t309 -131.5q141 0 244.5 90.5t153.5 233.5t50 317q0 262 -119.5 391.5t-302.5 129.5 q-188 0 -323 -177.5t-135 -461.5zM479 336q16 385 17 579q0 137 -2 207q147 59 309 60q117 0 198.5 -65.5t81.5 -182.5q0 -139 -194 -264q98 -127 196 -273l-151 -104q-33 53 -223 321q-3 -104 -11 -297zM713 985q0 -43 1 -127t1 -125q70 41 118 101.5t48 105.5 q0 33 -22.5 49.5t-55.5 16.5q-43 -1 -90 -21z" />
<glyph unicode="&#xaf;" horiz-adv-x="825" d="M92 1300q74 0 221.5 9.5t216.5 9.5q105 0 195 -6l8 -201q-98 6 -203 6q-63 0 -203.5 -9t-209.5 -9z" />
<glyph unicode="&#xb0;" horiz-adv-x="673" d="M25 1118q0 135 94 241.5t243 106.5q125 0 206 -76.5t81 -199.5q0 -133 -94 -240.5t-244 -107.5q-125 0 -205.5 76.5t-80.5 199.5zM195 1122q0 -59 33.5 -92t88.5 -33q74 0 118 60.5t44 134.5q0 57 -33.5 88t-89.5 31q-76 0 -118.5 -57.5t-42.5 -131.5z" />
<glyph unicode="&#xb1;" horiz-adv-x="1705" d="M248 907q238 6 446 27q10 188 31 342l287 -25q-23 -150 -29 -303q143 4 209 4q172 0 278 -10l-28 -246q-109 10 -250 11q-70 0 -213 -5q0 -152 10 -335l-287 18q-10 174 -10 301q-385 -23 -432 -24zM252 -31v246q111 0 349.5 8t379.5 8q306 1 494 -22l-37 -246 q-166 23 -437 23q-129 0 -379.5 -8.5t-369.5 -8.5z" />
<glyph unicode="&#xb2;" horiz-adv-x="745" d="M92 637q135 100 252 244.5t117 203.5q0 45 -33 45q-39 1 -186 -165l-136 118q45 53 69 80t70 69t91 60.5t92 18.5q109 0 167 -62.5t58 -152.5q0 -139 -250 -404q70 4 224 4l-15 -180q-68 6 -127 6q-141 0 -315 -37z" />
<glyph unicode="&#xb3;" horiz-adv-x="663" d="M92 1206q133 98 258 99q86 0 153.5 -57.5t67.5 -137.5q0 -117 -151 -197q66 -12 101.5 -54t35.5 -103q0 -125 -98.5 -191.5t-229.5 -66.5q-72 0 -116 12l-19 168q49 -4 86 -4q63 0 118.5 21.5t55.5 60.5q0 31 -25.5 52t-68.5 21q-59 0 -94 -18l-55 131q125 37 196.5 86 t71.5 82q0 35 -29 35q-68 0 -168 -74z" />
<glyph unicode="&#xb4;" horiz-adv-x="1024" d="M379 1171q231 152 377 215l110 -182q-194 -47 -395 -149z" />
<glyph unicode="&#xb5;" horiz-adv-x="860" d="M55 -481q10 283 54 620q-27 59 -27 148q0 266 39 635l237 -23q-37 -350 -36 -582q0 -104 65 -104q31 0 75 84t70 203q-2 45 -2 137q0 31 7 344l237 -20q0 -51 -2 -158t-2 -166q0 -457 16 -672l-202 21q-6 86 -27 174q-113 -166 -219 -166q-16 0 -41 4q-13 -150 -21 -498z " />
<glyph unicode="&#x3bc;" horiz-adv-x="860" d="M55 -481q10 283 54 620q-27 59 -27 148q0 266 39 635l237 -23q-37 -350 -36 -582q0 -104 65 -104q31 0 75 84t70 203q-2 45 -2 137q0 31 7 344l237 -20q0 -51 -2 -158t-2 -166q0 -457 16 -672l-202 21q-6 86 -27 174q-113 -166 -219 -166q-16 0 -41 4q-13 -150 -21 -498z " />
<glyph unicode="&#xb6;" horiz-adv-x="1024" d="M27 1067q0 436 577 436q201 0 412 -20l-29 -156q-14 2 -117 8q0 -31 7.5 -269.5t7.5 -389.5q0 -420 -23 -686l-164 14q23 250 23 651q0 143 -7 371.5t-9 310.5q-152 -6 -156 -6q2 -63 9 -305t7 -401q0 -395 -22 -645l-164 14q23 236 22 610q0 137 -2 201 q-41 -12 -120 -12q-111 0 -181.5 80.5t-70.5 193.5z" />
<glyph unicode="&#xb7;" horiz-adv-x="532" d="M102 471q18 158 19 217q0 105 -2 154l266 -25q23 -72 23 -151q0 -143 -29 -217z" />
<glyph unicode="&#xb8;" horiz-adv-x="1024" d="M250 -387l37 92q141 -76 235 -76q35 0 60.5 15.5t25.5 42.5q0 25 -20.5 41t-50.5 16q-29 0 -58 -14l-57 6q2 135 53 252h72q0 -72 16 -121q25 6 47 6q70 0 122 -43t52 -115q0 -94 -67.5 -142t-190.5 -48q-160 0 -276 88z" />
<glyph unicode="&#xb9;" horiz-adv-x="561" d="M92 1047q90 109 184 270l193 -17q-25 -152 -25 -421q0 -168 17 -377l-205 16q-8 113 -8 254q0 150 8 262l-49 -67z" />
<glyph unicode="&#xba;" horiz-adv-x="565" d="M33 1047q0 88 23.5 177t87 161.5t155.5 72.5q127 0 184.5 -97t57.5 -224q0 -158 -67.5 -280t-188.5 -122q-252 1 -252 312zM233 1032q0 -123 52 -123q23 0 39 79t16 163q0 131 -41 131q-29 0 -47.5 -85t-18.5 -165z" />
<glyph unicode="&#xbb;" horiz-adv-x="978" d="M37 786l196 84q137 -158 269 -446q-158 -219 -240 -416l-215 51q74 184 193 373q-94 215 -203 354zM440 786l197 84q137 -158 268 -446q-157 -219 -239 -416l-215 51q74 184 192 373q-94 215 -203 354z" />
<glyph unicode="&#xbc;" horiz-adv-x="1579" d="M92 1047q90 109 184 270l193 -17q-25 -152 -25 -421q0 -168 17 -377l-205 16q-8 113 -8 254q0 150 8 262l-49 -67zM248 12q512 893 930 1352l131 -82q-238 -266 -448.5 -581.5t-454.5 -747.5zM879 264q0 29 112.5 229.5t175.5 272.5l258 -23q-31 -209 -34 -403l96 -8 l-17 -152h-81q0 -157 4 -231l-183 16q-6 68 -6 217q-18 0 -143 -14zM1098 332q66 8 106 8q10 168 29 238q-84 -133 -135 -246z" />
<glyph unicode="&#xbd;" horiz-adv-x="1624" d="M92 1047q90 109 184 270l193 -17q-25 -152 -25 -421q0 -168 17 -377l-205 16q-8 113 -8 254q0 150 8 262l-49 -67zM248 12q512 893 930 1352l131 -82q-238 -266 -448.5 -581.5t-454.5 -747.5zM971 90q135 100 251.5 244.5t116.5 204.5q0 45 -32 45q-40 0 -187 -166 l-135 119q45 53 68.5 79.5t69.5 68.5t91.5 60.5t92.5 18.5q109 0 167 -62.5t58 -152.5q0 -139 -250 -404q70 4 223 5l-14 -181q-68 6 -127 6q-141 0 -315 -36z" />
<glyph unicode="&#xbe;" horiz-adv-x="1601" d="M92 1206q133 98 258 99q86 0 153.5 -57.5t67.5 -137.5q0 -117 -151 -197q66 -12 101.5 -54t35.5 -103q0 -125 -98.5 -191.5t-229.5 -66.5q-72 0 -116 12l-19 168q49 -4 86 -4q63 0 118.5 21.5t55.5 60.5q0 31 -25.5 52t-68.5 21q-59 0 -94 -18l-55 131q125 37 196.5 86 t71.5 82q0 35 -29 35q-68 0 -168 -74zM270 12q512 893 930 1352l131 -82q-238 -266 -448.5 -581.5t-454.5 -747.5zM901 264q0 29 112.5 229.5t176.5 272.5l258 -23q-31 -209 -35 -403l96 -8l-16 -152h-82q0 -157 4 -231l-182 16q-6 68 -6 217q-18 0 -144 -14zM1120 332 q66 8 107 8q10 168 28 238q-84 -133 -135 -246z" />
<glyph unicode="&#xbf;" horiz-adv-x="858" d="M49 309q0 33 7 66t26.5 68.5t35 60t51.5 65.5t53.5 60.5t64.5 70t63 66.5q92 98 92 176q0 29 -10 64l174 -21q66 -45 66 -111q0 -59 -41 -123.5t-129 -164.5q-18 -20 -58.5 -64.5t-59.5 -67t-44 -56t-35 -59.5t-10 -50q0 -37 24.5 -63.5t67.5 -26.5q96 -1 303 202 l189 -163q-268 -285 -492 -285q-158 0 -248 101.5t-90 254.5zM395 1243q0 115 33 191l244 -48q-20 -76 -21 -217q0 -25 4 -82l-237 25q-23 41 -23 131z" />
<glyph unicode="&#xc0;" horiz-adv-x="1056" d="M6 -68l367 1485l379 -33l268 -1388l-297 24l-47 285l-305 -12l-78 -385zM203 1718l110 183q146 -63 377 -215l-92 -117q-201 102 -395 149zM414 512l229 8l-100 629z" />
<glyph unicode="&#xc1;" horiz-adv-x="1056" d="M6 -68l367 1485l379 -33l268 -1388l-297 24l-47 285l-305 -12l-78 -385zM408 1686q231 152 376 215l111 -183q-194 -47 -395 -149zM414 512l229 8l-100 629z" />
<glyph unicode="&#xc2;" horiz-adv-x="1056" d="M6 -68l367 1485l379 -33l268 -1388l-297 24l-47 285l-305 -12l-78 -385zM223 1624q147 166 262 266l140 -10q63 -61 206 -235l-118 -91q-106 94 -166 144q-102 -72 -205 -162zM414 512l229 8l-100 629z" />
<glyph unicode="&#xc3;" horiz-adv-x="1056" d="M6 -68l367 1485l379 -33l268 -1388l-297 24l-47 285l-305 -12l-78 -385zM244 1665q82 174 190 174q41 0 102.5 -28.5t92.5 -28.5q57 -1 106 65l123 -10q-6 -82 -65.5 -154.5t-128.5 -72.5q-51 0 -108.5 18.5t-86.5 18.5q-55 0 -102 -48zM414 512l229 8l-100 629z" />
<glyph unicode="&#xc4;" horiz-adv-x="1056" d="M6 -68l367 1485l379 -33l268 -1388l-297 24l-47 285l-305 -12l-78 -385zM264 1614q18 102 19 135q0 74 -2 111l184 -17q23 -33 22 -117q0 -88 -28 -133zM414 512l229 8l-100 629zM582 1618q18 102 18 135q0 74 -2 111l184 -17q23 -33 23 -116q0 -88 -29 -134z" />
<glyph unicode="&#xc5;" horiz-adv-x="1056" d="M6 -68l367 1485l379 -33l268 -1388l-297 24l-47 285l-305 -12l-78 -385zM334 1686q0 94 71.5 169.5t184.5 75.5q94 0 156.5 -54t62.5 -140q0 -94 -71.5 -170t-184.5 -76q-94 0 -156.5 54t-62.5 141zM414 512l229 8l-100 629zM477 1692q0 -41 22.5 -64.5t57.5 -23.5 q49 0 79 39.5t30 89.5q0 41 -22.5 63.5t-57.5 22.5q-49 0 -79 -39t-30 -88z" />
<glyph unicode="&#xc6;" horiz-adv-x="1366" d="M6 -68l469 1483l399 -35q250 29 496 29v-252q-231 0 -430 -14q-8 -229 -10 -352q156 23 368 26l39 -225q-137 -2 -411 -31q0 -246 2 -354q178 14 426 61l35 -225q-174 -80 -412 -80l-315 29q-4 106 -9 311l-239 -10l-121 -385zM471 512l182 8q0 268 17 584l-4 45z" />
<glyph unicode="&#xc7;" horiz-adv-x="987" d="M53 530q0 141 30 293t88 293t161.5 232.5t236.5 91.5q80 0 140.5 -27t97.5 -81t60.5 -109.5t34.5 -141.5t15.5 -145.5t6.5 -149.5l-265 25q0 74 -3 123t-12 112.5t-32.5 97.5t-60.5 34q-90 0 -157.5 -222.5t-67.5 -404.5q0 -164 47 -257t141 -93q53 0 93 46t57.5 95 t42.5 135l260 -20q-53 -248 -155.5 -380t-285.5 -138q4 -37 17 -72q25 6 47 6q70 0 122 -43t52 -115q0 -94 -67.5 -142t-190.5 -48q-160 0 -277 88l37 92q141 -76 236 -76q35 0 60.5 15.5t25.5 42.5q0 25 -20.5 41t-51.5 16q-29 0 -57 -14l-58 6q2 119 35 209 q-186 29 -284.5 190.5t-98.5 394.5z" />
<glyph unicode="&#xc8;" horiz-adv-x="915" d="M145 510q0 383 33 846q350 53 684 53v-252q-231 0 -430 -14q-8 -229 -10 -352q156 23 369 26l38 -225q-137 -2 -411 -31q0 -246 2 -354q178 14 426 61l35 -225q-174 -80 -412 -80l-315 29q-8 324 -9 518zM145 1718l111 183q146 -63 377 -215l-92 -117q-201 102 -396 149z " />
<glyph unicode="&#xc9;" horiz-adv-x="915" d="M145 510q0 383 33 846q350 53 684 53v-252q-231 0 -430 -14q-8 -229 -10 -352q156 23 369 26l38 -225q-137 -2 -411 -31q0 -246 2 -354q178 14 426 61l35 -225q-174 -80 -412 -80l-315 29q-8 324 -9 518zM350 1686q231 152 377 215l111 -183q-195 -47 -396 -149z" />
<glyph unicode="&#xca;" horiz-adv-x="915" d="M145 510q0 383 33 846q350 53 684 53v-252q-231 0 -430 -14q-8 -229 -10 -352q156 23 369 26l38 -225q-137 -2 -411 -31q0 -246 2 -354q178 14 426 61l35 -225q-174 -80 -412 -80l-315 29q-8 324 -9 518zM227 1624q147 166 262 266l140 -10q63 -61 207 -235l-119 -91 q-106 94 -166 144q-102 -72 -205 -162z" />
<glyph unicode="&#xcb;" horiz-adv-x="915" d="M145 510q0 383 33 846q350 53 684 53v-252q-231 0 -430 -14q-8 -229 -10 -352q156 23 369 26l38 -225q-137 -2 -411 -31q0 -246 2 -354q178 14 426 61l35 -225q-174 -80 -412 -80l-315 29q-8 324 -9 518zM268 1614q18 102 19 135q0 74 -2 111l184 -17q23 -33 23 -117 q0 -88 -29 -133zM586 1618q18 102 18 135q0 74 -2 111l184 -17q23 -33 23 -116q0 -88 -29 -134z" />
<glyph unicode="&#xcc;" horiz-adv-x="591" d="M-25 1718l111 183q146 -63 377 -215l-92 -117q-201 102 -396 149zM182 754q1 311 19 688l276 -25q-18 -324 -18 -698q0 -436 26 -770l-276 24q-27 418 -27 781z" />
<glyph unicode="&#xcd;" horiz-adv-x="591" d="M180 1686q231 152 377 215l111 -183q-195 -47 -396 -149zM182 754q1 311 19 688l276 -25q-18 -324 -18 -698q0 -436 26 -770l-276 24q-27 418 -27 781z" />
<glyph unicode="&#xce;" horiz-adv-x="591" d="M37 1624q147 166 262 266l139 -10q63 -61 207 -235l-119 -91q-106 94 -166 144q-102 -72 -204 -162zM182 754q1 311 19 688l276 -25q-18 -324 -18 -698q0 -436 26 -770l-276 24q-27 418 -27 781z" />
<glyph unicode="&#xcf;" horiz-adv-x="591" d="M78 1614q18 102 18 135q0 74 -2 111l185 -17q23 -33 22 -117q0 -88 -29 -133zM182 754q1 311 19 688l276 -25q-18 -324 -18 -698q0 -436 26 -770l-276 24q-27 418 -27 781zM395 1618q18 102 19 135q0 74 -2 111l184 -17q23 -33 22 -116q0 -88 -28 -134z" />
<glyph unicode="&#xd0;" horiz-adv-x="1048" d="M25 811q78 0 116 2q-2 274 -18 553q199 70 364 70q240 0 370 -188.5t130 -456.5q0 -207 -65.5 -390.5t-204.5 -307.5t-326 -124q-37 0 -278 29q20 326 26 594q-31 -2 -90 -2zM401 236q14 -16 41 -17q94 0 187.5 167t93.5 362q0 193 -66.5 317.5t-158.5 124.5 q-53 0 -97 -16l13 -345q89 0 161 -6l9 -221q-80 6 -170 6q-4 -199 -13 -372z" />
<glyph unicode="&#xd1;" horiz-adv-x="1114" d="M104 211q0 496 56 1155l272 -27q203 -559 365 -850q-12 618 -29 975l256 -22q0 -143 1 -463t1 -490q0 -236 -16 -505l-230 22q-23 51 -97.5 215t-113.5 247t-102.5 211t-118.5 226q2 -302 2 -966l-239 26q-6 127 -7 246zM272 1665q82 174 191 174q41 0 102.5 -28.5 t91.5 -28.5q58 -1 107 65l123 -10q-6 -82 -65.5 -154.5t-129.5 -72.5q-51 0 -108.5 18.5t-85.5 18.5q-55 0 -103 -48z" />
<glyph unicode="&#xd2;" horiz-adv-x="1067" d="M70 635q0 360 146 585.5t347 225.5q197 0 329 -176t132 -529q0 -356 -147.5 -583.5t-337.5 -227.5q-201 0 -335 175.5t-134 529.5zM211 1718l111 183q145 -63 376 -215l-92 -117q-201 102 -395 149zM342 635q0 -231 56.5 -347t140.5 -116t148.5 160t64.5 409 q0 231 -54.5 346t-134.5 115q-90 0 -155.5 -158.5t-65.5 -408.5z" />
<glyph unicode="&#xd3;" horiz-adv-x="1067" d="M70 635q0 360 146 585.5t347 225.5q197 0 329 -176t132 -529q0 -356 -147.5 -583.5t-337.5 -227.5q-201 0 -335 175.5t-134 529.5zM342 635q0 -231 56.5 -347t140.5 -116t148.5 160t64.5 409q0 231 -54.5 346t-134.5 115q-90 0 -155.5 -158.5t-65.5 -408.5zM416 1686 q231 152 377 215l110 -183q-194 -47 -395 -149z" />
<glyph unicode="&#xd4;" horiz-adv-x="1067" d="M70 635q0 360 146 585.5t347 225.5q197 0 329 -176t132 -529q0 -356 -147.5 -583.5t-337.5 -227.5q-201 0 -335 175.5t-134 529.5zM252 1624q147 166 262 266l139 -10q63 -61 207 -235l-119 -91q-106 94 -166 144q-102 -72 -204 -162zM342 635q0 -231 56.5 -347 t140.5 -116t148.5 160t64.5 409q0 231 -54.5 346t-134.5 115q-90 0 -155.5 -158.5t-65.5 -408.5z" />
<glyph unicode="&#xd5;" horiz-adv-x="1067" d="M70 635q0 360 146 585.5t347 225.5q197 0 329 -176t132 -529q0 -356 -147.5 -583.5t-337.5 -227.5q-201 0 -335 175.5t-134 529.5zM252 1665q82 174 190 174q41 0 102.5 -28.5t92.5 -28.5q57 -1 106 65l123 -10q-6 -82 -65.5 -154.5t-128.5 -72.5q-51 0 -108.5 18.5 t-86.5 18.5q-55 0 -102 -48zM342 635q0 -231 56.5 -347t140.5 -116t148.5 160t64.5 409q0 231 -54.5 346t-134.5 115q-90 0 -155.5 -158.5t-65.5 -408.5z" />
<glyph unicode="&#xd6;" horiz-adv-x="1067" d="M70 635q0 360 146 585.5t347 225.5q197 0 329 -176t132 -529q0 -356 -147.5 -583.5t-337.5 -227.5q-201 0 -335 175.5t-134 529.5zM272 1614q18 102 19 135q0 74 -2 111l184 -17q23 -33 23 -117q0 -88 -29 -133zM342 635q0 -231 56.5 -347t140.5 -116t148.5 160t64.5 409 q0 231 -54.5 346t-134.5 115q-90 0 -155.5 -158.5t-65.5 -408.5zM590 1618q18 102 18 135q0 74 -2 111l185 -17q23 -33 22 -116q0 -88 -29 -134z" />
<glyph unicode="&#xd7;" horiz-adv-x="1705" d="M264 1069l197 127q160 -184 393 -414q264 262 469 418l147 -199q-203 -152 -440 -389q295 -283 430 -422l-174 -174q-141 154 -422 428q-317 -328 -420 -421l-153 174q31 33 173 184t224 235q-279 279 -424 453z" />
<glyph unicode="&#xd8;" horiz-adv-x="1067" d="M-141 -131l266 389q-55 160 -55 377q0 360 146 585.5t347 225.5q199 0 324 -172q98 115 188 213l131 -82q-121 -133 -241 -279q59 -162 59 -385q0 -356 -147.5 -583.5t-337.5 -227.5q-207 0 -336 176q-137 -213 -187 -296zM334 635q0 -68 2 -98q205 285 385 512 q-53 162 -158 161q-92 0 -160.5 -160.5t-68.5 -414.5zM367 354q27 -94 71.5 -142t100.5 -48q86 0 153.5 162.5t67.5 414.5q0 77 -6 138q-205 -254 -387 -525z" />
<glyph unicode="&#xd9;" horiz-adv-x="1103" d="M111 481q0 433 47 922l278 -27q-45 -449 -45 -895q0 -106 47 -190t119 -84q57 0 96 57.5t55.5 151.5t22.5 172t6 157q0 272 -26 695l278 -29q29 -422 29 -666q0 -59 -4 -119.5t-16.5 -140t-33 -149.5t-55.5 -139.5t-82 -119.5t-116.5 -81t-153.5 -31q-193 0 -319.5 160 t-126.5 356zM227 1718l111 183q146 -63 377 -215l-92 -117q-201 102 -396 149z" />
<glyph unicode="&#xda;" horiz-adv-x="1103" d="M111 481q0 433 47 922l278 -27q-45 -449 -45 -895q0 -106 47 -190t119 -84q57 0 96 57.5t55.5 151.5t22.5 172t6 157q0 272 -26 695l278 -29q29 -422 29 -666q0 -59 -4 -119.5t-16.5 -140t-33 -149.5t-55.5 -139.5t-82 -119.5t-116.5 -81t-153.5 -31q-193 0 -319.5 160 t-126.5 356zM432 1686q231 152 377 215l111 -183q-195 -47 -396 -149z" />
<glyph unicode="&#xdb;" horiz-adv-x="1103" d="M111 481q0 433 47 922l278 -27q-45 -449 -45 -895q0 -106 47 -190t119 -84q57 0 96 57.5t55.5 151.5t22.5 172t6 157q0 272 -26 695l278 -29q29 -422 29 -666q0 -59 -4 -119.5t-16.5 -140t-33 -149.5t-55.5 -139.5t-82 -119.5t-116.5 -81t-153.5 -31q-193 0 -319.5 160 t-126.5 356zM248 1624q147 166 262 266l139 -10q63 -61 207 -235l-119 -91q-106 94 -166 144q-102 -72 -204 -162z" />
<glyph unicode="&#xdc;" horiz-adv-x="1103" d="M111 481q0 433 47 922l278 -27q-45 -449 -45 -895q0 -106 47 -190t119 -84q57 0 96 57.5t55.5 151.5t22.5 172t6 157q0 272 -26 695l278 -29q29 -422 29 -666q0 -59 -4 -119.5t-16.5 -140t-33 -149.5t-55.5 -139.5t-82 -119.5t-116.5 -81t-153.5 -31q-193 0 -319.5 160 t-126.5 356zM309 1614q18 102 19 135q0 74 -2 111l184 -17q23 -33 22 -117q0 -88 -28 -133zM627 1618q18 102 18 135q0 74 -2 111l184 -17q23 -33 23 -116q0 -88 -29 -134z" />
<glyph unicode="&#xdd;" horiz-adv-x="909" d="M33 1366l256 -25q45 -229 188 -548q169 372 264 669l238 -22q-152 -432 -365 -879q-4 -184 -4 -289q0 -174 8 -315l-270 29q-18 190 -18 405v158q-268 567 -297 817zM338 1686q231 152 377 215l110 -183q-194 -47 -395 -149z" />
<glyph unicode="&#xde;" horiz-adv-x="952" d="M141 754q1 311 19 688l276 -25q-8 -100 -12 -207q43 6 86 7q178 0 320.5 -134.5t142.5 -349.5q0 -193 -149.5 -341t-389.5 -218q0 -31 -2 -47q0 -12 12 -178l-276 24q-27 418 -27 781zM416 719q0 -109 4 -309q125 41 198.5 129t73.5 194q0 109 -56 176.5t-126 67.5 q-43 0 -92 -25q-2 -78 -2 -233z" />
<glyph unicode="&#xdf;" horiz-adv-x="972" d="M31 799q20 6 114 22v90q0 276 94.5 435t247.5 159q162 0 253 -122.5t91 -331.5q0 -70 -34.5 -142.5t-70.5 -126t-36 -73.5q0 -80 60 -144l32 -33q29 -28 46.5 -49.5t41 -55.5t34.5 -75t11 -86q0 -145 -74.5 -227t-170.5 -82q-137 0 -209 82l90 145q29 -18 70 -18 q20 0 37.5 23.5t17.5 62.5q0 74 -53 121q-39 33 -57.5 51t-49.5 57t-44 88t-13 109q0 88 75.5 198.5t75.5 163.5q0 109 -32.5 174.5t-90.5 65.5q-51 0 -81.5 -98.5t-30.5 -270.5q0 -416 12 -694q0 -27 6 -114t6 -138l-229 25q-2 35 -6 108.5t-6 110.5q-8 297 -11 420 q-12 -2 -37.5 -6.5t-35.5 -8.5z" />
<glyph unicode="&#xe0;" horiz-adv-x="798" d="M68 225q0 137 123.5 227.5t285.5 94.5v55q0 162 -78 162q-39 0 -70.5 -54t-45.5 -124l-189 18q31 160 117 271.5t213 111.5q152 0 218.5 -115.5t66.5 -298.5q0 -244 -25 -618l-172 14l-16 66q-96 -55 -183 -55q-115 0 -180 66.5t-65 178.5zM100 1204l111 182 q146 -63 377 -215l-92 -116q-201 102 -396 149zM276 225q0 -66 78 -65q54 -1 113 24l4 172q-96 -8 -145.5 -48t-49.5 -83z" />
<glyph unicode="&#xe1;" horiz-adv-x="798" d="M68 225q0 137 123.5 227.5t285.5 94.5v55q0 162 -78 162q-39 0 -70.5 -54t-45.5 -124l-189 18q31 160 117 271.5t213 111.5q152 0 218.5 -115.5t66.5 -298.5q0 -244 -25 -618l-172 14l-16 66q-96 -55 -183 -55q-115 0 -180 66.5t-65 178.5zM276 225q0 -66 78 -65 q54 -1 113 24l4 172q-96 -8 -145.5 -48t-49.5 -83zM305 1171q231 152 377 215l111 -182q-195 -47 -396 -149z" />
<glyph unicode="&#xe2;" horiz-adv-x="798" d="M68 225q0 137 123.5 227.5t285.5 94.5v55q0 162 -78 162q-39 0 -70.5 -54t-45.5 -124l-189 18q31 160 117 271.5t213 111.5q152 0 218.5 -115.5t66.5 -298.5q0 -244 -25 -618l-172 14l-16 66q-96 -55 -183 -55q-115 0 -180 66.5t-65 178.5zM121 1110q147 166 262 266 l139 -10q63 -61 207 -236l-119 -90q-106 94 -166 144q-102 -72 -204 -162zM276 225q0 -66 78 -65q54 -1 113 24l4 172q-96 -8 -145.5 -48t-49.5 -83z" />
<glyph unicode="&#xe3;" horiz-adv-x="798" d="M68 225q0 137 123.5 227.5t285.5 94.5v55q0 162 -78 162q-39 0 -70.5 -54t-45.5 -124l-189 18q31 160 117 271.5t213 111.5q152 0 218.5 -115.5t66.5 -298.5q0 -244 -25 -618l-172 14l-16 66q-96 -55 -183 -55q-115 0 -180 66.5t-65 178.5zM141 1151q82 174 191 174 q41 0 102.5 -28.5t91.5 -28.5q58 -1 107 65l123 -10q-6 -82 -65.5 -154.5t-129.5 -72.5q-51 0 -108.5 18.5t-85.5 18.5q-55 0 -103 -48zM276 225q0 -66 78 -65q54 -1 113 24l4 172q-96 -8 -145.5 -48t-49.5 -83z" />
<glyph unicode="&#xe4;" horiz-adv-x="798" d="M68 225q0 137 123.5 227.5t285.5 94.5v55q0 162 -78 162q-39 0 -70.5 -54t-45.5 -124l-189 18q31 160 117 271.5t213 111.5q152 0 218.5 -115.5t66.5 -298.5q0 -244 -25 -618l-172 14l-16 66q-96 -55 -183 -55q-115 0 -180 66.5t-65 178.5zM162 1100q18 100 18 135 q0 74 -2 111l184 -17q23 -33 23 -117q0 -88 -29 -133zM276 225q0 -66 78 -65q54 -1 113 24l4 172q-96 -8 -145.5 -48t-49.5 -83zM479 1104q18 100 19 135q0 74 -2 111l184 -17q23 -33 22 -116q0 -88 -28 -134z" />
<glyph unicode="&#xe5;" horiz-adv-x="800" d="M68 225q0 137 123.5 227.5t285.5 94.5v55q0 162 -78 162q-39 0 -70.5 -54t-45.5 -124l-189 18q31 160 117 271.5t213 111.5q152 0 218.5 -115.5t66.5 -298.5q0 -244 -25 -618l-172 14l-16 66q-96 -55 -183 -55q-115 0 -180 66.5t-65 178.5zM203 1241q0 94 71.5 170 t184.5 76q94 0 156.5 -54.5t62.5 -140.5q0 -94 -71.5 -169.5t-184.5 -75.5q-94 0 -156.5 54t-62.5 140zM276 225q0 -66 78 -65q54 -1 113 24l4 172q-96 -8 -145.5 -48t-49.5 -83zM346 1247q0 -41 22.5 -64.5t57.5 -23.5q49 0 79 40t30 89q0 41 -23 63.5t-57 22.5 q-49 0 -79 -39t-30 -88z" />
<glyph unicode="&#xe6;" horiz-adv-x="1114" d="M68 225q0 137 123.5 227.5t285.5 94.5v55q0 162 -78 162q-39 0 -70.5 -54.5t-45.5 -123.5l-189 18q31 160 117 271.5t213 111.5q121 0 192 -92q82 82 201 82q61 0 110.5 -25.5t79 -57.5t52 -93.5t32 -100t15.5 -112.5t7 -95.5t1 -82.5q-164 -45 -424 -82 q6 -82 28.5 -131.5t53.5 -49.5q78 0 166 150l156 -92q-39 -68 -75 -115t-107.5 -90t-159.5 -43q-113 0 -193 92q-88 -70 -246 -69q-115 0 -180 66.5t-65 178.5zM276 225q0 -66 78 -65q54 -1 113 24l4 172q-96 -8 -145.5 -48t-49.5 -83zM694 477q109 23 189 43q0 256 -66 256 q-45 0 -81 -90t-42 -209z" />
<glyph unicode="&#xe7;" horiz-adv-x="724" d="M66 330q0 92 15 192.5t51 208t108.5 177t173.5 69.5q125 0 199.5 -114.5t74.5 -254.5q0 -59 -18 -102l-195 18q4 29 4 66q0 53 -18.5 100t-46.5 47q-57 0 -83 -132t-26 -275q0 -78 22.5 -116t53.5 -38q61 0 174 215l152 -108q-115 -311 -310 -326q0 -41 17 -90q25 6 47 6 q70 0 122 -43t52 -115q0 -94 -67.5 -142t-190.5 -48q-160 0 -277 88l37 92q141 -76 236 -76q35 0 60.5 15.5t25.5 42.5q0 25 -20.5 41t-51.5 16q-29 0 -57 -14l-58 6q2 131 43 227q-109 23 -179 114t-70 253z" />
<glyph unicode="&#xe8;" horiz-adv-x="751" d="M51 362q0 100 18.5 201t58.5 197t117 156.5t177 60.5q61 0 110.5 -25.5t79 -57.5t52 -93.5t32 -100t15.5 -112.5t7 -95.5t1 -82.5q-164 -45 -424 -82q6 -82 28.5 -131.5t53.5 -49.5q78 0 166 150l155 -92q-39 -68 -74.5 -115t-107.5 -90t-160 -43q-129 0 -217 109.5 t-88 295.5zM82 1204l111 182q145 -63 376 -215l-92 -116q-201 102 -395 149zM299 477q109 23 188 43q1 256 -65 256q-45 0 -81 -90t-42 -209z" />
<glyph unicode="&#xe9;" horiz-adv-x="751" d="M51 362q0 100 18.5 201t58.5 197t117 156.5t177 60.5q61 0 110.5 -25.5t79 -57.5t52 -93.5t32 -100t15.5 -112.5t7 -95.5t1 -82.5q-164 -45 -424 -82q6 -82 28.5 -131.5t53.5 -49.5q78 0 166 150l155 -92q-39 -68 -74.5 -115t-107.5 -90t-160 -43q-129 0 -217 109.5 t-88 295.5zM287 1171q231 152 377 215l110 -182q-194 -47 -395 -149zM299 477q109 23 188 43q1 256 -65 256q-45 0 -81 -90t-42 -209z" />
<glyph unicode="&#xea;" horiz-adv-x="751" d="M51 362q0 100 18.5 201t58.5 197t117 156.5t177 60.5q61 0 110.5 -25.5t79 -57.5t52 -93.5t32 -100t15.5 -112.5t7 -95.5t1 -82.5q-164 -45 -424 -82q6 -82 28.5 -131.5t53.5 -49.5q78 0 166 150l155 -92q-39 -68 -74.5 -115t-107.5 -90t-160 -43q-129 0 -217 109.5 t-88 295.5zM102 1110q148 166 263 266l139 -10q63 -61 207 -236l-119 -90q-106 94 -166 144q-102 -72 -205 -162zM299 477q109 23 188 43q1 256 -65 256q-45 0 -81 -90t-42 -209z" />
<glyph unicode="&#xeb;" horiz-adv-x="751" d="M51 362q0 100 18.5 201t58.5 197t117 156.5t177 60.5q61 0 110.5 -25.5t79 -57.5t52 -93.5t32 -100t15.5 -112.5t7 -95.5t1 -82.5q-164 -45 -424 -82q6 -82 28.5 -131.5t53.5 -49.5q78 0 166 150l155 -92q-39 -68 -74.5 -115t-107.5 -90t-160 -43q-129 0 -217 109.5 t-88 295.5zM143 1100q18 100 19 135q0 74 -2 111l184 -17q23 -33 23 -117q0 -88 -29 -133zM299 477q109 23 188 43q1 256 -65 256q-45 0 -81 -90t-42 -209zM461 1104q18 100 18 135q0 74 -2 111l185 -17q23 -33 22 -116q0 -88 -29 -134z" />
<glyph unicode="&#xec;" horiz-adv-x="483" d="M-78 1204l111 182q146 -63 377 -215l-93 -116q-201 102 -395 149zM141 -6v983l234 -23v-983z" />
<glyph unicode="&#xed;" horiz-adv-x="483" d="M127 1171q231 152 377 215l110 -182q-194 -47 -395 -149zM141 -6v983l234 -23v-983z" />
<glyph unicode="&#xee;" horiz-adv-x="483" d="M-57 1110q147 166 262 266l139 -10q63 -61 207 -236l-119 -90q-106 94 -166 144q-102 -72 -205 -162zM141 -6v983l234 -23v-983z" />
<glyph unicode="&#xef;" horiz-adv-x="483" d="M-16 1100q18 100 18 135q0 74 -2 111l184 -17q23 -33 23 -117q0 -88 -29 -133zM141 -6v983l234 -23v-983zM301 1104q18 100 18 135q0 74 -2 111l185 -17q23 -33 22 -116q0 -88 -28 -134z" />
<glyph unicode="&#xf0;" horiz-adv-x="753" d="M35 367q0 106 32.5 235t104.5 233.5t158 104.5q53 0 116 -25q-41 94 -96 175q-133 -55 -239 -119l-48 116q96 55 205 107q-47 53 -96 96l180 127q84 -98 115 -139q92 34 186 61l66 -129q-104 -23 -170 -45q211 -317 211 -591.5t-125 -454.5t-281 -180 q-162 0 -240.5 122.5t-78.5 305.5zM270 367q0 -203 95 -203q61 0 110 116.5t49 292.5q0 68 -12 136q-78 37 -111 36q-55 0 -93 -132t-38 -246z" />
<glyph unicode="&#xf1;" horiz-adv-x="868" d="M92 541q0 172 12 346l152 -17q4 -16 31 -133q119 238 239 238q270 0 271 -451q0 -238 -27 -504l-240 23q23 233 23 442q0 268 -68 269q-33 0 -84 -165t-63 -323q4 -84 16 -303l-239 23q-23 289 -23 555zM145 1151q82 174 191 174q43 0 104.5 -28.5t89.5 -28.5 q58 -1 107 65l123 -10q-6 -82 -65.5 -154.5t-129.5 -72.5q-51 0 -108.5 18.5t-85.5 18.5q-55 0 -103 -48z" />
<glyph unicode="&#xf2;" horiz-adv-x="753" d="M49 387q0 90 19.5 185.5t59.5 187.5t114.5 150.5t169.5 58.5q90 0 156.5 -42t101.5 -113t51 -144.5t16 -153.5q0 -223 -91 -396t-255 -173q-342 0 -342 440zM59 1204l111 182q146 -63 377 -215l-92 -116q-201 102 -396 149zM289 369q0 -231 102 -232q45 0 76 130t31 270 q0 96 -20.5 168.5t-65.5 72.5q-55 0 -89 -140t-34 -269z" />
<glyph unicode="&#xf3;" horiz-adv-x="753" d="M49 387q0 90 19.5 185.5t59.5 187.5t114.5 150.5t169.5 58.5q90 0 156.5 -42t101.5 -113t51 -144.5t16 -153.5q0 -223 -91 -396t-255 -173q-342 0 -342 440zM264 1171q231 152 377 215l111 -182q-195 -47 -396 -149zM289 369q0 -231 102 -232q45 0 76 130t31 270 q0 96 -20.5 168.5t-65.5 72.5q-55 0 -89 -140t-34 -269z" />
<glyph unicode="&#xf4;" horiz-adv-x="753" d="M49 387q0 90 19.5 185.5t59.5 187.5t114.5 150.5t169.5 58.5q90 0 156.5 -42t101.5 -113t51 -144.5t16 -153.5q0 -223 -91 -396t-255 -173q-342 0 -342 440zM115 1110q147 166 262 266l139 -10q63 -61 207 -236l-119 -90q-106 94 -166 144q-102 -72 -205 -162zM289 369 q0 -231 102 -232q45 0 76 130t31 270q0 96 -20.5 168.5t-65.5 72.5q-55 0 -89 -140t-34 -269z" />
<glyph unicode="&#xf5;" horiz-adv-x="753" d="M49 387q0 90 19.5 185.5t59.5 187.5t114.5 150.5t169.5 58.5q90 0 156.5 -42t101.5 -113t51 -144.5t16 -153.5q0 -223 -91 -396t-255 -173q-342 0 -342 440zM100 1151q82 174 191 174q41 0 102.5 -28.5t91.5 -28.5q58 -1 107 65l123 -10q-6 -82 -65.5 -154.5 t-129.5 -72.5q-51 0 -108.5 18.5t-85.5 18.5q-55 0 -103 -48zM289 369q0 -231 102 -232q45 0 76 130t31 270q0 96 -20.5 168.5t-65.5 72.5q-55 0 -89 -140t-34 -269z" />
<glyph unicode="&#xf6;" horiz-adv-x="753" d="M49 387q0 90 19.5 185.5t59.5 187.5t114.5 150.5t169.5 58.5q90 0 156.5 -42t101.5 -113t51 -144.5t16 -153.5q0 -223 -91 -396t-255 -173q-342 0 -342 440zM121 1100q18 100 18 135q0 74 -2 111l185 -17q23 -33 22 -117q0 -88 -29 -133zM289 369q0 -231 102 -232 q45 0 76 130t31 270q0 96 -20.5 168.5t-65.5 72.5q-55 0 -89 -140t-34 -269zM438 1104q18 100 19 135q0 74 -2 111l184 -17q23 -33 23 -116q0 -88 -29 -134z" />
<glyph unicode="&#xf7;" horiz-adv-x="1705" d="M252 481v246q111 0 349.5 8t379.5 8q306 1 494 -22l-37 -246q-166 23 -437 23q-129 0 -379.5 -8.5t-369.5 -8.5zM702 66q16 78 17 143q0 107 -2 158l258 -23q20 -78 20 -156q0 -98 -26 -143zM702 879q16 78 17 143q0 107 -2 158l258 -23q20 -78 20 -156q0 -98 -26 -143z " />
<glyph unicode="&#xf8;" horiz-adv-x="753" d="M-47 -94l141 221q-45 100 -45 260q0 90 19.5 185.5t59.5 187.5t114.5 150.5t169.5 58.5q129 0 209 -86q66 84 151 184l82 -70q-102 -117 -172 -206q55 -113 55 -275q0 -223 -91 -396t-255 -173q-147 0 -233 84l-111 -176zM281 389q117 176 208 299q-25 98 -77 98 q-57 0 -92 -131t-39 -266zM293 236q23 -106 98 -107q47 0 81 135t34 287q-117 -166 -213 -315z" />
<glyph unicode="&#xf9;" horiz-adv-x="860" d="M82 287q0 266 39 635l237 -23q-37 -350 -36 -582q0 -104 65 -104q31 0 75 84t70 203q-2 45 -2 137q1 31 7 344l237 -20q0 -51 -2 -158t-2 -166q0 -457 16 -672l-202 21q-6 86 -27 174q-113 -166 -219 -166q-121 0 -188.5 78t-67.5 215zM100 1204l111 182 q146 -63 377 -215l-92 -116q-201 102 -396 149z" />
<glyph unicode="&#xfa;" horiz-adv-x="860" d="M82 287q0 266 39 635l237 -23q-37 -350 -36 -582q0 -104 65 -104q31 0 75 84t70 203q-2 45 -2 137q1 31 7 344l237 -20q0 -51 -2 -158t-2 -166q0 -457 16 -672l-202 21q-6 86 -27 174q-113 -166 -219 -166q-121 0 -188.5 78t-67.5 215zM305 1171q231 152 377 215 l111 -182q-195 -47 -396 -149z" />
<glyph unicode="&#xfb;" horiz-adv-x="860" d="M82 287q0 266 39 635l237 -23q-37 -350 -36 -582q0 -104 65 -104q31 0 75 84t70 203q-2 45 -2 137q1 31 7 344l237 -20q0 -51 -2 -158t-2 -166q0 -457 16 -672l-202 21q-6 86 -27 174q-113 -166 -219 -166q-121 0 -188.5 78t-67.5 215zM121 1110q147 166 262 266l139 -10 q63 -61 207 -236l-119 -90q-106 94 -166 144q-102 -72 -204 -162z" />
<glyph unicode="&#xfc;" horiz-adv-x="860" d="M82 287q0 266 39 635l237 -23q-37 -350 -36 -582q0 -104 65 -104q31 0 75 84t70 203q-2 45 -2 137q1 31 7 344l237 -20q0 -51 -2 -158t-2 -166q0 -457 16 -672l-202 21q-6 86 -27 174q-113 -166 -219 -166q-121 0 -188.5 78t-67.5 215zM162 1100q18 100 18 135 q0 74 -2 111l184 -17q23 -33 23 -117q0 -88 -29 -133zM479 1104q18 100 19 135q0 74 -2 111l184 -17q23 -33 22 -116q0 -88 -28 -134z" />
<glyph unicode="&#xfd;" horiz-adv-x="770" d="M72 932l229 -23q31 -377 98 -643q95 438 189 760l196 -115q-170 -526 -348 -1396l-225 20q33 162 108 447q-197 377 -247 950zM252 1171q231 152 377 215l110 -182q-194 -47 -395 -149z" />
<glyph unicode="&#xfe;" horiz-adv-x="839" d="M129 748q0 335 23 753l233 -20q-25 -403 -25 -733q137 217 265 217q98 0 146 -108.5t48 -250.5q0 -156 -31.5 -301t-100.5 -246.5t-157 -101.5t-157 55q4 -297 14 -514l-240 25q-18 752 -18 1225zM360 397q0 -25 1 -79t1 -80q25 -35 43.5 -48.5t55.5 -13.5q51 0 90 113.5 t39 226.5q0 92 -11.5 137t-48.5 45q-78 0 -170 -301z" />
<glyph unicode="&#xff;" horiz-adv-x="770" d="M72 932l229 -23q31 -377 98 -643q95 438 189 760l196 -115q-170 -526 -348 -1396l-225 20q33 162 108 447q-197 377 -247 950zM170 1100q18 100 18 135q0 74 -2 111l185 -17q23 -33 22 -117q0 -88 -28 -133zM487 1104q18 100 19 135q0 74 -2 111l184 -17q23 -33 23 -116 q0 -88 -29 -134z" />
<glyph unicode="&#x152;" horiz-adv-x="1443" d="M70 635q0 360 146 585.5t347 225.5q139 0 246 -88q340 51 664 51v-252q-244 0 -451 -14q-8 -229 -10 -352q164 23 389 26l39 -225q-143 -2 -432 -31q0 -246 2 -354q184 14 446 61l35 -225q-174 -80 -412 -80l-315 29q0 4 -1 14t-1 14q-109 -90 -223 -90 q-201 0 -335 175.5t-134 529.5zM342 635q0 -231 56.5 -347t140.5 -116t148.5 160t64.5 409q0 231 -54.5 346t-134.5 115q-90 0 -155.5 -158.5t-65.5 -408.5z" />
<glyph unicode="&#x153;" horiz-adv-x="1144" d="M49 387q0 90 19.5 185.5t59.5 187.5t115 150.5t169 58.5q125 0 206 -86q88 94 213 94q61 0 110.5 -25.5t79.5 -57.5t52.5 -93.5t31.5 -100t15 -112.5t7 -95.5t1 -82.5q-164 -45 -423 -82q6 -82 28.5 -131.5t52.5 -49.5q78 0 166 150l156 -92q-39 -68 -75 -115t-107.5 -90 t-159.5 -43q-104 0 -184 74q-84 -84 -191 -84q-342 0 -342 440zM289 369q0 -231 102 -232q45 0 76 130t31 270q0 96 -20.5 168.5t-65.5 72.5q-55 0 -89 -140t-34 -269zM709 477q109 23 188 43q0 256 -66 256q-45 0 -80.5 -90t-41.5 -209z" />
<glyph unicode="&#x178;" horiz-adv-x="909" d="M33 1366l256 -25q45 -229 188 -548q169 372 264 669l238 -22q-152 -432 -365 -879q-4 -184 -4 -289q0 -174 8 -315l-270 29q-18 190 -18 405v158q-268 567 -297 817zM256 1614q18 102 18 135q0 74 -2 111l185 -17q23 -33 22 -117q0 -88 -28 -133zM573 1618q18 102 19 135 q0 74 -2 111l184 -17q23 -33 23 -116q0 -88 -29 -134z" />
<glyph unicode="&#x2c6;" horiz-adv-x="1024" d="M195 1110q147 166 262 266l139 -10q63 -61 207 -236l-119 -90q-106 94 -166 144q-102 -72 -205 -162z" />
<glyph unicode="&#x2dc;" horiz-adv-x="1024" d="M215 1151q82 174 191 174q41 0 102 -28.5t92 -28.5q58 -1 107 65l122 -10q-6 -82 -65 -154.5t-129 -72.5q-51 0 -108.5 18.5t-86.5 18.5q-55 0 -102 -48z" />
<glyph unicode="&#x2000;" horiz-adv-x="965" />
<glyph unicode="&#x2001;" horiz-adv-x="1931" />
<glyph unicode="&#x2002;" horiz-adv-x="965" />
<glyph unicode="&#x2003;" horiz-adv-x="1931" />
<glyph unicode="&#x2004;" horiz-adv-x="643" />
<glyph unicode="&#x2005;" horiz-adv-x="482" />
<glyph unicode="&#x2006;" horiz-adv-x="321" />
<glyph unicode="&#x2007;" horiz-adv-x="321" />
<glyph unicode="&#x2008;" horiz-adv-x="241" />
<glyph unicode="&#x2009;" horiz-adv-x="386" />
<glyph unicode="&#x200a;" horiz-adv-x="107" />
<glyph unicode="&#x2010;" horiz-adv-x="663" d="M70 561q68 0 200.5 9.5t196.5 9.5q62 -1 113 -7l8 -221q-61 6 -121 6q-57 0 -183 -9t-190 -9z" />
<glyph unicode="&#x2011;" horiz-adv-x="663" d="M70 561q68 0 200.5 9.5t196.5 9.5q62 -1 113 -7l8 -221q-61 6 -121 6q-57 0 -183 -9t-190 -9z" />
<glyph unicode="&#x2012;" horiz-adv-x="663" d="M70 561q68 0 200.5 9.5t196.5 9.5q62 -1 113 -7l8 -221q-61 6 -121 6q-57 0 -183 -9t-190 -9z" />
<glyph unicode="&#x2013;" horiz-adv-x="1024" d="M0 385v164q84 0 259 8t273 8q306 1 494 -22l-37 -164q-166 23 -436 22q-94 0 -274.5 -8t-278.5 -8z" />
<glyph unicode="&#x2014;" horiz-adv-x="2048" d="M0 385v164q178 0 556 8t591 8q561 1 903 -22l-37 -164q-319 23 -846 22q-197 0 -578.5 -8t-588.5 -8z" />
<glyph unicode="&#x2018;" horiz-adv-x="425" d="M66 938q83 254 108 528l209 -24q-14 -238 -76 -578z" />
<glyph unicode="&#x2019;" horiz-adv-x="425" d="M82 909q14 238 76 578l241 -74q-83 -254 -108 -528z" />
<glyph unicode="&#x201a;" horiz-adv-x="425" d="M45 -197q14 238 76 578l241 -74q-83 -254 -108 -528z" />
<glyph unicode="&#x201c;" horiz-adv-x="798" d="M66 938q83 254 108 528l209 -24q-14 -238 -76 -578zM438 938q84 254 109 528l209 -24q-14 -238 -76 -578z" />
<glyph unicode="&#x201d;" horiz-adv-x="798" d="M82 909q14 238 76 578l241 -74q-83 -254 -108 -528zM453 909q14 238 75 578l242 -74q-83 -254 -108 -528z" />
<glyph unicode="&#x201e;" horiz-adv-x="798" d="M45 -197q14 238 76 578l241 -74q-83 -254 -108 -528zM418 -197q14 238 76 578l241 -74q-83 -254 -108 -528z" />
<glyph unicode="&#x2022;" horiz-adv-x="1208" d="M352 532q23 203 23 289q0 141 -2 209l450 -39q35 -63 35 -190q0 -133 -41 -312z" />
<glyph unicode="&#x2026;" horiz-adv-x="1904" d="M178 -20q18 158 19 217q0 104 -2 153l266 -24q23 -72 22 -152q0 -143 -28 -217zM799 -20q18 156 18 217q0 104 -2 153l266 -24q23 -72 23 -152q0 -143 -29 -217zM1421 -20q18 158 19 217q0 104 -2 153l266 -24q23 -72 22 -152q0 -143 -28 -217z" />
<glyph unicode="&#x202f;" horiz-adv-x="386" />
<glyph unicode="&#x2039;" horiz-adv-x="567" d="M57 455q158 218 240 415l215 -51q-74 -184 -193 -373q94 -215 203 -354l-196 -84q-137 158 -269 447z" />
<glyph unicode="&#x203a;" horiz-adv-x="567" d="M37 786l196 84q137 -158 269 -446q-158 -219 -240 -416l-215 51q74 184 193 373q-94 215 -203 354z" />
<glyph unicode="&#x205f;" horiz-adv-x="482" />
<glyph unicode="&#x20ac;" d="M6 563l86 8l6 84l-67 -12l-25 139l119 17q49 221 157.5 369.5t274.5 148.5q170 0 257 -123t93 -283l-231 23q0 178 -115 178q-53 0 -99 -80t-79 -201q215 20 416 21l8 -154q-233 0 -455 -14q-8 -61 -10 -90q254 18 457 18l8 -153q-305 0 -467 -8q16 -283 168 -283 q63 0 99 61.5t63 165.5l225 -22q-109 -410 -387 -410q-186 0 -294 130t-122 339l-61 -8z" />
<glyph unicode="&#x2122;" horiz-adv-x="1470" d="M193 1438q92 14 188 20l180 8l17 -131q-45 0 -101 -8q-4 -61 -4 -170q0 -190 4 -280l-166 8q-6 129 -6 272q0 84 2 162l-96 -16zM670 1171q0 150 12 261l256 -17q14 -98 27 -244q27 111 51 281l258 -20q0 -45 2 -138.5t2 -146.5q0 -197 -6 -285l-162 15q12 123 16 391h-8 q-6 -35 -27.5 -149.5t-37.5 -192.5l-176 14q-12 72 -30 185.5t-24 152.5l-8 2q0 -68 9.5 -200t9.5 -208l-160 13q-4 213 -4 286z" />
<glyph unicode="&#xe000;" horiz-adv-x="1020" d="M0 1020h1020v-1020h-1020v1020z" />
<glyph unicode="&#xfb01;" horiz-adv-x="1105" d="M31 799q12 4 114 32v80q0 276 111 435t293 159q168 0 261 -122.5t93 -331.5l-209 20q0 84 -41 135t-104 51q-74 0 -119 -92t-45 -254v-47q166 8 330 8l233 -22v-879l-233 23v678q-205 0 -328 -10q0 -193 10 -445q5 -119 13 -252l-240 25q-2 35 -6 108.5t-6 110.5 q-8 297 -11 420q-53 -8 -73 -15z" />
<glyph unicode="&#xfb02;" horiz-adv-x="1056" d="M31 799q20 6 114 22v90q0 276 111 435t293 159q129 0 221 -114l6 102l199 -16q-31 -518 -31 -996q0 -352 10 -520l-241 23q-8 213 -8 497q0 352 8 623q-51 184 -164 184q-74 0 -119 -100.5t-45 -276.5v-57q109 8 223 8v-190q-141 0 -221 -10q0 -193 10 -445 q5 -119 13 -252l-240 25q-2 35 -6 108.5t-6 110.5q-8 297 -11 420q-53 -8 -73 -15z" />
<glyph unicode="&#xfb03;" horiz-adv-x="1657" d="M1311 1110l21 227l229 -26l-20 -230zM1315 -6v983l234 -23v-983zM618 799q20 6 114 22v90q0 276 83 435t218 159q125 0 194 -132t69 -363l-191 20q0 229 -72 230q-61 0 -61 -349v-59q137 10 223 10v-190q-141 0 -221 -10q0 -193 10 -445q2 -41 6.5 -129t6.5 -123l-240 25 q-2 35 -6 108.5t-6 110.5q-8 297 -11 420q-53 -9 -73 -15zM31 799q20 6 114 22v90q0 276 83 435t218 159q125 0 194 -132t69 -363l-191 20q0 229 -72 230q-61 0 -61 -349v-59q137 10 223 10v-190q-141 0 -221 -10q0 -193 10 -445q2 -41 6.5 -129t6.5 -123l-240 25 q-2 35 -6 108.5t-6 110.5q-8 297 -11 420q-53 -9 -73 -15z" />
<glyph unicode="&#xfb04;" horiz-adv-x="1657" d="M1305 481q0 500 31 1016l239 -18q-30 -502 -30 -968v-30q0 -352 10 -520l-242 23q-8 213 -8 497zM618 799q20 6 114 22v90q0 276 83 435t218 159q125 0 194 -132t69 -363l-191 20q0 229 -72 230q-61 0 -61 -349v-59q137 10 223 10v-190q-141 0 -221 -10q0 -193 10 -445 q2 -41 6.5 -129t6.5 -123l-240 25q-2 35 -6 108.5t-6 110.5q-8 297 -11 420q-53 -9 -73 -15zM31 799q20 6 114 22v90q0 276 83 435t218 159q125 0 194 -132t69 -363l-191 20q0 229 -72 230q-61 0 -61 -349v-59q137 10 223 10v-190q-141 0 -221 -10q0 -193 10 -445 q2 -41 6.5 -129t6.5 -123l-240 25q-2 35 -6 108.5t-6 110.5q-8 297 -11 420q-53 -9 -73 -15z" />
<glyph horiz-adv-x="495" />
</font>
</defs>
</svg>
